<svg width="344" height="344" viewBox="0 0 344 344" fill="none" xmlns="http://www.w3.org/2000/svg">
<path d="M218.762 268.32C218.748 267.61 218.805 267.715 218.59 267.715C218.635 267.92 218.693 268.122 218.762 268.32Z" fill="#FFE497"/>
<path d="M199.472 240.545C199.575 240.627 199.652 240.737 199.694 240.861C199.736 240.986 199.742 241.12 199.711 241.247C199.274 242.952 198.822 245.616 200.643 246.7C202.236 247.651 205.199 246.619 206.603 245.315C206.699 245.228 206.819 245.171 206.947 245.153C207.803 242.404 209.182 239.845 211.008 237.618C211.039 236.414 211.166 235.427 211.166 235.427C209.993 235.955 208.702 236.168 207.422 236.044C204.345 235.267 202.213 230.996 204.379 226.378C204.897 225.024 205.687 223.789 206.698 222.75C207.71 221.711 208.923 220.89 210.263 220.335C210.838 220.144 211.447 220.08 212.05 220.147C212.652 220.213 213.232 220.41 213.751 220.722C216.661 222.499 214.883 227.348 214.883 227.348C216.581 226.421 217.535 226.275 217.979 226.581L217.795 216.665C217.716 216.608 217.651 216.533 217.606 216.447C217.56 216.36 217.536 216.264 217.535 216.166C216.692 194.413 216.954 193.894 215.734 191.882C215.174 190.967 214.405 190.199 213.491 189.638C212.577 189.077 211.544 188.739 210.475 188.653C210.285 188.694 180.364 194.455 175.59 196.78L173.921 197.714C171.395 199.293 169.328 201.508 167.928 204.138C166.528 206.768 165.844 209.719 165.946 212.697V298.341C184.338 295.854 202.24 290.562 219.028 282.648L218.813 271.134C218 270.153 217.453 268.978 217.227 267.723L206.615 267.787C205.965 267.787 205.906 266.946 205.946 267.118C205.64 264.343 205.382 261.562 205.289 258.772C197.205 261.213 185.585 252.276 189.057 240.434C189.324 239.527 190.015 237.427 190.872 236.994C191.756 236.531 192.495 237.178 199.472 240.545Z" fill="#FFE497"/>
<path d="M215.516 230.901C217.95 237.406 216.902 236.208 218.163 236.638L218.013 228.612C217.835 229.18 217.511 229.69 217.072 230.092C216.634 230.494 216.097 230.773 215.516 230.901Z" fill="#FFE497"/>
<path d="M217.979 226.581C217.527 226.275 216.572 226.421 214.883 227.348C217.817 219.35 208.968 216.584 204.379 226.378C202.217 230.994 204.341 235.267 207.422 236.044C208.702 236.168 209.993 235.955 211.166 235.427C211.166 235.427 211.039 236.416 211.008 237.618C210.975 238.913 211.008 241.675 212.298 241.892C214.236 242.216 217.953 240.275 217.953 238.82C217.366 236.12 216.556 233.474 215.53 230.908C217.559 230.698 218.977 227.253 217.979 226.581Z" fill="#CC6666"/>
<path d="M169.592 24.2348C167.146 22.6513 164.278 21.8454 161.366 21.9231C158.453 22.0008 155.632 22.9584 153.274 24.6699C132.894 39.4912 118.147 65.3135 109.528 89.4021C116.045 91.676 155.466 103.819 214.665 88.3271C205.727 63.5849 191.861 37.7952 169.592 24.2348Z" fill="#F76559"/>
<path d="M93.4544 209.324C93.1397 225.059 92.5067 267.138 99.8442 281.079C107.71 296.026 142.732 304.179 164.607 299.311V222.176C158.857 222.754 123.035 225.545 93.4544 209.324Z" fill="#FF8684"/>
<path d="M178.293 107.626C178.342 107.714 178.371 107.812 178.379 107.912C178.386 108.013 178.372 108.114 178.338 108.209C178.303 108.303 178.249 108.39 178.178 108.462C178.108 108.534 178.023 108.59 177.929 108.627C156.269 116.724 156.747 148.82 178.398 156.403C178.509 156.439 178.607 156.504 178.683 156.591C178.759 156.678 178.81 156.784 178.83 156.898C194.885 162.187 211.226 149.674 211.226 132.168C211.226 114.38 194.408 101.886 178.293 107.626ZM198.271 115.658C198.07 116.043 197.751 116.355 197.362 116.548C196.973 116.742 196.533 116.808 196.104 116.736C195.675 116.665 195.28 116.46 194.974 116.15C194.669 115.841 194.469 115.443 194.403 115.013C194.337 114.584 194.408 114.144 194.607 113.757C194.805 113.371 195.121 113.057 195.509 112.86C195.896 112.663 196.336 112.594 196.765 112.661C197.195 112.729 197.592 112.931 197.9 113.238C198.261 113.516 198.501 113.923 198.57 114.374C198.639 114.824 198.532 115.284 198.271 115.658ZM203.115 146.855C202.289 147.927 201.223 146.061 201.476 145.743C206.372 139.392 207.078 126.307 200.985 118.002C200.469 117.306 202.346 116.265 202.852 116.953C208.901 125.204 209.601 138.424 203.115 146.855Z" fill="#9CF0F0"/>
<path d="M328.828 225.024C325.166 222.05 320.492 220.614 315.792 221.02C313.925 216.464 310.869 212.492 306.944 209.52C303.018 206.548 298.367 204.685 293.475 204.124C292.983 200.871 291.578 197.825 289.422 195.339C287.267 192.854 284.45 191.031 281.299 190.084C281.719 165.001 247.517 157.767 237.394 180.222C237.05 181.001 238.196 181.682 238.55 180.898C248.383 159.074 280.862 166.954 279.959 190.578C279.96 190.724 280.009 190.865 280.097 190.982C280.185 191.098 280.309 191.183 280.449 191.223C283.524 192.063 286.281 193.792 288.377 196.193C290.472 198.595 291.812 201.561 292.228 204.721C292.235 204.897 292.308 205.063 292.433 205.187C292.557 205.311 292.723 205.384 292.899 205.39C297.703 205.863 302.284 207.655 306.135 210.567C309.985 213.479 312.957 217.398 314.72 221.892C314.762 222.032 314.847 222.155 314.963 222.244C315.08 222.332 315.221 222.381 315.367 222.384C333.006 220.447 341.023 243.05 326.881 252.757C323.465 255.09 319.314 256.094 315.209 255.58C314.349 255.475 314.364 256.813 315.209 256.916C333.179 259.102 342.677 236.302 328.828 225.024Z" fill="#AC47F5"/>
<path d="M300.453 260.336C301.638 258.485 302.277 256.337 302.296 254.14C302.316 251.942 301.715 249.783 300.563 247.912C299.411 246.04 297.754 244.531 295.783 243.559C293.812 242.586 291.607 242.189 289.421 242.413C292.317 227.439 279.801 219.209 271.077 223.702C270.312 224.095 270.989 225.25 271.753 224.857C279.717 220.753 291.289 228.865 287.945 242.993C287.919 243.106 287.923 243.224 287.955 243.336C287.987 243.448 288.047 243.549 288.129 243.632C288.211 243.714 288.313 243.774 288.424 243.807C288.536 243.839 288.654 243.842 288.767 243.817C290.875 243.457 293.043 243.755 294.976 244.669C296.91 245.583 298.515 247.07 299.574 248.928C300.634 250.785 301.096 252.924 300.899 255.053C300.702 257.183 299.854 259.2 298.472 260.831C298.064 261.306 298.441 262.164 299.122 261.949C300.473 261.509 301.923 261.471 303.295 261.838C304.668 262.205 305.905 262.962 306.856 264.018C307.807 265.074 308.431 266.383 308.654 267.786C308.876 269.189 308.687 270.627 308.109 271.925C307.765 272.704 308.91 273.387 309.263 272.603C309.92 271.21 310.194 269.666 310.054 268.132C309.914 266.597 309.366 265.128 308.467 263.877C307.569 262.626 306.352 261.637 304.943 261.015C303.533 260.392 301.983 260.158 300.453 260.336Z" fill="#AC47F5"/>
<path d="M291.409 248.186C291.232 248.186 291.062 248.256 290.936 248.382C290.811 248.507 290.74 248.677 290.74 248.855C290.74 249.032 290.811 249.202 290.936 249.328C291.062 249.453 291.232 249.524 291.409 249.524C294.161 249.304 294.971 252.41 295.314 255.129C295.322 255.301 295.397 255.463 295.521 255.581C295.646 255.7 295.812 255.766 295.984 255.766C296.156 255.766 296.321 255.7 296.446 255.581C296.57 255.463 296.645 255.301 296.654 255.129C296.579 253.423 296.099 251.76 295.252 250.277C294.848 249.625 294.281 249.09 293.607 248.723C292.934 248.356 292.176 248.171 291.409 248.186ZM328.109 241.197C328.79 238.555 328.441 235.753 327.134 233.358C325.827 230.963 323.659 229.154 321.069 228.297C320.9 228.258 320.724 228.286 320.575 228.374C320.426 228.463 320.318 228.605 320.272 228.772C320.225 228.938 320.245 229.116 320.327 229.269C320.409 229.421 320.547 229.536 320.711 229.589C322.963 230.345 324.845 231.926 325.978 234.013C327.111 236.1 327.412 238.539 326.819 240.839C326.771 241.011 326.794 241.193 326.881 241.348C326.969 241.502 327.114 241.616 327.285 241.663C327.456 241.711 327.639 241.688 327.793 241.601C327.948 241.514 328.061 241.368 328.109 241.197ZM260.353 174.566C259.493 174.607 259.493 175.942 260.353 175.904C262.458 175.856 264.506 176.589 266.102 177.962C267.698 179.336 268.728 181.251 268.994 183.34C269.072 184.19 270.41 184.2 270.331 183.34C270.06 180.897 268.887 178.643 267.041 177.02C265.196 175.397 262.81 174.522 260.353 174.566ZM241.92 157.906C245.243 152.862 249.882 148.822 255.336 146.224C256.113 145.854 255.435 144.7 254.661 145.07C249.004 147.78 244.195 151.985 240.755 157.23C240.284 157.953 241.448 158.624 241.92 157.906ZM251.923 157.471C254.638 155.111 257.808 153.332 261.237 152.246C262.056 151.988 261.707 150.698 260.883 150.956C257.234 152.111 253.862 154.005 250.977 156.52C250.327 157.091 251.275 158.035 251.923 157.471ZM88.1517 196.013C83.9327 194.736 79.4546 194.575 75.155 195.547C70.8554 196.518 66.8813 198.588 63.6212 201.555C60.361 204.522 57.9262 208.284 56.5548 212.473C55.1834 216.662 54.9222 221.135 55.7968 225.456C52.6727 227.046 50.0346 229.448 48.16 232.41C18.0256 223.132 -4.43418 260.019 17.0693 282.622C15.3946 285.619 14.5069 288.992 14.4893 292.426C14.4893 292.603 14.5597 292.773 14.6852 292.899C14.8107 293.024 14.9809 293.095 15.1583 293.095C15.3358 293.095 15.506 293.024 15.6314 292.899C15.7569 292.773 15.8274 292.603 15.8274 292.426C15.8401 289.059 16.7503 285.757 18.4642 282.859C18.5355 282.731 18.5638 282.583 18.545 282.437C18.5261 282.291 18.461 282.155 18.3593 282.049C-2.9223 260.401 19.0473 224.312 48.2735 233.832C48.4157 233.87 48.5663 233.86 48.7025 233.805C48.8387 233.749 48.9532 233.651 49.0286 233.524C50.8826 230.424 53.6137 227.943 56.8769 226.393C57.0021 226.317 57.0994 226.202 57.1548 226.066C57.2102 225.93 57.2207 225.78 57.1848 225.638C56.2758 221.52 56.4602 217.235 57.7199 213.21C58.9795 209.186 61.2705 205.56 64.3651 202.695C67.4598 199.83 71.2504 197.824 75.3602 196.878C79.47 195.931 83.756 196.077 87.7922 197.299C87.959 197.336 88.1332 197.307 88.2794 197.219C88.4255 197.131 88.5325 196.99 88.5784 196.826C88.6243 196.661 88.6057 196.486 88.5264 196.335C88.4471 196.183 88.313 196.068 88.1517 196.013ZM81.5847 239.458C67.983 236.61 59.383 244.384 59.7631 253.929C57.4567 253.753 55.1407 254.107 52.9919 254.963C50.8431 255.819 48.9185 257.155 47.365 258.869C45.8116 260.583 44.6703 262.629 44.0286 264.851C43.3868 267.073 43.2615 269.413 43.6622 271.691C43.8032 272.537 45.0932 272.18 44.9522 271.335C44.6061 269.25 44.7419 267.112 45.3494 265.087C45.9569 263.063 47.0198 261.203 48.4567 259.653C49.8937 258.102 51.6665 256.901 53.6394 256.141C55.6123 255.382 57.7329 255.084 59.8388 255.27C60.0108 255.25 59.7803 255.824 60.4769 257.912C60.7469 258.726 62.0404 258.377 61.7669 257.556C60.9488 255.114 60.8733 252.484 61.5499 249.999C62.2266 247.514 63.6249 245.285 65.5681 243.595C71.5726 238.411 83.8448 239.72 86.0069 243.745C86.4145 244.503 87.5703 243.829 87.1627 243.07C86.5538 242.097 85.7388 241.269 84.775 240.645C83.8112 240.021 82.7221 239.616 81.5847 239.458Z" fill="#AC47F5"/>
<path d="M25.2272 243.349C22.9165 244.381 20.9713 246.087 19.6461 248.243C18.3209 250.399 17.6776 252.904 17.8002 255.432C17.8553 256.292 19.1917 256.292 19.1384 255.432C19.0198 253.139 19.6039 250.864 20.8127 248.911C22.0215 246.958 23.7974 245.421 25.9032 244.505C26.6926 244.169 26.0115 243.015 25.2272 243.349ZM66.0978 234.066C66.2698 234.909 67.5633 234.553 67.3878 233.71C67.2006 232.845 67.253 231.944 67.5393 231.106C67.8257 230.268 68.3351 229.524 69.0129 228.954C69.6907 228.384 70.5111 228.01 71.3858 227.871C72.2605 227.733 73.1565 227.835 73.9771 228.168C74.5774 228.392 74.9541 227.652 74.7322 227.186C70.1502 217.413 78.2204 208.624 85.9363 211.046C86.7585 211.305 87.1128 210.014 86.2924 209.756C78.2084 207.219 69.0666 215.695 73.0484 226.569C72.0515 226.417 71.0326 226.511 70.0806 226.844C69.1286 227.176 68.2725 227.737 67.5869 228.476C66.9014 229.216 66.4073 230.112 66.1477 231.086C65.8881 232.061 65.871 233.084 66.0978 234.066ZM62.3998 182.649C69.0334 181.071 75.9566 181.179 82.5376 182.963C82.7071 183.005 82.8864 182.98 83.0371 182.892C83.1879 182.803 83.2982 182.66 83.3445 182.491C83.3907 182.323 83.3693 182.143 83.2847 181.99C83.2002 181.837 83.0592 181.724 82.8919 181.673C76.0778 179.829 68.9104 179.721 62.0438 181.359C61.2062 181.558 61.5622 182.848 62.3998 182.649ZM54.997 192.735C59.3739 190.238 64.3676 189.029 69.402 189.248C70.262 189.286 70.262 187.948 69.402 187.91C64.13 187.69 58.903 188.962 54.321 191.579C54.1677 191.668 54.0563 191.815 54.0113 191.987C53.9663 192.159 53.9914 192.341 54.0811 192.495C54.1707 192.648 54.3176 192.759 54.4893 192.804C54.6611 192.849 54.8437 192.824 54.997 192.735ZM128.931 301.463C118.873 296.76 107.404 302.854 105.476 312.008C100.162 310.106 93.3203 313.597 91.387 322.631C91.215 323.47 92.4964 323.835 92.677 322.987C94.4624 314.648 100.513 311.545 105.257 313.338C104.962 315.449 105.463 317.595 106.662 319.358C107.163 320.046 108.324 319.382 107.818 318.683C102.226 310.978 114.903 296.359 128.257 302.61C129.033 302.98 129.712 301.827 128.931 301.463ZM140.957 303.351C139.518 302.99 137.998 303.145 136.662 303.79C135.325 304.436 134.258 305.53 133.647 306.882C133.036 308.234 132.919 309.758 133.317 311.188C133.715 312.617 134.603 313.862 135.825 314.703C136.53 315.2 137.201 314.043 136.499 313.547C135.548 312.875 134.863 311.891 134.561 310.766C134.26 309.641 134.362 308.446 134.849 307.388C135.337 306.33 136.179 305.476 137.23 304.974C138.281 304.472 139.474 304.354 140.603 304.64C141.439 304.846 141.795 303.556 140.957 303.351Z" fill="#AC47F5"/>
<path d="M115.737 305.921C114.6 306.701 113.651 307.727 112.962 308.922C112.273 310.117 111.86 311.451 111.754 312.827C111.754 313.004 111.824 313.174 111.95 313.3C112.075 313.425 112.245 313.496 112.423 313.496C112.6 313.496 112.77 313.425 112.896 313.3C113.021 313.174 113.092 313.004 113.092 312.827C113.188 311.683 113.536 310.574 114.109 309.58C114.683 308.586 115.469 307.731 116.411 307.075C116.561 306.982 116.669 306.836 116.714 306.665C116.759 306.495 116.737 306.314 116.652 306.16C116.562 306.008 116.415 305.897 116.244 305.852C116.072 305.808 115.89 305.832 115.737 305.921Z" fill="#AC47F5"/>
<path d="M113.692 259.665L83.4956 260.384L90.7592 263.736C91.9064 263.85 88.3976 263.981 121.516 262.094L113.692 259.665ZM80.9965 260.7C79.7925 264.097 66.0462 303.217 65.9843 303.389L75.8709 310.802C76.6397 308.546 73.4199 318.644 90.2879 264.999C90.1778 264.956 91.1737 265.396 80.9965 260.7Z" fill="#F76559"/>
<path d="M265.964 189.043C263.815 187.722 264.335 188.075 234.775 186.979C232.774 135.586 214.795 47.7627 169.167 22.4254C166.696 21.0761 163.904 20.4249 161.09 20.5415C158.277 20.6582 155.548 21.5383 153.197 23.0876C150.016 25.3063 147.027 27.7878 144.262 30.5059C116.444 56.76 102.466 97.9265 96.7293 135.899C92.1386 166.291 91.0069 227.265 92.8542 252.898C92.9161 253.758 94.2543 253.758 94.1923 252.898C92.4207 228.662 93.7623 177.255 95.7094 155.6C99.9182 108.757 115.887 51.8597 153.271 24.67C155.629 22.9577 158.451 21.9996 161.364 21.922C164.277 21.8443 167.146 22.6506 169.592 24.2348C214.752 51.7342 230.521 134.33 233.442 186.935L226.108 186.663C225.248 186.632 225.248 187.97 226.108 188.001C264.445 189.406 263.535 189.147 265.229 190.161C266.09 190.684 266.799 191.421 267.288 192.301C267.777 193.182 268.027 194.174 268.016 195.18C268.016 195.597 266.999 276.266 266.997 276.364C266.988 277.193 266.799 278.01 266.445 278.759C266.091 279.509 265.579 280.173 264.945 280.706C264.31 281.24 263.568 281.63 262.769 281.85C261.97 282.071 261.133 282.116 260.315 281.984L232.425 279.478C231.565 279.4 231.565 280.74 232.425 280.816L260.461 283.336C261.446 283.447 262.442 283.351 263.387 283.054C264.332 282.756 265.204 282.264 265.947 281.609C266.69 280.954 267.287 280.15 267.7 279.249C268.113 278.349 268.332 277.372 268.344 276.382C268.344 276.21 269.362 195.332 269.364 195.158C269.367 193.933 269.056 192.728 268.461 191.657C267.866 190.587 267.006 189.687 265.964 189.043Z" fill="#1D1D1B"/>
<path d="M216.813 191.08C216.123 189.995 215.187 189.087 214.082 188.429C212.976 187.772 211.732 187.384 210.449 187.296C209.425 187.266 208.403 187.386 207.415 187.654C178.056 194.382 176.255 194.198 172.062 197.336C169.93 198.928 168.164 200.96 166.885 203.294C165.605 205.628 164.842 208.209 164.645 210.863C164.558 212.122 164.602 300.291 164.602 300.291C164.602 300.469 164.673 300.639 164.798 300.764C164.924 300.89 165.094 300.96 165.271 300.96C165.449 300.96 165.619 300.89 165.744 300.764C165.87 300.639 165.94 300.469 165.94 300.291V212.692C165.843 209.715 166.529 206.765 167.928 204.136C169.328 201.507 171.392 199.291 173.916 197.709C177.325 195.55 176.84 196.04 207.475 189.012C208.125 188.836 208.788 188.71 209.458 188.636C210.699 188.554 211.939 188.813 213.044 189.384C214.149 189.955 215.078 190.817 215.729 191.876C217.633 195.022 216.907 216.013 217.793 216.66C217.888 216.741 218.005 216.793 218.129 216.811C218.253 216.828 218.379 216.809 218.493 216.756C218.606 216.704 218.702 216.62 218.769 216.514C218.837 216.409 218.872 216.286 218.872 216.161C217.988 193.816 218.311 193.447 216.813 191.08ZM222.427 189.702C222.374 188.842 221.037 188.842 221.091 189.702L222.669 215.375C222.721 216.235 224.061 216.235 224.008 215.375C223.904 213.707 222.568 191.952 222.427 189.702Z" fill="#1D1D1B"/>
<path d="M275.673 273.007L267.391 262.259C267.047 261.902 266.583 261.684 266.088 261.647C265.594 261.611 265.103 261.758 264.71 262.061L260.626 265.21C258.408 262.778 255.601 260.958 252.475 259.926C253.267 260.456 254.108 261.192 254.127 261.939C256.139 263.013 257.972 264.394 259.558 266.034L251.541 272.216C250.217 270.336 247.198 265.891 247.183 263.592C246.701 263.311 246.376 263.102 246.376 263.102C246.376 263.102 247.346 265.51 246.4 266.026C247.474 268.516 248.84 270.871 250.47 273.04L247.123 275.62C246.734 275.919 246.467 276.35 246.374 276.832C246.281 277.314 246.367 277.813 246.617 278.236L254.661 288.403C254.798 288.633 254.978 288.834 255.193 288.994C255.408 289.153 255.652 289.268 255.912 289.332C256.172 289.397 256.442 289.408 256.706 289.367C256.97 289.325 257.224 289.231 257.451 289.091L275.279 276.11C275.534 275.952 275.75 275.739 275.912 275.487C276.074 275.235 276.177 274.95 276.215 274.652C276.253 274.355 276.224 274.053 276.13 273.768C276.036 273.484 275.88 273.224 275.673 273.007Z" fill="#D1A9FF"/>
<path d="M254.407 259.679C254.854 258.848 253.671 256.595 246.839 256.411C246.245 259.062 244.679 261.394 242.449 262.947C245.662 267.893 247.733 266.499 246.368 263.119C250.231 265.614 251.294 265.08 251.502 264.765C252.293 263.58 250.712 261.801 250.712 261.801C250.712 261.801 253.014 263.446 253.674 262.856C255.079 261.603 252.843 260.012 251.156 259.192C251.528 259.348 253.98 260.47 254.407 259.679ZM199.749 235.105C201.113 236.099 200.093 238.574 199.045 239.986C198.816 240.299 198.569 240.1 199.405 240.492C199.429 240.507 199.451 240.525 199.472 240.545C200.189 239.546 203.495 234.83 202.358 234.204C201.5 233.729 200.38 234.532 199.749 235.105ZM198.724 236.172C197.933 236.469 197.208 236.915 196.586 237.486C195.898 238.036 195.069 237.066 195.679 236.514C196.605 235.671 198.276 234.469 199.437 234.926C200.7 230.11 198.166 230.348 195.776 234.238C196.474 230.798 194.572 228.423 191.304 236.784L191.457 236.858C192.405 237.074 193.308 237.456 194.124 237.984L197.821 239.732C197.804 239.659 197.801 239.584 197.814 239.51C197.827 239.437 197.854 239.366 197.895 239.304C198.706 238.189 199.608 236.034 198.724 236.172Z" fill="#CC6666"/>
<path d="M227.504 267.116H227.145C225.953 267.859 225.057 267.682 218.588 267.713C218.837 268.942 219.476 270.057 220.409 270.894C221.343 271.731 222.522 272.244 223.77 272.357C223.941 272.404 224.087 272.517 224.174 272.672C224.262 272.826 224.284 273.009 224.237 273.18C224.19 273.351 224.077 273.496 223.922 273.584C223.768 273.671 223.585 273.694 223.414 273.647C221.882 273.455 220.453 272.774 219.338 271.707C218.222 270.639 217.481 269.24 217.222 267.718L206.61 267.782C206.438 267.776 206.274 267.706 206.151 267.586C206.029 267.465 205.955 267.303 205.946 267.131C203.412 267.266 194.25 268.335 190.638 276.763C186.424 286.595 202.399 299.76 202.399 299.76C202.399 299.76 210.297 299.588 212.58 298.004C212.58 298.004 201.871 284.137 205.031 278.87C207.537 274.696 210.869 274.006 214.501 275.817C213.17 274.367 211.811 272.935 210.353 271.619C209.711 271.041 210.66 270.098 211.297 270.673C222.64 280.903 237.391 304.041 237.288 304.911C239.123 305.056 244.31 305.245 246.46 303.095L227.504 267.116Z" fill="#AC47F5"/>
<path d="M205.289 258.772C205.437 263.206 205.992 267.31 205.951 267.137C205.96 267.308 206.034 267.47 206.157 267.591C206.28 267.711 206.443 267.781 206.615 267.787L217.227 267.723C217.482 269.247 218.222 270.648 219.338 271.716C220.454 272.785 221.886 273.464 223.419 273.652C223.59 273.699 223.773 273.677 223.928 273.589C224.082 273.501 224.195 273.356 224.242 273.185C224.29 273.014 224.267 272.831 224.179 272.677C224.092 272.522 223.947 272.409 223.775 272.362C222.527 272.248 221.349 271.734 220.416 270.898C219.482 270.061 218.843 268.946 218.593 267.718L224.997 267.678C225.665 267.73 226.333 267.583 226.917 267.254C227.501 266.926 227.974 266.431 228.277 265.833C228.88 264.488 228.652 264.44 225.423 252.635C230.542 256.339 235.843 259.783 241.307 262.955C241.479 263.07 241.682 263.13 241.889 263.126C242.095 263.123 242.296 263.056 242.463 262.935C244.739 261.347 246.323 258.952 246.894 256.237C246.926 256.123 246.926 256.002 246.896 255.888C246.866 255.773 246.806 255.669 246.722 255.585C241.077 250.908 224.489 238.146 217.41 236.414C217.714 237.436 217.86 238.134 217.823 237.962C218.05 238.079 226.858 240.993 245.492 256.301C244.961 258.482 243.675 260.405 241.861 261.729C236.326 258.882 221.909 248.578 216.964 244.945C216.268 244.429 215.6 245.597 216.288 246.101C216.46 246.227 222.114 250.294 223.703 251.418C223.858 251.98 227.04 263.514 227.169 264.08C227.276 264.522 227.216 264.988 226.999 265.387C226.781 265.786 226.423 266.091 225.994 266.24C225.578 266.383 226.404 266.32 207.217 266.443C206.242 257.412 205.781 248.263 210.547 240.518C211.426 239.097 210.924 240.535 211.004 237.616C210.877 237.718 210.762 237.833 210.66 237.96C209.03 240.132 207.771 242.56 206.935 245.145C205.974 245.879 204.896 246.447 203.746 246.823C200.586 247.683 198.426 246.239 199.707 241.239C199.742 241.096 199.73 240.947 199.676 240.812C199.621 240.676 199.525 240.562 199.401 240.483C198.562 240.09 198.804 240.311 199.042 239.978C201.9 236.113 199.919 232.649 195.676 236.505C195.559 236.628 195.493 236.791 195.492 236.961C195.492 237.13 195.555 237.294 195.671 237.418C195.787 237.542 195.946 237.617 196.115 237.628C196.284 237.639 196.451 237.585 196.582 237.477C197.136 237.002 197.743 236.593 198.392 236.259C198.854 236.101 199.241 235.946 198.959 237.236C198.75 237.911 198.429 238.547 198.012 239.118C197.84 239.352 197.766 239.462 197.812 239.732C192.296 237.124 191.715 236.538 190.868 236.98C190.022 237.422 189.32 239.536 189.054 240.42C185.576 252.298 197.27 261.191 205.289 258.772ZM192.165 252.21C190.752 250.168 189.939 247.77 189.817 245.289C189.696 242.808 190.271 240.343 191.477 238.172C191.41 238.211 191.529 238.201 191.649 238.247C192.198 238.464 192.717 238.803 193.252 239.056L198.295 241.44C197.802 243.707 197.738 246.536 199.969 247.855C201.001 248.306 202.132 248.48 203.252 248.36C204.371 248.239 205.44 247.828 206.352 247.167C205.546 250.513 205.178 253.949 205.256 257.389C200.71 258.934 194.929 256.108 192.165 252.21ZM178.398 156.403C156.673 148.795 156.324 116.705 177.929 108.627C178.725 108.331 178.362 107.042 177.575 107.337C154.527 115.949 155.17 149.681 178.044 157.693C178.866 157.98 179.178 156.675 178.398 156.403ZM125.409 261.904C114.76 258.599 114.072 258.375 113.854 258.339C113.635 258.303 97.7338 258.71 80.5975 259.115C80.4554 259.13 80.3203 259.184 80.2066 259.271C80.093 259.358 80.0051 259.474 79.9525 259.606C79.8923 259.778 64.7649 302.823 64.5499 303.449C64.3349 304.075 64.2385 303.747 75.9156 312.5C76.1702 312.689 74.9541 312.813 89.8597 310.197C89.9717 310.166 90.0738 310.107 90.1558 310.025C90.2379 309.943 90.2971 309.841 90.3275 309.729C90.6715 308.652 101.552 273.839 101.654 273.504L125.625 274.278C125.802 274.276 125.971 274.205 126.096 274.08C126.222 273.955 126.293 273.786 126.294 273.609C125.873 261.885 126.086 262.114 125.409 261.904ZM113.683 259.668L121.508 262.097C84.9903 264.18 93.6437 263.74 90.7506 263.74L83.4871 260.387L113.683 259.668ZM75.8709 310.804L65.9843 303.391C66.048 303.21 79.7942 264.072 80.9965 260.702C94.1597 266.777 89.0977 264.526 90.2845 265.002C75.7969 311.081 76.7705 308.167 75.8709 310.804ZM89.1321 308.974L77.228 311.074C93.052 260.678 91.16 266.679 91.6244 265.332L100.376 273.033C88.1586 312.292 89.6481 307.247 89.1321 308.972V308.974ZM101.397 272.166L93.322 265.052C93.494 265.042 123.971 263.303 124.586 263.258C124.693 266.246 124.93 272.685 124.93 272.918L101.397 272.166ZM237.291 304.92C237.398 304.022 222.671 280.948 211.3 270.682C210.664 270.107 209.713 271.05 210.356 271.628C215.791 276.53 226.438 289.017 236.056 305.197C236.131 305.313 236.24 305.403 236.367 305.455C236.495 305.507 236.636 305.519 236.77 305.489C236.905 305.459 237.027 305.388 237.12 305.286C237.213 305.185 237.273 305.057 237.291 304.92ZM245.171 305.766C242.379 306.463 239.511 306.809 236.634 306.798C236.634 306.798 229.962 306.096 229.261 306.97C228.559 307.844 229.962 312.06 245.587 310.305C250.159 309.787 248.273 304.966 245.171 305.766ZM210.939 299.968C208.148 300.666 205.28 301.012 202.403 301C202.403 301 195.731 300.3 195.029 301.172C194.327 302.044 195.731 306.263 211.355 304.505C215.927 303.993 214.039 299.173 210.939 299.968ZM213.743 220.722C216.653 222.499 214.874 227.348 214.874 227.348C218.43 225.409 218.753 226.863 217.945 228.801C217.76 229.333 217.439 229.807 217.014 230.176C216.589 230.544 216.074 230.795 215.521 230.901C215.521 230.901 215.676 231.314 215.906 231.952C224.785 232.783 225.592 228.01 225.748 226.742C225.92 225.337 221.887 225.249 221.887 225.249C227.391 222.26 226.514 218.822 221.715 220.423C221.715 220.423 225.929 218.316 224.788 216.823C223.648 215.33 217.152 215.771 213.727 216.995C212.932 217.249 212.206 217.682 211.605 218.26C211.003 218.839 210.543 219.548 210.258 220.332C210.833 220.142 211.442 220.079 212.043 220.146C212.644 220.214 213.224 220.41 213.743 220.722ZM209.795 223.987C210.569 224.374 210.162 224.888 210.691 225.191C210.845 225.28 211.027 225.304 211.198 225.259C211.369 225.215 211.516 225.104 211.606 224.952C211.942 224.31 211.132 222.874 210.15 222.692C209.978 222.645 209.794 222.668 209.64 222.756C209.485 222.844 209.372 222.99 209.325 223.162C209.278 223.334 209.301 223.517 209.389 223.672C209.477 223.827 209.624 223.94 209.795 223.987ZM207.898 227.692C208.901 227.692 208.901 225.843 207.898 225.843C206.895 225.843 206.897 227.692 207.898 227.692ZM204.068 232.018C206.429 232.86 210.506 230.759 209.4 229.649C208.643 228.889 207.365 231.297 204.928 230.853C204.482 230.771 203.803 230.49 203.607 231.197C203.565 231.367 203.589 231.546 203.675 231.699C203.761 231.851 203.901 231.965 204.068 232.018ZM265.286 264.352L264.567 277.032L248.949 276.741C248.778 276.75 248.617 276.824 248.498 276.948C248.38 277.073 248.314 277.238 248.314 277.409C248.314 277.581 248.38 277.746 248.498 277.87C248.617 277.995 248.778 278.069 248.949 278.078L265.196 278.382C265.372 278.377 265.54 278.305 265.664 278.181C265.789 278.056 265.861 277.889 265.866 277.713L266.624 264.352C266.672 263.502 265.336 263.494 265.286 264.352Z" fill="#1D1D1B"/>
</svg>
