<svg width="319" height="319" viewBox="0 0 319 319" fill="none" xmlns="http://www.w3.org/2000/svg">
<path d="M209.264 153.651C207.634 154.621 205.938 155.474 204.187 156.203C188.598 162.84 167.277 161.644 151.463 157.688C146.461 182.13 161.253 283.412 161.253 283.412C174.869 286.87 183.865 283.183 183.865 283.183L181.106 184.87C182.495 206.332 191.261 270.324 191.261 270.324C201.189 277.251 211.566 269.635 211.566 269.635C215.154 229.84 209.55 157.312 209.264 153.651Z" fill="#59679C"/>
<path d="M59.9385 266.596C59.5506 266.874 59.0722 266.995 58.5987 266.936C58.7375 270.924 59.6642 276.311 61.7488 279.567C62.4475 280.658 63.9818 282.642 62.5352 283.782L62.4953 283.811C62.4609 282.732 62.1298 281.684 61.5383 280.781C61.4929 280.704 61.4327 280.637 61.3613 280.583C61.2899 280.529 61.2086 280.49 61.1221 280.468C61.0356 280.446 60.9456 280.441 60.8572 280.453C60.7688 280.466 60.6837 280.496 60.6068 280.541C60.53 280.587 60.4628 280.647 60.4092 280.718C60.3555 280.79 60.3165 280.871 60.2943 280.958C60.2721 281.044 60.2671 281.134 60.2797 281.222C60.2923 281.311 60.3221 281.396 60.3676 281.473C60.9534 282.297 61.2322 283.3 61.1555 284.309C60.852 284.336 60.5467 284.336 60.2432 284.309C60.2265 283.066 60.0403 281.832 59.6897 280.64C59.6363 280.473 59.5201 280.333 59.3656 280.25C59.2111 280.166 59.0302 280.146 58.8612 280.194C58.6921 280.241 58.548 280.352 58.4592 280.503C58.3704 280.655 58.3438 280.835 58.385 281.005C58.6787 281.974 58.8497 282.975 58.8938 283.987C53.8153 282.132 52.7594 275.374 51.8024 269.93C51.0924 265.818 50.6201 261.668 50.3877 257.502C49.9521 257.678 49.5075 257.831 49.0558 257.961C49.3892 263.529 50.7338 276.283 53.6431 281.111C57.8427 288.043 65.202 286.132 64.4109 281.897C63.8638 278.914 60.2017 277.53 59.9385 266.596ZM41.3536 294.134L41.7842 291.059C41.8325 290.886 41.8101 290.701 41.722 290.545C41.6339 290.388 41.4873 290.274 41.3145 290.225C41.1417 290.177 40.9568 290.2 40.8005 290.288C40.6442 290.376 40.5293 290.522 40.4811 290.695L39.9643 294.346C38.9507 294.477 37.9276 294.519 36.9067 294.47C36.5319 291.346 38.4794 290.524 37.3964 289.872C37.2406 289.784 37.0566 289.759 36.8831 289.804C36.7096 289.848 36.5602 289.959 36.4665 290.111C35.753 291.385 35.439 292.844 35.5653 294.298C34.6048 294.14 33.6711 293.848 32.7916 293.431C32.8108 293.356 32.814 293.405 32.8347 293.344C33.7263 290.489 35.9114 287.577 39.2147 287.692C42.3154 287.803 44.6919 290.37 46.6107 292.769C44.8842 293.318 43.1292 293.774 41.3536 294.134Z" fill="#FE744F"/>
<path d="M57.5923 204.32C60.5446 198.369 67.0395 184.899 68.8019 178.192C69.1327 176.314 69.0827 174.389 68.655 172.53C68.2273 170.672 67.4306 168.919 66.3121 167.375C60.3708 169.541 56.8028 168.209 54.9143 166.839C43.376 177.632 41.0713 172.941 35.0055 178.072C35.1303 178.013 35.2581 177.959 35.3883 177.913C36.2225 177.624 36.5766 178.938 35.7535 179.216C34.2042 179.832 32.8151 180.792 31.6911 182.023C30.6093 183.762 29.7933 185.653 29.2699 187.633C28.5922 190.139 28.2732 192.729 28.3224 195.325C28.332 195.625 28.6207 197.217 28.8839 198.696C32.8825 197.506 35.0246 192.708 36.4139 188.797C37.0232 187.258 37.3167 185.612 37.2768 183.958C37.2193 183.085 38.5783 183.096 38.6277 183.958C38.8335 187.443 35.527 198.4 29.1072 200.055L29.482 202.176C26.3606 205.013 23.8954 208.497 22.2582 212.384C15.0807 205.868 10.8747 187.747 19.0571 172.565C19.1321 172.423 19.1548 172.259 19.1209 172.102C19.0871 171.945 18.999 171.805 18.8722 171.706C18.7453 171.608 18.5878 171.557 18.4274 171.563C18.2669 171.57 18.1137 171.632 17.9948 171.74C12.0439 176.366 9.33236 183.862 8.3929 191.105C6.77876 203.463 9.65933 216.501 20.0157 222.96C19.8466 228.037 20.3459 233.115 21.5006 238.062C20.9057 251.46 28.3145 264.992 27.4213 278.111C27.3638 279.181 27.3622 279.206 26.4148 279.663C25.2217 280.245 24.2139 281.147 23.5036 282.269C22.7933 283.391 22.4086 284.688 22.3922 286.015C22.7112 288.223 27.7466 288.631 29.8457 287.885C35.484 285.875 36.0662 278.492 36.5 272.523C36.1681 271.116 35.8049 269.716 35.4106 268.325C35.3193 270.011 35.2129 271.695 35.0916 273.378C34.7104 278.289 34.1856 284.837 29.5091 286.542C29.5091 284.1 30.9941 283.492 29.9972 282.95C29.8409 282.864 29.658 282.841 29.4854 282.885C29.3128 282.93 29.1634 283.038 29.0673 283.188C28.327 284.257 28.0224 285.569 28.2156 286.856C27.5182 286.955 26.809 286.936 26.1181 286.799C26.0739 286.752 26.0253 286.711 25.973 286.674C26.0085 285.429 26.412 284.222 27.1326 283.205C27.2239 283.05 27.25 282.865 27.205 282.691C27.1599 282.517 27.0476 282.367 26.8925 282.276C26.7375 282.185 26.5525 282.159 26.3783 282.204C26.204 282.249 26.0548 282.361 25.9634 282.516C25.1615 283.663 24.6938 285.009 24.6125 286.406C23.7097 286.105 23.6985 285.885 23.807 285.275C23.9594 284.408 24.298 283.583 24.7993 282.859C25.3007 282.134 25.9531 281.527 26.7115 281.079C28.08 280.281 28.6526 280.301 28.8089 278.32C29.6734 266.676 23.933 254.581 23.0047 242.802C24.574 247.256 27.3372 251.193 30.9925 254.182C30.3545 252.345 29.7292 250.642 29.238 249.547C28.8823 248.763 30.0514 248.072 30.4071 248.868C31.7533 251.728 34.653 260.99 35.5526 264.052C38.3965 273.85 39.9468 278.865 38.0424 286.464C41.7699 286.009 44.4862 288.338 46.9058 291.139C47.9141 277.033 47.9972 262.877 47.1546 248.761C47.0988 247.895 48.4561 247.9 48.5151 248.761C48.6491 250.889 48.8597 256.149 48.8788 256.647C49.8983 256.352 50.872 255.917 51.7721 255.355C51.8211 255.325 51.8752 255.305 51.9316 255.296C50.2696 249.198 49.6316 237.832 55.5539 235.617C56.4111 235.258 57.3577 235.172 58.2657 235.369C59.1737 235.566 59.9993 236.037 60.6308 236.719C61.1778 237.389 60.2208 238.358 59.6738 237.676C59.0565 237.043 58.2206 236.669 57.3371 236.632C56.4536 236.594 55.5891 236.896 54.9207 237.475C53.3688 239.006 52.4609 241.072 52.383 243.25C51.603 249.499 52.8201 255.835 55.8601 261.35C56.6388 262.762 57.5363 264.104 58.5429 265.363C59.09 265.925 59.6115 265.344 60.2575 264.542C58.8216 263.481 57.7558 261.996 57.2111 260.296C57.1626 260.123 57.1848 259.938 57.2728 259.782C57.3607 259.625 57.5072 259.51 57.68 259.462C57.8528 259.413 58.0378 259.436 58.1942 259.524C58.3507 259.612 58.4658 259.758 58.5142 259.931C58.5812 260.122 58.6482 260.325 58.7247 260.516C59.2294 261.676 60.0249 262.686 61.0343 263.448C61.4367 262.838 61.8016 262.205 62.1269 261.551C60.9036 260.612 59.9198 259.397 59.2559 258.006C58.8348 257.106 60.0789 256.583 60.425 257.317C60.9386 258.4 62.288 260.231 62.6963 260.231C63.5444 258.213 63.5923 255.947 62.8303 253.895C62.0694 251.981 59.0262 247.901 60.3676 241.153C60.5271 240.301 61.843 240.665 61.6707 241.517C61.4935 242.423 61.4022 243.344 61.3979 244.268C62.2364 242.337 62.7929 240.296 63.0504 238.207C63.4635 232.074 62.0535 216.706 57.8778 209.588L57.857 209.626C57.857 209.626 47.5868 214.55 29.0083 209.128C29.0083 209.128 28.7802 204.969 30.2731 203.361C30.2667 203.34 44.3618 209.864 57.5923 204.32ZM61.8717 179.95C61.8717 179.95 60.7934 186.259 58.0245 186.259C55.2556 186.259 54.4836 178.725 54.4836 178.725C55.5437 179.471 56.7587 179.969 58.0379 180.18C59.3172 180.392 60.6277 180.312 61.8717 179.946V179.95ZM46.6426 176.407C46.9779 176.407 47.3055 176.507 47.5841 176.694C47.8627 176.88 48.0798 177.145 48.2079 177.455C48.336 177.765 48.3693 178.105 48.3037 178.434C48.2381 178.763 48.0765 179.065 47.8393 179.302C47.6021 179.539 47.3 179.7 46.9712 179.766C46.6423 179.831 46.3015 179.797 45.9918 179.669C45.6821 179.54 45.4174 179.323 45.2312 179.044C45.0449 178.766 44.9455 178.438 44.9455 178.103C44.9451 177.88 44.9887 177.659 45.0739 177.453C45.159 177.247 45.284 177.06 45.4417 176.902C45.5994 176.745 45.7867 176.62 45.9928 176.535C46.1989 176.45 46.4197 176.406 46.6426 176.407ZM20.097 221.4C13.2385 216.749 8.09464 207.205 9.57799 192.561C10.216 186.239 12.13 179.839 16.352 175.133C9.84116 190.574 14.355 207.312 21.7303 213.687C20.8222 216.167 20.2723 218.765 20.097 221.4ZM30.0993 211.521C26.44 220.807 25.7785 231.005 28.2076 240.686C28.4181 241.528 27.115 241.891 26.9045 241.049C24.4063 231.131 25.0659 220.681 28.7914 211.156C29.1088 210.358 30.4103 210.717 30.0945 211.521H30.0993Z" fill="#FE744F"/>
<path d="M135.631 143.108C120.126 146.656 104.027 146.724 88.4922 143.309C83.1266 157.383 72.0127 199.469 91.5674 274.641C91.5674 274.641 93.9917 279.49 109.91 276.031L112.181 173.188L113.57 173.112L122.024 276.568C128.227 278.999 135.087 279.175 141.406 277.066C141.406 277.066 154.468 181.385 135.631 143.108ZM90.9262 162.13C89.2741 163.413 87.3019 164.218 85.224 164.459C85.0506 164.45 84.887 164.376 84.7672 164.25C84.6474 164.124 84.5806 163.957 84.5806 163.783C84.5806 163.61 84.6474 163.443 84.7672 163.317C84.887 163.191 85.0506 163.116 85.224 163.108C86.1766 163.068 87.1047 162.795 87.926 162.31C90.2442 161.283 92.2434 159.651 93.7142 157.586C95.4418 155.024 96.1205 151.896 95.6107 148.849C95.4512 147.995 96.7655 147.636 96.9186 148.49C97.3903 151.102 97.072 153.795 96.0045 156.225C94.937 158.655 93.1688 160.711 90.9262 162.13ZM137.672 163.65C134.505 161.904 131.996 159.168 130.529 155.862C129.062 152.556 128.717 148.86 129.547 145.34C129.748 144.488 131.052 144.851 130.851 145.703C130.068 148.935 130.379 152.335 131.736 155.371C133.093 158.407 135.418 160.908 138.347 162.481C139.119 162.893 138.436 164.065 137.672 163.647V163.65ZM57.5061 204.319C44.2772 209.872 30.1806 203.342 30.1806 203.342C28.6765 204.962 28.9158 209.111 28.9158 209.111C47.4943 214.534 57.7645 209.608 57.7645 209.608C58.2401 208.793 58.4811 207.863 58.4609 206.919C58.4406 205.976 58.1599 205.056 57.6497 204.262C57.5923 204.278 57.554 204.297 57.5061 204.319Z" fill="#FFD35C"/>
<path d="M272.335 169.748C252.788 180.211 229.43 173.072 224.506 171.367C224.219 183.516 223.566 227.618 228.291 261.708C229.249 262.146 230.249 262.488 231.275 262.728C236.12 263.945 241.247 263.25 245.593 260.787L248.82 192.944L251.359 194.094L250.441 275.783C250.441 275.783 260.137 279.471 268.903 275.323C271.558 246.668 273.889 199.375 272.335 169.748Z" fill="#B2EACD"/>
<path d="M287.531 148.973C287.272 148.359 286.073 145.513 285.987 145.304C285.645 144.507 283.904 145.233 298.176 137.478C298.913 139.173 299.611 140.897 300.249 142.631C296.213 145.131 291.956 147.254 287.531 148.973Z" fill="#76D3DE"/>
<path d="M278.009 104.975C277.468 106.605 276.039 109.168 274.35 108.817C272.697 108.463 272.515 105.838 272.932 104.064C272.155 106.028 270.442 106.364 269.56 105.626C268.381 104.616 268.896 101.696 269.474 100.222C269.03 101.078 268.413 101.832 267.662 102.436C267.279 102.728 266.816 102.896 266.334 102.916C265.853 102.937 265.377 102.809 264.971 102.551C263.507 101.407 264.135 97.9745 264.835 96.2471C263.991 96.5914 263.061 96.665 262.173 96.4577C261.877 96.3982 261.602 96.2584 261.379 96.0536C261.156 95.8489 260.994 95.5869 260.91 95.2963C260.826 95.0056 260.823 94.6975 260.902 94.4053C260.98 94.1131 261.138 93.8482 261.357 93.6393C258.659 92.6039 255.841 91.9152 252.97 91.5897C253.045 91.6669 253.097 91.7626 253.123 91.8669C253.148 91.9712 253.145 92.0803 253.114 92.1831C251.147 99.3111 241.494 102.793 238.977 93.0507C238.963 92.9847 238.96 92.9169 238.966 92.8498C236.487 93.9089 234.169 95.3137 232.084 97.0223C226.809 100.326 219.692 105.27 211.637 111.575C211.65 113.428 211.468 122.14 211.274 130.685L219.815 125.445C219.688 125.409 219.575 125.336 219.49 125.236C219.404 125.136 219.349 125.013 219.332 124.883C219.315 124.752 219.337 124.619 219.394 124.501C219.452 124.382 219.542 124.283 219.655 124.215C221.586 123.281 223.455 122.225 225.252 121.054C225.418 121.001 225.595 120.999 225.762 121.048C225.928 121.098 226.076 121.197 226.185 121.332C226.56 121.858 226.085 126.466 226.026 127.051C226.023 127.223 225.956 127.387 225.838 127.511C225.719 127.635 225.559 127.71 225.388 127.721C224.933 141.307 223.568 157.466 223.568 171.041C238.097 176.72 258.835 177.487 273.417 169.201L272.651 122.742C272.651 122.742 280.123 135.168 284.588 143.984C285.433 142.767 297.732 136.157 298.241 135.902C294.707 127.997 287.898 114.92 278.009 104.975Z" fill="#76D3DE"/>
<path d="M129.567 88.8303C126.093 86.9243 122.316 85.6356 118.402 85.0215C118.426 85.8514 118.261 86.676 117.92 87.4331C117.579 88.1902 117.071 88.8599 116.433 89.3918C115.796 89.9237 115.046 90.3038 114.24 90.5036C113.434 90.7034 112.593 90.7175 111.781 90.545C107.926 90.5051 105.41 88.9691 104.892 85.1794C102.221 85.6128 99.6045 86.3325 97.0877 87.3263C96.9521 88.3965 95.8212 89.336 93.7733 88.8303C93.5898 88.926 93.4176 89.0074 93.2358 89.1031C93.8084 90.7491 94.3219 93.8578 92.9391 94.9392C92.5331 95.1995 92.0566 95.3281 91.5747 95.3076C91.0929 95.287 90.6291 95.1183 90.2467 94.8244C89.4928 94.2235 88.8756 93.4688 88.4364 92.6105C88.9946 94.046 89.5385 97.035 88.3503 98.0144C87.5113 98.7273 85.7823 98.4929 84.9768 96.4529C85.9705 100.485 83.2702 103.197 80.9463 99.4802C77.7619 103.444 74.8293 107.604 72.1658 111.936C86.6006 117.685 85.6691 117.199 85.8621 117.593L86.9594 118.057L89.8623 113.019C91.0539 123.07 89.3147 133.251 84.854 142.336C97.6236 146.451 118.998 147.44 138.862 142.336C138.862 142.336 132.642 131.232 134.178 112.079L137.406 115.135C137.711 114.886 137.669 114.966 137.637 114.8C137.492 114.298 137.106 114.891 145.742 106.541C145.833 106.454 145.946 106.392 146.07 106.364C146.193 106.336 146.322 106.342 146.442 106.382C146.696 106.028 146.914 105.649 147.093 105.251C142.637 98.464 136.629 92.8353 129.567 88.8303Z" fill="#FCAFB7"/>
<path d="M308.862 169.844C307.762 169.788 307.267 168.474 306.899 167.611C306.831 167.497 306.731 167.406 306.612 167.348C306.493 167.29 306.36 167.268 306.228 167.285C306.097 167.302 305.974 167.357 305.873 167.443C305.773 167.529 305.699 167.643 305.663 167.77C305.291 169.928 307.063 171.849 305.892 173.078C304.776 174.247 303.353 169.496 303.19 168.844C302.972 167.992 301.736 168.355 301.887 169.209C302.125 170.501 302.118 171.827 301.868 173.117C301.587 174.552 301.377 175.466 300.46 173.914C299.48 171.535 298.959 168.991 298.927 166.418C298.918 166.244 298.844 166.081 298.718 165.961C298.592 165.841 298.425 165.774 298.251 165.774C298.078 165.774 297.911 165.841 297.785 165.961C297.659 166.081 297.584 166.244 297.576 166.418C297.416 169.255 295.3 171.416 294.683 171.18C294.065 170.944 294.07 169.705 294.07 169.198C294.094 166.373 295.622 163.224 295.123 159.827C294.517 155.546 292.802 152.717 291.234 148.885C293.972 147.721 296.635 146.389 299.209 144.898C303.659 153 304.513 159.412 308.926 167.375C309.27 167.995 310.397 169.922 308.862 169.844ZM259.524 64.0967C258.916 60.4972 258.079 56.94 257.018 53.4469C249.402 61.4091 244.099 57.9496 239.831 59.4457C235.562 60.9418 238.566 68.5563 238.566 68.5563C233.809 67.0698 229.449 67.3202 229.449 72.2599C229.449 74.4626 233.406 74.8757 235.607 74.9236C235.333 73.9985 234.191 74.2569 234.403 73.3286C234.707 71.9952 237.626 73.6747 236.934 75.9364L238.917 84.1363C238.832 86.8618 239.125 89.5859 239.788 92.2309C239.8 92.2804 240.162 92.3011 240.266 92.7094C241.161 96.1084 243.238 98.4817 246.456 97.4944C247.743 97.0493 248.903 96.2989 249.836 95.3075C250.769 94.316 251.449 93.1132 251.815 91.8019C252.262 89.0602 252.193 86.2592 251.611 83.543C252.479 84.3245 257.243 81.6561 257.628 81.369C262.059 78.0849 260.28 68.6967 259.524 64.0967ZM236.003 72.2121C235.435 71.613 234.72 71.1731 233.929 70.9361C233.76 70.8818 233.618 70.7657 233.531 70.611C233.444 70.4563 233.419 70.2744 233.46 70.1019C233.512 69.9318 233.627 69.7882 233.782 69.7008C233.936 69.6135 234.119 69.5892 234.291 69.633C235.299 69.9447 236.214 70.5009 236.955 71.2519C237.58 71.9186 236.612 72.8485 236.003 72.2121ZM245.603 66.6982C245.262 67.6041 244.008 67.1049 244.301 66.3345C244.558 65.553 245.024 64.8569 245.649 64.3225C246.274 63.788 247.034 63.4357 247.845 63.304C248.015 63.2641 248.194 63.2915 248.344 63.3802C248.494 63.469 248.604 63.6124 248.651 63.7804C248.698 63.9484 248.678 64.1281 248.596 64.2818C248.514 64.4356 248.375 64.5516 248.209 64.6055C246.761 65.076 246.148 65.3376 245.603 66.6982ZM247.764 67.3824C248.501 67.6137 249.23 67.8529 249.967 68.0922C250.139 68.1425 250.285 68.2574 250.374 68.4129C250.463 68.5684 250.489 68.7524 250.445 68.9264C250.396 69.0988 250.281 69.2448 250.125 69.3326C249.969 69.4204 249.784 69.443 249.611 69.3953C248.874 69.164 248.145 68.9264 247.408 68.6871C247.247 68.6304 247.112 68.5145 247.033 68.3627C246.953 68.2109 246.934 68.0346 246.979 67.8691C247.024 67.7037 247.13 67.5616 247.276 67.4712C247.421 67.3809 247.596 67.3492 247.764 67.3824ZM255.289 77.6159C254.7 77.9154 254.054 78.0871 253.394 78.1199C252.734 78.1526 252.075 78.0457 251.459 77.806C250.843 77.5663 250.284 77.1993 249.82 76.729C249.356 76.2587 248.996 75.6956 248.764 75.0767C248.673 74.9217 248.647 74.7367 248.692 74.5624C248.737 74.3882 248.849 74.239 249.004 74.1476C249.159 74.0562 249.344 74.0302 249.518 74.0752C249.693 74.1202 249.842 74.2326 249.933 74.3877C250.075 74.8499 250.316 75.276 250.638 75.6369C250.96 75.9977 251.356 76.2848 251.799 76.4785C252.242 76.6722 252.722 76.7679 253.205 76.7592C253.689 76.7504 254.164 76.6373 254.6 76.4277C254.757 76.3455 254.94 76.3271 255.11 76.3764C255.28 76.4256 255.425 76.5386 255.514 76.6919C255.603 76.8452 255.629 77.0268 255.587 77.199C255.545 77.3711 255.439 77.5205 255.289 77.6159ZM255.664 60.2304C257.057 59.0597 259.194 59.9673 258.653 60.9865C258.387 61.4873 257.549 61.3166 256.143 61.3884C256.01 61.3857 255.882 61.3446 255.773 61.2701C255.663 61.1956 255.578 61.0909 255.527 60.9688C255.477 60.8467 255.463 60.7125 255.487 60.5825C255.511 60.4525 255.573 60.3324 255.664 60.2368V60.2304ZM259.457 64.7666C259.285 65.2547 259.113 65.7332 258.94 66.2133C258.89 66.3869 258.773 66.5335 258.615 66.6213C258.457 66.7091 258.271 66.731 258.097 66.6822C257.925 66.6289 257.78 66.5115 257.693 66.3544C257.606 66.1972 257.582 66.0124 257.628 65.8385C257.8 65.3504 257.966 64.8687 258.144 64.3918C258.195 64.2177 258.313 64.0709 258.471 63.9835C258.63 63.8962 258.817 63.8755 258.991 63.926C259.165 63.9766 259.312 64.0942 259.4 64.2531C259.487 64.4119 259.508 64.5989 259.457 64.773V64.7666Z" fill="#FFCEB6"/>
<path d="M93.1193 282.996C97.2115 286.623 100.87 290.711 104.023 295.179C104.023 295.179 108.01 289.638 106.945 284.559C106.945 284.559 100.094 279.71 93.1193 282.996Z" fill="#97A0B2"/>
<path d="M146.204 107.981C146.045 108.141 141.403 112.607 139.258 114.688L146.828 122.517C146.915 117.969 147.12 113.232 147.354 109.189L146.204 107.981ZM112.085 89.1988C107.677 89.2275 105.363 87.5783 106.433 80.5188C108.036 81.2813 109.782 81.7007 111.557 81.7501C113.332 81.7996 115.098 81.478 116.741 80.8059C117.62 85.8206 117.218 89.1462 112.085 89.1988Z" fill="#FFCEB6"/>
<path d="M123.233 68.7445C122.716 68.6776 122.506 69.1943 122.62 69.6058C122.051 71.9306 121.198 74.1767 120.081 76.2937C118.765 78.1204 116.876 79.4544 114.714 80.0831C112.552 80.7117 110.242 80.599 108.152 79.7628C100.716 77.2204 101.914 70.448 101.474 68.2262C101.444 68.1137 101.385 68.0112 101.302 67.9289C101.22 67.8466 101.117 67.7874 101.005 67.7572C98.9825 67.2293 96.7128 65.4477 96.6171 63.1955C96.5948 62.613 96.74 62.0362 97.0354 61.5336C97.3308 61.031 97.7641 60.6236 98.2839 60.3596C99.4531 59.862 100.372 61.5192 100.814 62.3438C100.883 62.4556 100.983 62.5451 101.101 62.6017C101.22 62.6582 101.353 62.6793 101.483 62.6624C101.613 62.6456 101.736 62.5916 101.837 62.5068C101.937 62.422 102.011 62.31 102.05 62.1843C102.332 60.4508 102.704 58.7333 103.166 57.0388C107.383 57.1345 112.173 56.2621 115.21 53.1582C115.384 54.6382 115.849 56.069 116.58 57.3678C117.31 58.6667 118.291 59.8077 119.466 60.7249C119.031 60.425 118.526 60.2431 118 60.1969C117.82 60.1994 117.648 60.272 117.521 60.3993C117.395 60.5265 117.322 60.6983 117.32 60.878C117.378 61.9163 118.828 61.2847 119.379 62.6118C119.858 63.5289 121.794 62.5304 119.6 60.8302C120.649 61.7002 121.813 62.422 123.059 62.9754C123.021 63.4539 122.992 63.9324 122.954 64.3934C122.906 65.0457 123.7 65.2084 124.113 64.8719C124.92 64.1669 125.849 63.615 126.854 63.2434C128.018 62.8734 128.581 63.1222 128.913 64.2961C129.758 67.652 125.924 69.0859 123.233 68.7445ZM58.9241 155.425C56.5382 157.722 53.6425 159.423 50.4737 160.387C47.3049 161.351 43.9529 161.552 40.6917 160.972C37.953 160.546 39.3646 159.982 40.6725 159.918C41.1425 159.915 41.6088 159.835 42.0522 159.679C42.177 159.639 42.2878 159.565 42.3718 159.464C42.4557 159.364 42.5092 159.241 42.5259 159.111C42.5427 158.982 42.522 158.85 42.4663 158.731C42.4107 158.613 42.3223 158.513 42.2117 158.443C40.8671 157.541 38.5767 157.849 38.3981 156.458C38.3119 155.741 39.8447 155.999 40.2578 155.999C41.3488 155.999 42.4318 155.989 43.5244 155.989C43.6859 155.985 43.8405 155.924 43.9608 155.816C44.081 155.708 44.1591 155.561 44.1809 155.401C44.2028 155.241 44.167 155.078 44.0801 154.942C43.9931 154.806 43.8606 154.705 43.7062 154.658C42.4622 154.164 41.3385 153.409 40.4109 152.444C40.1621 152.185 39.4236 151.602 39.9691 151.353C43.52 151.047 47.086 151.733 50.2696 153.335C50.9076 153.642 51.7354 152.79 51.0943 152.272C48.3955 150.102 47.5661 147.266 50.4419 148.467C52.8689 149.701 55.1216 151.251 57.1409 153.077C57.7917 153.661 58.7503 152.704 58.0979 152.12C56.239 150.47 54.2198 149.009 52.0704 147.761C74.1899 113.003 73.6029 114.106 73.638 114.044C76.9524 115.347 84.0246 118.135 84.2543 118.221C69.8116 140.784 65.7555 149.421 58.9241 155.425Z" fill="#FFCEB6"/>
<path d="M262.582 47.7798C262.725 46.6633 261.842 45.357 260.751 45.5675C260.272 45.6648 260.272 45.7366 256.085 48.4896C256.837 47.3041 257.251 45.9359 257.283 44.5324C257.187 43.1336 256.007 41.7252 254.619 41.9166C252.004 42.2802 250.196 48.2711 241.713 51.0288C237.333 52.4563 229.58 52.8391 229.929 61.433C230.121 63.7745 230.678 66.0715 231.581 68.2405C232.97 67.5706 235.156 67.494 238.566 68.5595C238.566 68.5595 235.567 60.9433 239.831 59.4488C244.094 57.9543 249.412 61.4123 257.018 53.45C257.23 54.1311 257.422 54.8106 257.613 55.5012C258.951 54.0518 260.101 52.4405 261.038 50.705C261.782 49.8693 262.311 48.8655 262.582 47.7798Z" fill="#C17E48"/>
<path d="M219.341 103.418L220.419 104.956C228.037 99.4515 230.385 98.2409 233.162 96.1833L230.35 92.2596C226.295 95.5776 222.604 99.3183 219.341 103.418ZM131.747 86.4698L129.573 88.8304C134.478 91.5683 138.872 95.1335 142.563 99.3685L142.971 98.89C138.558 95.4105 134.763 91.2115 131.747 86.4698ZM96.0988 85.6643C95.2056 85.0917 92.6887 85.4059 91.6328 85.4729L91.3138 85.492C89.4898 84.9386 87.5393 84.963 85.7297 85.5618C83.9201 86.1605 82.34 87.3043 81.2061 88.8364C80.0721 90.3685 79.4398 92.2138 79.3959 94.1194C79.3519 96.0249 79.8985 97.8975 80.9606 99.4802C83.2175 103.091 85.9849 100.712 84.9944 96.4497C85.7743 98.4179 87.489 98.7449 88.3678 98.0112C89.5449 97.0016 89.0297 94.0795 88.4539 92.6073C88.8962 93.4636 89.5129 94.2177 90.2643 94.8212C90.6476 95.113 91.1111 95.2804 91.5924 95.3009C92.0737 95.3214 92.5498 95.1941 92.9566 94.936C94.44 93.7781 93.7621 90.411 93.0954 88.631C93.9394 88.9706 94.8666 89.0457 95.7543 88.8463C96.1013 88.7726 96.4163 88.5911 96.6541 88.3278C96.892 88.0645 97.0406 87.7328 97.0788 87.3801C97.117 87.0273 97.0428 86.6715 96.8668 86.3634C96.6908 86.0553 96.422 85.8106 96.0988 85.6643ZM192.021 45.2645C191.368 45.2413 190.718 45.3653 190.119 45.6273C189.52 45.8894 188.988 46.2827 188.563 46.7782C188.36 45.1586 188.13 43.5426 187.872 41.931C187.2 37.8015 183.334 35.87 179.163 35.5685C175.731 35.1473 172.251 35.3292 168.882 36.106C166.719 36.4485 164.728 37.488 163.21 39.0664C161.18 41.5179 161.419 45.0636 161.744 48.2344C161.888 49.5567 162.444 54.7261 162.578 56.0005C170.828 64.1828 180.82 60.1475 189.003 51.9572L189.041 51.9189C189.07 51.9189 189.089 51.9093 189.108 51.9093C195.434 51.1501 195.434 45.2645 192.021 45.2645ZM276.892 96.6826C275.75 95.1087 274.154 93.9223 272.317 93.2833C270.481 92.6442 268.493 92.5831 266.62 93.1082C263.456 92.9231 262.39 92.6791 261.357 93.6393C261.138 93.8484 260.981 94.1134 260.903 94.4054C260.825 94.6974 260.828 95.0053 260.912 95.2957C260.996 95.5862 261.158 95.848 261.38 96.0528C261.603 96.2577 261.877 96.3977 262.173 96.4577C263.061 96.665 263.991 96.5914 264.835 96.2471C264.14 97.9713 263.505 101.409 264.971 102.551C265.377 102.811 265.853 102.94 266.335 102.92C266.816 102.899 267.28 102.73 267.662 102.436C268.416 101.835 269.034 101.08 269.474 100.222C268.912 101.657 268.373 104.65 269.56 105.626C270.396 106.337 272.126 106.104 272.932 104.064C271.989 107.926 274.399 110.564 276.678 107.552C277.819 105.979 278.451 104.094 278.489 102.151C278.527 100.208 277.97 98.2997 276.892 96.6826Z" fill="#9B6868"/>
<path d="M163.21 39.0664C164.728 37.4886 166.719 36.4493 168.882 36.106C173.4 35.0629 180.699 34.8731 184.72 37.2369C185.558 37.7402 186.274 38.4216 186.819 39.2328C187.364 40.0441 187.723 40.9652 187.872 41.931C188.13 43.5403 188.362 45.1609 188.562 46.7782C189.88 45.2534 192.719 44.5835 193.847 46.1322C194.692 45.2506 195.215 44.1094 195.33 42.8936C195.446 41.6778 195.148 40.4585 194.485 39.4332C194.158 39.104 193.949 38.6763 193.89 38.2162C193.914 37.6293 195.644 34.409 193.698 31.0977C193.14 30.1251 192.309 29.3373 191.308 28.8316C190.306 28.3259 189.179 28.1245 188.065 28.2523C187.91 27.2977 187.413 26.4324 186.666 25.8183C185.07 24.0607 182.906 22.9211 180.554 22.5996C179.382 22.4735 178.202 22.7438 177.202 23.3671C176.201 23.9904 175.439 24.9309 175.035 26.0384C170.761 21.7782 163.537 23.2647 161.985 26.2585C161.781 26.6286 161.683 27.0479 161.702 27.47C161.722 27.8922 161.857 28.3008 162.093 28.651C160.977 27.3208 158.733 27.6621 157.224 28.6079C153.97 30.6527 153.831 33.7662 155.385 35.2575C155.825 35.6786 156.438 36.0231 156.573 36.618C156.597 36.9384 156.52 37.2582 156.353 37.5328C156.186 37.8075 155.938 38.0235 155.643 38.1508C155.077 38.4491 154.426 38.5623 153.852 38.8415C153.412 39.1023 153.03 39.452 152.732 39.8682C152.434 40.2845 152.226 40.7582 152.121 41.2593C152.016 41.7603 152.016 42.2778 152.122 42.7787C152.228 43.2796 152.437 43.753 152.736 44.1688C153.405 44.963 154.33 45.5009 155.351 45.6911C156.372 45.8812 157.428 45.7119 158.339 45.2119C157.65 45.8281 157.19 46.6592 157.034 47.5701C156.877 48.4809 157.034 49.4178 157.477 50.2285C157.921 51.0393 158.626 51.6761 159.477 52.0354C160.329 52.3947 161.277 52.4554 162.167 52.2076C161.604 47.0095 160.69 42.108 163.21 39.0664ZM189.041 51.9189C180.855 60.1028 170.858 64.2163 162.578 56.0005C163.183 61.6324 163.205 61.8382 163.263 63.0807C163.381 65.7571 163.511 69.3714 165.59 70.6793C168.429 72.4689 175.731 72.4162 179.157 71.724C182.771 70.9951 187.511 69.1178 189.132 65.5242C189.511 64.6451 189.722 63.7026 189.754 62.7457C189.791 61.9259 189.263 51.9189 189.041 51.9189ZM183.919 62.4203C183.856 63.2802 183.493 64.0904 182.892 64.7088C182.291 65.3271 181.491 65.7141 180.634 65.8018C179.497 66.0675 178.306 65.9777 177.222 65.5444C176.138 65.111 175.213 64.3551 174.573 63.3789C176.338 63.5055 178.107 63.1987 179.727 62.4854C181.346 61.7721 182.767 60.6738 183.865 59.2862C184.063 60.32 184.081 61.3803 183.919 62.4203Z" fill="#C17E48"/>
<path d="M231.275 262.728C229.763 264.871 226.559 275.611 229.709 282.872C231.463 286.915 235.802 289.119 238.858 284.961C240.477 282.757 240.293 280.084 240.453 277.487C241.225 265.349 241.497 264.394 240.818 262.733C237.684 263.509 234.408 263.507 231.275 262.728ZM198.935 275.246C196.156 277.379 195.745 281.299 196.223 282.144C191.82 283.813 190.752 288.11 193.158 289.263C194.228 289.775 199.842 289.582 200.919 289.55C211.242 289.264 212.317 289.39 212.272 284.358C212.161 275.219 204.077 271.31 198.935 275.246ZM203.072 288.122C200.791 288.229 198.511 288.27 196.231 288.247C194.745 288.221 193.813 288.317 193.453 287.778C193.319 287.469 193.266 287.131 193.3 286.796C193.333 286.461 193.452 286.14 193.644 285.864C194.198 285.07 194.911 284.4 195.737 283.897C196.564 283.394 197.486 283.068 198.445 282.94C200.918 282.613 203.43 282.733 205.86 283.296C206.005 283.321 206.154 283.301 206.287 283.238C206.42 283.175 206.53 283.071 206.602 282.943C206.673 282.814 206.703 282.667 206.687 282.52C206.67 282.374 206.609 282.237 206.511 282.127C206.987 282.113 207.462 282.188 207.911 282.347C208.084 282.392 208.267 282.368 208.422 282.28C208.578 282.193 208.693 282.049 208.744 281.878C209.186 280.31 204.857 280.658 202.852 281.559C201.075 281.354 199.277 281.432 197.525 281.789C197.42 280.883 197.521 279.966 197.82 279.105C198.118 278.244 198.608 277.461 199.251 276.815C203.021 273.129 209.762 275.528 210.814 282.68C211.626 288.615 209.969 287.778 203.072 288.122ZM192.198 228.069C197.01 229.282 202.044 229.315 206.872 228.165C207.725 227.964 207.364 226.651 206.513 226.86C201.921 227.961 197.13 227.929 192.553 226.766C192.384 226.729 192.207 226.758 192.058 226.848C191.91 226.938 191.802 227.081 191.756 227.249C191.711 227.416 191.731 227.594 191.813 227.747C191.895 227.9 192.033 228.015 192.198 228.069ZM179.091 46.9281C179.235 46.9951 179.39 47.033 179.548 47.0395C179.706 47.0461 179.863 47.0212 180.012 46.9664C180.695 46.8564 181.395 46.9409 182.031 47.2103C182.668 47.4797 183.217 47.9231 183.613 48.4896C183.708 48.6372 183.857 48.7421 184.028 48.7825C184.199 48.8229 184.379 48.7956 184.53 48.7063C184.681 48.617 184.792 48.4726 184.839 48.3035C184.886 48.1344 184.866 47.9536 184.782 47.799C184.154 46.9145 183.282 46.2322 182.272 45.8356C181.729 45.5949 181.137 45.484 180.543 45.5117C179.95 45.5394 179.371 45.7049 178.852 45.9951C178.761 46.1506 178.734 46.3361 178.779 46.511C178.824 46.6858 178.936 46.8358 179.091 46.9281ZM164.46 51.0576C164.752 50.9364 166.092 48.4609 168.686 48.4609C168.865 48.4569 169.036 48.3838 169.163 48.257C169.29 48.1301 169.363 47.9592 169.367 47.7799C169.367 46.5214 165.914 47.1227 164.114 49.3749C163.521 50.0942 163.282 50.402 163.511 50.7928C163.61 50.9455 163.761 51.0568 163.936 51.1056C164.111 51.1544 164.297 51.1373 164.46 51.0576ZM168.408 53.8839C168.398 53.6266 168.288 53.3833 168.103 53.2049C167.917 53.0265 167.67 52.9269 167.412 52.9269C167.155 52.9269 166.907 53.0265 166.721 53.2049C166.536 53.3833 166.426 53.6266 166.416 53.8839C166.426 54.1412 166.536 54.3845 166.721 54.5629C166.907 54.7413 167.155 54.8409 167.412 54.8409C167.67 54.8409 167.917 54.7413 168.103 54.5629C168.288 54.3845 168.398 54.1412 168.408 53.8839ZM180.251 50.4196C179.987 50.4196 179.733 50.5246 179.546 50.7116C179.359 50.8985 179.254 51.1521 179.254 51.4165C179.254 51.6808 179.359 51.9344 179.546 52.1214C179.733 52.3083 179.987 52.4133 180.251 52.4133C180.515 52.4133 180.769 52.3083 180.956 52.1214C181.143 51.9344 181.248 51.6808 181.248 51.4165C181.248 51.1521 181.143 50.8985 180.956 50.7116C180.769 50.5246 180.515 50.4196 180.251 50.4196ZM176.064 56.2589C176.557 56.0945 177.01 55.8301 177.396 55.4824C177.781 55.1347 178.091 54.711 178.305 54.238C178.353 54.0646 178.329 53.8793 178.24 53.723C178.151 53.5668 178.004 53.4522 177.831 53.4046C177.657 53.357 177.472 53.3803 177.316 53.4693C177.159 53.5583 177.045 53.7057 176.997 53.8791C176.879 54.1353 176.686 54.3491 176.442 54.4916C175.401 55.2078 175.031 55.439 174.448 53.8536C173.798 52.099 173.405 50.2595 173.281 48.3923C173.223 47.5294 171.863 47.5199 171.93 48.3923C172.126 51.4866 173.164 57.42 176.064 56.2589ZM231.892 89.0936C226.9 82.838 217.804 67.1256 200.839 62.9467C197.181 62.1538 193.47 61.6319 189.735 61.3852C189.762 61.8351 189.762 62.2863 189.735 62.7362C201.485 63.6677 209.373 65.7874 218.997 75.2394C223.043 79.2141 223.826 80.5715 228.385 86.7664C221.869 90.0435 216.43 95.1207 212.712 101.396C210.558 98.5615 211.068 98.2792 205.143 88.3279C205.05 88.177 204.903 88.0682 204.731 88.0248C204.56 87.9814 204.378 88.0068 204.226 88.0957C204.073 88.1845 203.961 88.3297 203.914 88.5001C203.866 88.6706 203.888 88.8527 203.973 89.0074C205.957 92.3325 207.85 95.7085 209.655 99.1357C209.564 99.6796 210.385 102.024 210.24 119.006C210.24 119.875 209.57 150.657 209.31 151.477C208.746 153.213 201.425 155.867 199.997 156.344C185.751 161.093 167.709 160.058 153.241 156.747C151.235 156.269 150.86 156.358 150.3 153.728C147.649 141.402 147.908 123.203 148.641 110.537C149.364 98.9794 149.499 98.4658 150.788 86.7186C150.884 85.8557 149.523 85.8557 149.437 86.7186C149.169 89.1701 148.892 91.6328 148.622 94.0859C144.214 90.7476 136.556 83.9943 134.347 78.8712C142.781 71.9195 152.685 66.9754 163.31 64.4125C163.298 64.253 163.242 63.2338 163.234 63.0711C153.348 65.376 144.059 69.7415 135.975 75.8822C133.954 77.1313 132.215 78.7887 130.871 80.7485C130.505 81.278 130.274 81.8894 130.199 82.5291C130.124 83.1687 130.207 83.817 130.441 84.417C134.253 90.797 140.776 98.8231 147.783 101.557C147.75 101.828 147.71 101.972 147.85 102.195C147.691 103.91 147.563 105.615 147.448 107.331C147.188 107.061 146.939 106.793 146.681 106.525C146.55 106.406 146.38 106.339 146.203 106.339C146.025 106.339 145.855 106.406 145.724 106.525C137.119 114.845 137.473 114.277 137.618 114.784C137.731 115.234 142.451 119.877 146.778 124.432C146.67 133.406 147.067 145.965 149.117 154.728C149.174 155.393 149.424 156.027 149.838 156.552C150.252 157.076 150.81 157.468 151.444 157.679C154.259 158.734 164.354 160.168 169.716 160.591C178.94 161.481 188.248 160.797 197.243 158.57C201.451 157.48 205.49 155.82 209.248 153.635C210.988 152.412 210.743 150.962 210.829 148.893C210.877 147.617 211.661 115.177 211.626 111.556C211.609 108.249 211.472 104.944 211.215 101.648C212.565 103.455 213.916 105.254 215.268 107.042C215.33 107.141 215.416 107.223 215.518 107.28C215.62 107.337 215.735 107.366 215.852 107.366C215.969 107.366 216.084 107.337 216.186 107.28C216.289 107.223 216.375 107.141 216.437 107.042C220.47 101.58 225.133 96.6115 230.329 92.2405C232.926 90.2531 233.307 90.8002 231.892 89.0936ZM146.828 122.514C144.302 119.907 141.778 117.298 139.258 114.685C141.413 112.612 146.041 108.146 146.204 107.978L147.354 109.186C147.096 113.625 146.92 118.068 146.828 122.514ZM132.226 84.6945C131.588 83.6706 131.189 83.342 131.881 81.8395C132.237 81.0925 132.731 80.4197 133.337 79.8569C136.578 86.9244 148.308 95.4767 148.467 95.6362C148.308 97.1499 148.131 98.6667 147.97 100.177C141.666 97.5774 135.833 90.4493 132.226 84.6945ZM215.879 105.61C215.122 104.595 214.365 103.589 213.599 102.579C217.237 96.2437 222.672 91.1289 229.216 87.8814C229.79 88.6485 230.385 89.4062 230.999 90.1431C225.756 93.6265 219.716 100.598 215.872 105.611L215.879 105.61Z" fill="#1D1D1B"/>
<path d="M154.967 88.6533C154.648 88.564 153.851 88.891 153.863 89.4508C154.112 98.0335 153.409 105.292 158.635 109.178C163.073 112.489 169.867 110.073 171.874 101.177C172.672 97.6682 173.351 92.6296 172.239 89.2147C172.193 89.0804 172.106 88.9637 171.99 88.8804C171.875 88.797 171.737 88.7511 171.595 88.7489C171.453 88.7466 171.313 88.7881 171.195 88.8677C171.078 88.9473 170.987 89.0612 170.936 89.194C158.064 89.0983 157.426 89.336 154.967 88.6533ZM167.202 107.395C166.263 108.355 165.029 108.974 163.697 109.152C162.365 109.331 161.012 109.059 159.852 108.38C154.784 105.227 155.605 97.1339 155.377 95.2742C160.685 96.1271 166.091 96.1852 171.416 95.4464C171.01 99.6875 170.161 104.694 167.202 107.395ZM171.167 90.5019C171.428 91.6843 171.535 92.8953 171.486 94.105C166.122 94.8525 160.676 94.7848 155.332 93.904C155.294 92.6392 155.265 91.3648 155.229 90.1C157.661 90.4833 160.126 90.618 162.586 90.5019C168.643 90.5434 170.973 90.5865 171.167 90.5019ZM84.7934 280.257C78.3352 283.639 88.1764 294.561 92.6408 295.798C96.4103 296.745 100.378 296.529 104.023 295.179C100.501 290.131 90.2435 277.404 84.7934 280.257ZM130.026 280.72C122.946 281.947 118.797 290.877 118.797 290.877C126.488 292.226 134.36 292.172 142.032 290.717C142.032 290.717 137.097 279.492 130.026 280.72ZM179.177 287.72C170.297 283.867 161.197 286.614 158.779 289.839C157.297 291.808 157.632 294.247 160.878 295.52C165.344 297.176 174.265 296.225 178.948 295.279C186.098 293.839 185.339 290.391 179.177 287.72ZM173.487 294.738C147.027 297.488 162.714 282.353 178.2 288.762C182.594 290.588 182.779 292.065 182.607 291.722C183.39 293.659 175.609 294.509 173.487 294.732V294.738ZM66.3121 167.371C64.7368 164.952 62.8303 162.765 60.6483 160.875C58.8386 162.957 56.9248 164.946 54.9143 166.835C56.782 168.206 60.3708 169.549 66.3121 167.371ZM34.8619 195.4C36.2974 193.155 38.8351 187.465 38.6277 183.951C38.5783 183.09 37.2193 183.081 37.2767 183.951C37.4362 186.722 35.8604 190.604 34.6131 193.083C31.136 200.039 23.8245 201.334 24.8549 193.711C25.3943 190.799 26.6593 188.07 28.533 185.776C30.3321 183.36 32.9192 180.181 35.7535 179.209C36.5765 178.932 36.2225 177.614 35.3883 177.906C32.2605 179.002 29.9812 181.698 27.9875 184.262C25.7937 186.813 24.2751 189.874 23.5709 193.164C22.1705 201.994 30.423 202.361 34.8619 195.4ZM30.0945 211.521C30.4135 210.708 29.1088 210.357 28.7913 211.162C25.0659 220.687 24.4063 231.138 26.9045 241.056C26.9527 241.228 27.0676 241.375 27.2239 241.463C27.3802 241.551 27.565 241.574 27.7378 241.525C27.9107 241.477 28.0572 241.362 28.1453 241.206C28.2334 241.05 28.2558 240.865 28.2076 240.692C25.7752 231.01 26.435 220.809 30.0945 211.521ZM62.4123 249.846C61.3832 247.19 61.1239 244.297 61.6643 241.501C61.8366 240.649 60.5255 240.285 60.3612 241.137C59.9379 243.343 59.9476 245.611 60.3899 247.814C60.9531 249.925 61.7704 251.96 62.8239 253.875C63.5859 255.927 63.538 258.192 62.6899 260.21C62.2816 260.21 60.9354 258.379 60.4186 257.296C60.0709 256.557 58.8236 257.087 59.2495 257.985C59.9129 259.377 60.8968 260.592 62.1205 261.531C61.7947 262.184 61.4299 262.817 61.0279 263.427C60.0187 262.68 59.2252 261.679 58.7279 260.526C58.7215 260.517 58.7181 260.506 58.7183 260.495C58.6418 260.304 58.5748 260.101 58.5078 259.91C58.4838 259.825 58.4432 259.744 58.3883 259.675C58.3334 259.605 58.2653 259.546 58.1878 259.503C58.1104 259.459 58.0251 259.431 57.9368 259.421C57.8486 259.41 57.7592 259.417 57.6736 259.441C57.588 259.465 57.508 259.506 57.4382 259.561C57.3683 259.616 57.3099 259.684 57.2664 259.761C57.2228 259.839 57.195 259.924 57.1844 260.012C57.1738 260.1 57.1807 260.19 57.2047 260.275C57.7482 261.976 58.8143 263.462 60.2511 264.521C60.0618 264.761 59.8573 264.988 59.6386 265.201C59.2654 265.555 58.9384 265.756 58.5365 265.343C57.5296 264.084 56.6321 262.741 55.8537 261.33C52.8146 255.814 51.5976 249.479 52.3766 243.23C52.4545 241.051 53.3624 238.985 54.9143 237.454C55.5829 236.876 56.4473 236.574 57.3307 236.611C58.2141 236.649 59.0499 237.022 59.6674 237.655C60.2128 238.335 61.1714 237.368 60.6244 236.698C58.5636 234.146 53.4724 234.757 51.6924 240.032C50.2218 244.338 50.6955 250.777 51.922 255.275C51.8656 255.284 51.8115 255.305 51.7625 255.334C50.8625 255.896 49.8888 256.331 48.8692 256.626C48.8501 256.128 48.6395 250.868 48.5055 248.74C48.495 248.628 48.4585 248.521 48.399 248.426C48.3395 248.33 48.2586 248.25 48.1628 248.192C48.067 248.133 47.9588 248.098 47.8469 248.088C47.7351 248.079 47.6225 248.096 47.5182 248.137C46.8547 248.397 47.2726 248.185 47.5469 257.92C47.952 268.989 47.7347 280.073 46.8962 291.118C44.4606 288.298 41.7459 285.988 38.0328 286.443C39.6501 279.993 38.7122 275.747 37.2353 270.097C35.3453 262.894 33.0621 255.8 30.3959 248.847C30.0418 248.05 28.8711 248.742 29.2268 249.527C31.002 253.503 37.4155 272.838 37.5048 279.439C37.5846 284.255 36.4266 286.138 36.7376 286.76C35.4491 287.347 34.307 288.212 33.3939 289.294C32.4808 290.376 31.8197 291.647 31.4582 293.016C31.6223 293.527 31.7665 294.045 31.8904 294.568C36.7089 296.924 42.0458 295.525 46.9137 294.089C47.0031 294.064 48.0302 293.303 48.0717 292.95C48.0717 291.488 48.7448 289.201 48.992 276.115C49.2584 261.516 48.6874 257.988 48.9633 257.988C50.1222 257.661 51.2336 257.185 52.2697 256.572C53.1199 259.234 56.3785 266.414 58.5062 266.918C60.0198 267.263 61.4856 265.119 62.3198 263.823C66.9709 256.607 63.4475 252.498 62.4123 249.846ZM41.3584 294.134L41.789 291.059C41.8372 290.886 41.8148 290.701 41.7267 290.545C41.6386 290.389 41.4921 290.274 41.3193 290.225C41.1465 290.177 40.9616 290.2 40.8053 290.288C40.649 290.376 40.5341 290.522 40.4859 290.695L39.9691 294.346C38.9555 294.477 37.9324 294.519 36.9115 294.471C36.5367 291.346 38.4842 290.525 37.4012 289.872C37.2454 289.784 37.0613 289.759 36.8878 289.804C36.7143 289.848 36.565 289.959 36.4713 290.111C35.7578 291.385 35.4438 292.844 35.5701 294.298C34.6095 294.14 33.6759 293.848 32.7964 293.431C32.8155 293.356 32.8187 293.405 32.8395 293.344C33.7311 290.489 35.9162 287.577 39.2195 287.692C42.3201 287.803 44.6967 290.37 46.6155 292.769C44.8874 293.318 43.1308 293.774 41.3536 294.134H41.3584ZM46.6426 176.407C46.9779 176.407 47.3055 176.507 47.5841 176.694C47.8627 176.88 48.0798 177.145 48.2079 177.455C48.336 177.765 48.3693 178.105 48.3037 178.434C48.2381 178.763 48.0765 179.065 47.8393 179.302C47.6021 179.539 47.3 179.7 46.9712 179.766C46.6423 179.831 46.3015 179.797 45.9918 179.669C45.6821 179.54 45.4174 179.323 45.2311 179.044C45.0449 178.766 44.9455 178.438 44.9455 178.103C44.9455 177.88 44.9894 177.659 45.0747 177.453C45.16 177.247 45.2851 177.061 45.4427 176.903C45.6003 176.746 45.7874 176.621 45.9933 176.536C46.1992 176.451 46.4198 176.407 46.6426 176.407ZM58.0245 186.256C60.7934 186.256 61.8716 179.946 61.8716 179.946C60.6271 180.309 59.317 180.387 58.0381 180.175C56.7592 179.963 55.5444 179.466 54.4836 178.721C54.4836 178.721 55.2556 186.256 58.0245 186.256ZM85.8381 118.201C85.887 118.111 85.9153 118.011 85.9208 117.908C85.9263 117.806 85.909 117.704 85.87 117.609C85.8311 117.514 85.7715 117.429 85.6956 117.36C85.6198 117.291 85.5295 117.24 85.4314 117.21C82.6274 116.108 73.6284 112.561 73.5072 112.51C73.362 112.47 73.2078 112.48 73.0688 112.538C72.9298 112.595 72.8141 112.698 72.74 112.829C72.0031 113.977 51.5759 145.864 50.8183 147.147C48.4162 146.246 46.9616 147.573 47.2933 149.22C47.791 151.672 49.4785 151.134 45.5883 150.337C43.8053 149.948 41.9777 149.803 40.1557 149.906C38.0647 150.225 37.2959 152.055 40.9022 154.638C40.3471 154.638 39.7857 154.638 39.2354 154.648C36.1539 154.677 36.4745 158.026 39.0759 158.825C37.449 159.368 37.0487 161.717 39.5831 162.175C54.4358 164.772 62.4251 155.536 70.2821 143.11C71.1944 141.65 85.3134 119.25 85.8381 118.201ZM58.9241 155.425C56.5382 157.722 53.6425 159.423 50.4737 160.387C47.3048 161.351 43.9528 161.552 40.6916 160.972C37.953 160.546 39.3646 159.982 40.6725 159.918C41.1425 159.915 41.6088 159.835 42.0522 159.679C42.177 159.639 42.2878 159.565 42.3717 159.464C42.4557 159.364 42.5091 159.241 42.5259 159.111C42.5427 158.982 42.522 158.85 42.4663 158.731C42.4107 158.613 42.3223 158.513 42.2117 158.443C40.8671 157.541 38.5767 157.849 38.398 156.458C38.3119 155.741 39.8447 155.999 40.2578 155.999C41.3488 155.999 42.4318 155.989 43.5244 155.989C43.6858 155.985 43.8405 155.924 43.9608 155.816C44.081 155.708 44.159 155.561 44.1809 155.401C44.2027 155.241 44.167 155.078 44.08 154.942C43.9931 154.806 43.8606 154.705 43.7062 154.658C42.4621 154.164 41.3385 153.409 40.4109 152.444C40.1621 152.185 39.4236 151.602 39.9691 151.353C43.52 151.047 47.086 151.733 50.2696 153.335C50.9076 153.642 51.7354 152.79 51.0942 152.271C48.3955 150.102 47.5661 147.266 50.4419 148.467C52.8689 149.701 55.1215 151.251 57.1409 153.077C57.7916 153.661 58.7502 152.704 58.0979 152.12C56.239 150.47 54.2198 149.009 52.0704 147.761C74.1898 113.003 73.6029 114.106 73.638 114.044C76.9524 115.347 84.0246 118.135 84.2543 118.221C69.8116 140.784 65.7555 149.421 58.9241 155.425ZM248.209 64.5975C248.375 64.5436 248.514 64.4276 248.596 64.2738C248.678 64.1201 248.698 63.9404 248.651 63.7724C248.604 63.6044 248.494 63.461 248.344 63.3722C248.194 63.2834 248.015 63.2561 247.845 63.296C247.034 63.4277 246.274 63.78 245.649 64.3145C245.024 64.8489 244.557 65.545 244.301 66.3265C244.013 67.1017 245.258 67.6025 245.603 66.6902C246.147 65.3376 246.769 65.1079 248.209 64.5975ZM250.437 68.9263C250.481 68.7524 250.455 68.5684 250.366 68.4129C250.277 68.2574 250.131 68.1425 249.959 68.0922C249.222 67.8529 248.493 67.6137 247.756 67.3824C247.586 67.3429 247.407 67.3706 247.257 67.4598C247.107 67.5489 246.997 67.6925 246.95 67.8607C246.903 68.0289 246.923 68.2088 247.005 68.3627C247.088 68.5167 247.226 68.6329 247.392 68.6871C248.129 68.9263 248.858 69.1656 249.595 69.3953C249.681 69.4201 249.771 69.4276 249.86 69.4174C249.949 69.4073 250.036 69.3796 250.114 69.336C250.192 69.2924 250.261 69.2338 250.316 69.1635C250.372 69.0932 250.413 69.0126 250.437 68.9263ZM258.988 63.9292C258.168 63.7474 258.071 64.5911 257.628 65.8432C257.581 66.0163 257.605 66.2007 257.693 66.3566C257.781 66.5125 257.927 66.6275 258.099 66.6767C258.272 66.7259 258.456 66.7054 258.614 66.6196C258.771 66.5338 258.888 66.3895 258.94 66.218C259.113 65.7395 259.285 65.261 259.457 64.7714C259.503 64.5976 259.48 64.4127 259.393 64.2556C259.305 64.0985 259.16 63.9815 258.988 63.9292ZM258.653 60.9928C259.213 59.9975 257.073 59.0581 255.664 60.2368C255.571 60.3324 255.509 60.453 255.484 60.5838C255.459 60.7146 255.472 60.8498 255.523 60.9729C255.574 61.096 255.66 61.2015 255.77 61.2765C255.88 61.3514 256.009 61.3925 256.143 61.3948C257.551 61.3246 258.4 61.5 258.653 60.9928ZM254.6 76.4276C254.164 76.6373 253.689 76.7504 253.205 76.7591C252.722 76.7679 252.242 76.6722 251.799 76.4785C251.356 76.2848 250.96 75.9977 250.638 75.6369C250.316 75.276 250.075 74.8499 249.933 74.3876C249.629 73.6763 248.338 74.134 248.764 75.0767C248.996 75.6954 249.356 76.2583 249.82 76.7285C250.285 77.1987 250.843 77.5656 251.459 77.8052C252.075 78.0449 252.734 78.1519 253.394 78.1193C254.054 78.0866 254.7 77.9151 255.289 77.6159C255.439 77.5205 255.545 77.3711 255.587 77.1989C255.629 77.0268 255.603 76.8451 255.514 76.6919C255.425 76.5386 255.28 76.4256 255.11 76.3763C254.94 76.3271 254.757 76.3455 254.6 76.4276ZM234.296 69.6345C234.124 69.5891 233.94 69.6127 233.785 69.7003C233.63 69.7878 233.515 69.9325 233.465 70.1035C233.422 70.2761 233.447 70.4585 233.534 70.6135C233.621 70.7684 233.764 70.8844 233.934 70.9376C234.725 71.174 235.44 71.614 236.007 72.2136C236.134 72.3403 236.306 72.4114 236.486 72.4114C236.665 72.4114 236.837 72.3403 236.964 72.2136C237.851 71.2582 235.393 69.9759 234.296 69.6345ZM236.301 77.0608C236.605 76.7502 236.824 76.3666 236.937 75.9469C237.05 75.5272 237.053 75.0855 236.946 74.6641C236.839 74.2428 236.626 73.856 236.327 73.5409C236.028 73.2257 235.652 72.9928 235.237 72.8644C235.064 72.8185 234.88 72.8418 234.725 72.9293C234.569 73.0169 234.453 73.1619 234.403 73.3333C234.178 74.3127 235.476 73.9618 235.648 75.1054C235.648 76.5999 233.884 76.6493 233.884 74.7991C233.441 74.7549 233 74.6878 232.564 74.5982C232.457 75.0722 232.498 75.5675 232.679 76.018C232.861 76.4686 233.176 76.8531 233.582 77.1205C233.987 77.3878 234.465 77.5253 234.95 77.5147C235.436 77.504 235.907 77.3457 236.301 77.0608ZM308.57 163.741C305.441 157.229 304.564 151.734 300.378 144.166C301.176 143.647 301.991 143.319 301.662 142.585C301.418 141.609 299.748 137.641 299.096 136.176C299.012 136.033 298.879 135.926 298.721 135.876C298.563 135.825 298.392 135.835 298.241 135.902C298.082 135.958 285.427 142.722 284.569 143.965C284.046 144.735 284.296 144.762 286.467 149.925C286.536 150.098 286.66 150.243 286.821 150.337C287.164 150.68 287.374 150.504 289.993 149.416C291.553 153.154 293.671 156.814 293.872 160.9C293.987 163.304 293.059 165.642 292.78 168.009C292.188 172.932 295.311 174.346 297.906 169.896C298.225 171.786 298.806 174.613 300.206 175.664C300.439 175.86 300.721 175.988 301.022 176.034C301.323 176.08 301.631 176.042 301.911 175.924C302.221 175.722 302.481 175.454 302.675 175.139C302.868 174.824 302.988 174.47 303.028 174.102C303.425 172.525 303.117 172.652 303.506 173.26C305.277 176.198 308.422 174.042 307.446 170.74C307.888 171.065 308.429 171.229 308.977 171.205C309.526 171.18 310.05 170.969 310.462 170.606C311.998 169.07 310.082 166.91 308.57 163.741ZM287.531 148.973C287.272 148.359 286.073 145.513 285.987 145.305C285.645 144.507 283.904 145.233 298.176 137.478C298.913 139.173 299.611 140.898 300.249 142.631C296.214 145.131 291.956 147.254 287.531 148.973ZM308.862 169.85C307.762 169.794 307.267 168.48 306.899 167.617C306.831 167.503 306.731 167.412 306.612 167.354C306.493 167.296 306.36 167.274 306.228 167.291C306.097 167.308 305.974 167.363 305.873 167.449C305.773 167.536 305.699 167.649 305.663 167.776C305.291 169.935 307.063 171.855 305.892 173.085C304.776 174.254 303.353 169.502 303.19 168.85C302.972 167.998 301.736 168.362 301.887 169.215C302.125 170.508 302.118 171.833 301.868 173.123C301.587 174.558 301.377 175.472 300.46 173.92C299.48 171.541 298.959 168.997 298.927 166.424C298.918 166.25 298.844 166.087 298.718 165.967C298.592 165.847 298.425 165.78 298.251 165.78C298.078 165.78 297.911 165.847 297.785 165.967C297.659 166.087 297.584 166.25 297.576 166.424C297.416 169.261 295.3 171.423 294.683 171.187C294.065 170.951 294.07 169.711 294.07 169.204C294.094 166.379 295.622 163.231 295.123 159.833C294.517 155.552 292.802 152.723 291.234 148.892C293.972 147.727 296.635 146.395 299.209 144.904C303.659 153.007 304.513 159.419 308.926 167.381C309.27 167.995 310.397 169.922 308.862 169.844V169.85ZM240.947 99.7577C240.012 100.177 236.588 101.684 236.511 101.713C237.126 100.004 237.6 98.2483 237.929 96.4624C237.978 96.2896 237.956 96.1047 237.868 95.9482C237.78 95.7918 237.633 95.6767 237.46 95.6282C237.288 95.5798 237.103 95.602 236.946 95.6899C236.79 95.7779 236.675 95.9244 236.626 96.0972C235.57 101.919 234.286 102.195 235.256 102.881C236.307 103.621 237.35 102.815 241.655 100.927C242.346 100.632 241.914 99.3239 240.947 99.7577ZM254.82 96.4241C255.235 98.1619 255.316 99.9627 255.06 101.731C253.593 101.186 252.187 100.491 250.863 99.6572C250.126 99.1883 249.445 100.365 250.182 100.826C251.83 101.856 253.592 102.689 255.433 103.308C255.607 103.354 255.792 103.329 255.948 103.24C256.104 103.15 256.219 103.003 256.267 102.83C256.704 100.586 256.655 98.2743 256.123 96.0509C255.923 95.212 254.615 95.5788 254.82 96.4241ZM253.111 92.191C253.147 92.0235 253.118 91.8485 253.029 91.7016C252.941 91.5547 252.8 91.4468 252.636 91.3999C252.471 91.3531 252.294 91.3706 252.142 91.4491C251.99 91.5276 251.873 91.6611 251.815 91.8226C251.449 93.1339 250.769 94.3368 249.836 95.3282C248.903 96.3196 247.743 97.07 246.456 97.5151C243.177 98.5152 241.137 96.0318 240.266 92.7301C240.211 92.5657 240.095 92.4286 239.942 92.3467C239.789 92.2649 239.611 92.2445 239.443 92.2896C239.276 92.3348 239.132 92.4422 239.041 92.5898C238.95 92.7375 238.918 92.9143 238.953 93.0842C241.483 102.793 251.185 99.3398 253.111 92.191Z" fill="#1D1D1B"/>
<path d="M287.579 145.378C287.471 145.444 287.378 145.532 287.308 145.637C287.237 145.742 287.191 145.861 287.171 145.986C287.151 146.11 287.158 146.238 287.192 146.36C287.226 146.482 287.286 146.594 287.368 146.691C287.504 146.806 287.67 146.881 287.847 146.908C288.024 146.934 288.204 146.91 288.368 146.839C289.376 145.884 288.189 145.006 287.579 145.378ZM246.703 104.841C247.284 104.8 247.536 103.838 246.979 103.377C246.881 103.315 246.771 103.274 246.655 103.256C246.54 103.238 246.423 103.245 246.31 103.275C246.198 103.305 246.092 103.358 246.001 103.43C245.91 103.502 245.835 103.593 245.78 103.696C245.47 104.42 246.034 104.887 246.703 104.841ZM247.065 112.089C247.646 112.049 247.898 111.087 247.341 110.624C247.243 110.562 247.133 110.521 247.017 110.504C246.902 110.486 246.785 110.493 246.672 110.522C246.56 110.552 246.454 110.605 246.363 110.678C246.272 110.75 246.197 110.841 246.142 110.943C245.818 111.668 246.389 112.129 247.065 112.089ZM225.252 121.061C223.458 122.236 221.589 123.293 219.655 124.222C218.89 124.643 219.569 125.817 220.336 125.391C221.317 124.852 224.842 122.947 224.97 122.857C224.97 123.847 224.782 126.003 224.669 127.053C224.669 127.233 224.74 127.405 224.867 127.532C224.994 127.659 225.167 127.731 225.346 127.731C225.526 127.731 225.699 127.659 225.826 127.532C225.953 127.405 226.024 127.233 226.024 127.053C226.086 126.455 226.562 121.861 226.184 121.333C226.074 121.2 225.926 121.102 225.76 121.054C225.594 121.005 225.417 121.008 225.252 121.061ZM259.218 280.631C256.673 280.973 254.247 281.919 252.142 283.39C250.037 284.86 248.314 286.813 247.117 289.084C255.571 288.595 264.051 288.777 272.477 289.63C269.193 285.267 263.973 280.256 259.218 280.631ZM230.838 226.517C233.565 227.227 236.405 227.385 239.194 226.984C239.361 226.931 239.501 226.816 239.585 226.661C239.668 226.507 239.688 226.326 239.641 226.157C239.593 225.988 239.482 225.844 239.331 225.756C239.179 225.667 238.999 225.641 238.829 225.683C236.281 226.035 233.689 225.875 231.203 225.212C231.033 225.171 230.853 225.198 230.701 225.287C230.55 225.375 230.439 225.52 230.391 225.689C230.344 225.858 230.364 226.039 230.447 226.193C230.531 226.348 230.671 226.464 230.838 226.517Z" fill="#1D1D1B"/>
<path d="M138.352 162.481C135.424 160.906 133.1 158.406 131.744 155.37C130.388 152.334 130.075 148.935 130.855 145.703C131.056 144.852 129.753 144.497 129.552 145.34C128.726 148.86 129.072 152.554 130.539 155.86C132.005 159.165 134.512 161.901 137.677 163.65C138.446 164.07 139.119 162.901 138.352 162.481ZM95.6107 148.852C95.9972 151.139 95.7124 153.49 94.7907 155.619C93.869 157.748 92.3499 159.564 90.4174 160.848C88.9055 162.029 87.1185 162.806 85.224 163.108C85.0506 163.116 84.887 163.191 84.7672 163.317C84.6474 163.443 84.5806 163.61 84.5806 163.783C84.5806 163.957 84.6474 164.124 84.7672 164.25C84.887 164.376 85.0506 164.45 85.224 164.459C87.3023 164.22 89.275 163.415 90.9262 162.13C93.1695 160.712 94.9383 158.657 96.006 156.227C97.0736 153.797 97.3914 151.104 96.9186 148.493C96.7559 147.63 95.4528 147.998 95.6107 148.852Z" fill="#AC47F5"/>
<path d="M133.39 61.098C132.71 58.2198 131.412 55.5242 129.585 53.1984C127.759 50.8727 125.447 48.9727 122.812 47.6306C120.177 46.2885 117.281 45.5364 114.326 45.4266C111.37 45.3169 108.427 45.8521 105.699 46.995C91.6631 52.9125 83.1506 77.3383 104.866 82.1855C104.641 83.359 104.68 84.5681 104.982 85.7244C105.283 86.8807 105.839 87.955 106.61 88.8686C109.002 91.159 115.245 91.3153 117.437 88.2513C118.279 91.4732 120.26 91.4254 118.462 92.5913C117.726 93.0813 117.143 93.7685 116.78 94.5744C116.417 95.3803 116.288 96.2722 116.408 97.1481C116.528 98.0239 116.892 98.8482 117.459 99.5267C118.025 100.205 118.772 100.71 119.612 100.984C118.823 101.684 118.203 102.555 117.8 103.529C117.396 104.504 117.22 105.558 117.284 106.611C117.347 107.664 117.649 108.689 118.167 109.608C118.685 110.527 119.405 111.316 120.273 111.916C119.571 112.908 119.135 114.062 119.005 115.269C118.876 116.477 119.058 117.697 119.534 118.815C120.11 120.127 121.107 121.584 120.426 122.839C122.587 123.636 125.586 119.775 124.699 115.384C124.538 114.918 124.506 114.418 124.605 113.936C124.705 113.454 124.933 113.007 125.265 112.644C126.756 110.277 127.908 107.468 126.463 105.056C126.197 104.778 126.038 104.415 126.013 104.032C125.988 103.648 126.098 103.268 126.324 102.957C127.582 100.262 128.177 97.0557 126.142 94.8817C125.185 93.8769 124.935 93.6871 125.635 92.1415C126.12 91.2902 126.353 90.3192 126.309 89.3406C126.265 88.3621 125.945 87.416 125.386 86.6117C124.976 86.1587 124.837 86.0311 125.067 85.4345C125.713 84.2446 126.04 82.9077 126.016 81.5539C131.395 78.131 135.368 69.5627 133.39 61.098ZM112.085 89.1987C107.677 89.2275 105.363 87.5782 106.433 80.5188C108.036 81.2813 109.782 81.7007 111.557 81.7501C113.332 81.7995 115.098 81.4779 116.741 80.8059C117.62 85.8205 117.218 89.1461 112.085 89.1987ZM123.233 68.7445C122.716 68.6775 122.506 69.1943 122.62 69.6058C122.051 71.9306 121.198 74.1766 120.081 76.2936C118.765 78.1204 116.876 79.4543 114.714 80.083C112.552 80.7117 110.242 80.5989 108.152 79.7627C100.716 77.2203 101.914 70.4479 101.474 68.2261C101.444 68.1137 101.385 68.0111 101.302 67.9288C101.22 67.8465 101.117 67.7873 101.005 67.7572C98.9825 67.2292 96.7128 65.4476 96.6171 63.1955C96.5948 62.6129 96.74 62.0361 97.0354 61.5335C97.3308 61.0309 97.7641 60.6235 98.2839 60.3595C99.453 59.8619 100.372 61.5191 100.814 62.3437C100.883 62.4556 100.983 62.5451 101.101 62.6016C101.22 62.6581 101.353 62.6792 101.483 62.6624C101.613 62.6455 101.736 62.5915 101.837 62.5067C101.937 62.4219 102.011 62.3099 102.05 62.1842C102.332 60.4507 102.704 58.7332 103.166 57.0388C107.383 57.1345 112.173 56.262 115.21 53.1581C115.384 54.6381 115.849 56.0689 116.58 57.3678C117.31 58.6666 118.291 59.8076 119.466 60.7248C119.031 60.4249 118.526 60.243 118 60.1969C117.82 60.1993 117.648 60.2719 117.521 60.3992C117.394 60.5264 117.322 60.6982 117.32 60.8779C117.378 61.9163 118.828 61.2847 119.379 62.6117C119.858 63.5288 121.794 62.5303 119.599 60.8301C120.649 61.7001 121.813 62.4219 123.059 62.9754C123.021 63.4539 122.992 63.9324 122.954 64.3933C122.906 65.0457 123.7 65.2084 124.113 64.8718C124.92 64.1668 125.849 63.6149 126.854 63.2433C128.018 62.8733 128.581 63.1221 128.913 64.296C129.758 67.6519 125.924 69.0858 123.233 68.7445Z" fill="#1D1D1B"/>
<path d="M107.482 64.5082C107.482 64.2438 107.377 63.9902 107.19 63.8033C107.003 63.6163 106.75 63.5113 106.485 63.5113C106.221 63.5113 105.967 63.6163 105.781 63.8033C105.594 63.9902 105.489 64.2438 105.489 64.5082C105.489 64.7726 105.594 65.0261 105.781 65.2131C105.967 65.4 106.221 65.5051 106.485 65.5051C106.75 65.5051 107.003 65.4 107.19 65.2131C107.377 65.0261 107.482 64.7726 107.482 64.5082ZM117.676 65.1892C117.419 65.1995 117.175 65.309 116.997 65.4947C116.819 65.6803 116.719 65.9278 116.719 66.1853C116.719 66.4428 116.819 66.6903 116.997 66.876C117.175 67.0617 117.419 67.1711 117.676 67.1814C117.933 67.1711 118.177 67.0617 118.355 66.876C118.533 66.6903 118.633 66.4428 118.633 66.1853C118.633 65.9278 118.533 65.6803 118.355 65.4947C118.177 65.309 117.933 65.1995 117.676 65.1892ZM107.482 60.2352C107.657 60.2267 107.822 60.1513 107.942 60.0247C108.063 59.898 108.13 59.7298 108.13 59.5549C108.13 59.38 108.063 59.2118 107.942 59.0851C107.822 58.9585 107.657 58.8831 107.482 58.8746C106.945 58.902 106.422 59.0603 105.959 59.3358C105.497 59.6113 105.108 59.9956 104.828 60.4553C104.74 60.611 104.715 60.7951 104.76 60.9686C104.804 61.1421 104.915 61.2915 105.067 61.3852C106.01 61.8972 106.174 60.2352 107.482 60.2352ZM115.866 70.3634C114.137 72.8293 109.098 72.464 108.439 69.7015C108.238 68.8498 106.935 69.2134 107.136 70.0652C108.02 73.8421 114.521 74.6715 117.035 71.062C117.542 70.3251 116.363 69.6536 115.866 70.3634ZM120.847 124.621C121.459 123.997 120.502 123.04 119.89 123.664C118.952 124.63 118.251 125.802 117.842 127.085C117.433 128.369 117.327 129.73 117.532 131.061C117.556 131.147 117.597 131.227 117.652 131.297C117.707 131.366 117.775 131.425 117.852 131.468C117.93 131.512 118.015 131.54 118.103 131.55C118.192 131.561 118.281 131.554 118.367 131.53C118.452 131.506 118.532 131.465 118.602 131.411C118.672 131.356 118.73 131.288 118.774 131.21C118.817 131.133 118.845 131.047 118.856 130.959C118.866 130.871 118.859 130.781 118.836 130.696C118.688 129.597 118.792 128.479 119.141 127.426C119.489 126.374 120.073 125.414 120.847 124.621ZM121.758 124.391C121.669 124.41 121.587 124.448 121.515 124.503C121.444 124.559 121.386 124.629 121.346 124.71C120.095 126.997 119.699 129.654 120.23 132.206C120.278 132.379 120.393 132.526 120.55 132.614C120.706 132.702 120.891 132.724 121.064 132.675C121.237 132.627 121.383 132.512 121.471 132.355C121.559 132.199 121.581 132.014 121.533 131.841C121.167 130.03 121.343 128.151 122.04 126.439C122.596 127.81 122.868 129.28 122.837 130.76C122.846 130.933 122.921 131.097 123.046 131.217C123.172 131.336 123.339 131.403 123.513 131.403C123.687 131.403 123.854 131.336 123.979 131.217C124.105 131.097 124.18 130.933 124.188 130.76C124.223 128.613 123.702 126.493 122.675 124.608C122.634 124.528 122.577 124.457 122.506 124.402C122.436 124.346 122.354 124.306 122.267 124.286C122.179 124.265 122.088 124.264 122 124.282C121.913 124.3 121.83 124.337 121.758 124.391ZM122.994 123.798C124.28 125.427 125.03 127.415 125.141 129.488C125.149 129.663 125.224 129.828 125.351 129.949C125.478 130.069 125.646 130.137 125.821 130.137C125.996 130.137 126.164 130.069 126.291 129.949C126.417 129.828 126.493 129.663 126.501 129.488C126.371 127.061 125.483 124.735 123.962 122.839C123.479 122.234 122.337 122.984 122.994 123.798Z" fill="#1D1D1B"/>
</svg>
