<svg width="342" height="342" viewBox="0 0 342 342" fill="none" xmlns="http://www.w3.org/2000/svg">
<path d="M148.12 114.279H148.132C148.312 114.296 148.491 114.29 148.671 114.298V114.148C148.49 114.204 148.307 114.248 148.12 114.279Z" fill="#D1A9FF"/>
<path d="M192.079 99.6281C191.819 95.8591 191.115 92.134 189.981 88.5302C189.183 85.6775 188.017 82.9407 186.513 80.3889C186.261 79.985 185.984 79.5977 185.682 79.2295C185.005 78.2969 184.069 77.5835 182.991 77.1775C181.799 76.9092 180.577 76.7994 179.357 76.8509C176.672 76.7619 173.988 76.6326 171.304 76.4627C165.904 76.1207 160.518 75.6157 155.145 74.9476C152.09 74.5669 149.042 74.1325 146.001 73.6446C145.908 73.6326 145.814 73.6414 145.724 73.6703C146.888 73.7009 147.993 74.1865 148.802 75.0229L148.825 75.0502C149.833 76.4447 150.497 78.0578 150.762 79.7579C151.69 83.7913 152.349 87.8822 152.734 92.0032C152.946 94.0552 153.117 96.1209 153.278 98.1831C153.419 100.004 153.587 101.829 153.597 103.655C153.616 106.89 153.084 110.495 150.69 112.889C150.127 113.464 149.433 113.895 148.667 114.146V114.296C148.948 114.308 149.227 114.331 149.505 114.326C151.008 114.291 152.496 114.022 153.915 113.527C157.67 112.214 160.772 109.499 162.571 105.952C164.304 102.329 165.182 98.3564 165.136 94.3407C164.941 92.7172 165.327 91.077 166.224 89.7101C166.452 89.4334 166.744 89.2167 167.075 89.079C167.406 88.9412 167.765 88.8867 168.122 88.92C168.588 89.0044 169.031 89.1882 169.42 89.4587C169.809 89.7293 170.135 90.0804 170.376 90.4881C172.155 93.2594 173.162 96.4554 173.293 99.7461C173.546 98.0211 173.599 96.2728 173.452 94.5357C173.29 92.7197 172.298 90.1188 173.767 88.5866C175.236 87.0544 177.38 88.2446 178.565 89.4844C179.282 90.2968 179.882 91.205 180.349 92.1827C180.892 93.22 181.364 94.2929 181.763 95.3941C181.802 95.5053 181.831 95.6181 181.87 95.7361L181.684 92.2973C181.486 91.2086 181.715 90.0853 182.324 89.1612C183.179 88.2018 184.359 88.7268 185.152 89.4587C185.851 90.1274 186.497 90.8495 187.084 91.6184C189.555 94.8815 190.94 98.8369 191.046 102.928C191.057 103.402 191.046 103.876 191.026 104.349C190.964 105.68 190.79 107.012 190.612 108.325C190.486 109.24 190.341 110.152 190.178 111.061C190.349 110.748 190.503 110.43 190.643 110.105C191.934 106.773 192.425 103.185 192.079 99.6281Z" fill="#D1A9FF"/>
<path d="M142.192 93.879L142.219 93.9389C142.242 93.9851 142.255 94.0354 142.258 94.0867C142.261 94.1381 142.254 94.1896 142.237 94.2383C142.221 94.2869 142.194 94.3318 142.16 94.3702C142.126 94.4086 142.084 94.4399 142.038 94.4621C142.017 94.4725 141.995 94.481 141.973 94.4878C141.903 94.5336 141.823 94.5612 141.74 94.5682C140.899 94.6349 140.056 94.6776 139.215 94.7101C139.25 95.6096 139.317 96.5084 139.415 97.4068C139.562 98.7748 139.769 100.153 140.032 101.511C140.283 101.049 140.533 100.587 140.776 100.127C141.524 98.7035 142.277 97.2814 143.036 95.8609C143.036 95.8507 143.05 95.8472 143.055 95.8387L143.072 95.8182C143.122 95.738 143.198 95.6768 143.287 95.6443C143.376 95.6117 143.473 95.6098 143.563 95.6386C143.631 95.6492 143.696 95.6745 143.754 95.713C143.811 95.7514 143.859 95.8019 143.895 95.8609C145.831 98.8158 147.746 101.784 149.724 104.71C149.767 104.786 149.789 104.872 149.789 104.959C149.788 105.046 149.765 105.131 149.722 105.206C149.679 105.282 149.617 105.345 149.542 105.389C149.467 105.433 149.382 105.458 149.295 105.459L147.968 105.517L141.097 105.825C141.558 107.679 142.371 109.427 143.491 110.974C144.38 112.202 145.701 113.049 147.188 113.346C147.977 113.334 148.747 113.105 149.413 112.682C150.079 112.26 150.615 111.661 150.96 110.952C152.411 108.134 152.958 104.938 152.529 101.798C152.358 98.7508 152.094 95.7019 151.78 92.6615C151.732 92.7247 151.672 92.7768 151.603 92.8143C151.533 92.8518 151.456 92.8738 151.378 92.8787C149.367 92.8958 147.359 93.1198 145.35 92.9573C145.218 92.952 145.092 92.8957 145 92.8C144.909 92.7044 144.857 92.5769 144.858 92.4443C144.859 92.3617 144.881 92.2808 144.921 92.2084C146.602 89.3014 148.283 86.4149 149.748 83.3967C149.787 83.3035 149.859 83.2278 149.95 83.1843C150.041 83.1407 150.145 83.1324 150.242 83.1608C150.321 83.1627 150.398 83.1863 150.465 83.2292C150.224 81.9518 149.948 80.6813 149.637 79.4193C149.448 77.884 148.757 76.4543 147.67 75.3529C147.191 74.9727 146.614 74.7351 146.006 74.6674C145.398 74.5996 144.783 74.7045 144.232 74.9699C143.805 75.3388 143.42 75.7534 143.084 76.2062C141.673 78.3676 140.745 80.808 140.364 83.3608C139.993 85.2025 139.757 87.063 139.545 88.9269C140.561 90.4669 141.432 92.0978 142.147 93.7987C142.165 93.8235 142.18 93.8505 142.192 93.879Z" fill="#1D1D1B"/>
<path d="M139.415 97.3982C139.318 96.501 139.251 95.6021 139.215 94.7015C138.883 94.7152 138.549 94.7272 138.218 94.7357C138.247 95.3958 138.292 96.0547 138.351 96.7125C138.54 98.7861 138.857 100.846 139.3 102.88C139.539 102.419 139.783 101.963 140.032 101.512C139.769 100.144 139.562 98.7731 139.415 97.3982Z" fill="white"/>
<path d="M142.219 93.9304L142.192 93.8705C142.183 93.8411 142.17 93.813 142.154 93.7867C141.439 92.0877 140.567 90.4585 139.551 88.9201C139.278 88.5028 138.993 88.0913 138.696 87.6854C138.407 87.2887 138.12 86.8886 137.809 86.5038C137.715 86.41 137.587 86.3572 137.454 86.3572C137.321 86.3572 137.193 86.41 137.099 86.5038C137.072 86.5312 137.048 86.5622 137.029 86.5962C135.551 88.9944 134.228 91.484 133.065 94.0501C133.033 94.1077 133.012 94.1712 133.005 94.2369C132.997 94.3025 133.002 94.3691 133.02 94.4326C133.039 94.4962 133.069 94.5556 133.11 94.6073C133.151 94.6591 133.202 94.7021 133.26 94.7341C133.332 94.7736 133.413 94.7953 133.495 94.7973C135.069 94.7973 136.644 94.7888 138.218 94.7443C138.549 94.7341 138.883 94.7238 139.215 94.7101C140.056 94.6776 140.899 94.6349 141.74 94.5682C141.823 94.5612 141.903 94.5336 141.973 94.4878C142.073 94.4595 142.158 94.3927 142.209 94.302C142.26 94.2113 142.273 94.1041 142.245 94.0039C142.238 93.9786 142.23 93.954 142.219 93.9304ZM139.225 84.8776C139.197 84.8041 139.16 84.7357 139.131 84.6622C138.142 82.4744 137.017 80.351 135.762 78.3044C135.694 78.1912 135.584 78.1096 135.455 78.0775C135.327 78.0455 135.191 78.0656 135.078 78.1334C135.008 78.1759 134.95 78.2346 134.907 78.3044C133.889 80.5967 132.825 82.8686 131.716 85.1187C131.674 85.1946 131.653 85.2799 131.654 85.3665C131.655 85.453 131.678 85.5379 131.721 85.613C131.764 85.688 131.826 85.7507 131.9 85.795C131.974 85.8394 132.059 85.8638 132.145 85.866C134.392 85.695 136.648 85.8267 138.881 85.4898C138.922 85.4811 138.962 85.4661 138.999 85.4453C139.088 85.4118 139.161 85.345 139.203 85.259C139.237 85.2019 139.257 85.1374 139.261 85.071C139.264 85.0046 139.252 84.9383 139.225 84.8776ZM149.724 104.703C147.746 101.778 145.831 98.809 143.895 95.8541C143.859 95.7951 143.811 95.7446 143.754 95.7061C143.696 95.6677 143.631 95.6424 143.563 95.6318C143.473 95.6029 143.376 95.6049 143.287 95.6374C143.198 95.67 143.122 95.7311 143.072 95.8114L143.055 95.8319C143.055 95.8319 143.042 95.8438 143.036 95.8541C142.277 97.2734 141.524 98.6956 140.776 100.121C140.533 100.581 140.283 101.042 140.032 101.504C139.781 101.966 139.541 102.419 139.3 102.872C138.883 103.657 138.507 104.463 138.175 105.288C138.158 105.352 138.153 105.418 138.161 105.483C138.17 105.548 138.191 105.611 138.224 105.668C138.256 105.725 138.3 105.774 138.352 105.814C138.404 105.854 138.464 105.884 138.527 105.9C138.568 105.912 138.611 105.918 138.654 105.917L140.064 105.856L141.09 105.81L147.961 105.502L149.288 105.444C149.354 105.443 149.419 105.429 149.48 105.402C149.541 105.376 149.595 105.337 149.641 105.29C149.687 105.242 149.723 105.186 149.747 105.124C149.771 105.063 149.782 104.997 149.781 104.931C149.78 104.852 149.761 104.773 149.724 104.703ZM150.663 83.5045C150.654 83.4465 150.633 83.391 150.602 83.3416C150.57 83.2921 150.529 83.2498 150.48 83.2172C150.413 83.1742 150.336 83.1505 150.256 83.1488C150.159 83.1205 150.055 83.1289 149.965 83.1725C149.874 83.216 149.802 83.2916 149.764 83.3848C148.298 86.4029 146.617 89.2963 144.936 92.1964C144.874 92.3135 144.86 92.4502 144.896 92.5777C144.932 92.7052 145.017 92.8137 145.131 92.8804C145.203 92.9199 145.283 92.9416 145.365 92.9437C147.375 93.1061 149.382 92.8821 151.393 92.865C151.472 92.8601 151.549 92.8382 151.618 92.8007C151.687 92.7632 151.748 92.711 151.795 92.6479C151.829 92.6099 151.855 92.5655 151.871 92.5173C151.887 92.4691 151.893 92.4181 151.889 92.3674C151.506 89.4074 151.253 86.4337 150.663 83.5045Z" fill="#AC47F5"/>
<path d="M124.568 51.259C124.134 49.8447 123.167 48.6541 121.873 47.9373C120.579 47.2204 119.057 47.0332 117.627 47.4149C118.565 44.9648 118.853 42.3141 118.464 39.7199C118.214 38.6479 117.751 37.637 117.103 36.7475C116.454 35.858 115.634 35.1079 114.69 34.542C112.81 33.4121 110.655 32.8244 108.462 32.844C105.988 32.9138 103.567 33.5765 101.403 34.7763C98.8374 36.2105 96.4301 37.9111 94.221 39.8499C93.7733 38.931 93.1425 38.1132 92.3674 37.4469C91.5923 36.7806 90.6891 36.2797 89.7134 35.975C87.2477 35.2003 84.5813 35.3766 82.239 36.4692C79.6488 37.7101 77.2857 39.3778 75.2486 41.4025C73.4075 43.0988 71.6513 44.8829 69.98 46.7548C62.7758 54.8106 56.76 64.7098 55.2843 75.582C54.8174 79.0278 54.8808 82.5248 55.4724 85.9515C55.7886 85.8892 56.1084 85.8475 56.43 85.8266C56.8709 85.7918 57.3142 85.7998 57.7535 85.8506C59.0719 86.0744 60.3348 86.5505 61.4728 87.2528C61.5019 86.6748 61.5429 86.1002 61.6096 85.5257C62.5185 78.6843 65.4963 72.2842 70.1442 67.1825C74.5933 61.9933 80.1641 57.8837 86.4354 55.1646C88.9921 54.1331 91.6564 53.3915 94.3783 52.9536C97.215 52.4477 100.096 52.23 102.976 52.3038C105.537 52.2685 108.071 52.833 110.375 53.9522C113.146 55.674 115.476 58.0198 117.179 60.8025C117.863 61.8199 118.476 62.8784 119.06 63.9523C119.267 64.3285 119.474 64.7047 119.671 65.086C120.071 64.0754 120.526 63.087 121.012 62.1123C122.318 59.7707 123.418 57.3195 124.298 54.7867C124.687 53.6529 124.78 52.4387 124.568 51.259Z" fill="#1D1D1B"/>
<path d="M74.9254 110.384C70.2061 108.277 66.3815 104.572 64.125 99.9221C64.0275 100.131 63.9095 100.329 63.795 100.529C63.284 103.386 62.8847 106.263 62.598 109.151C62.427 110.851 62.2782 112.552 62.1294 114.254C61.8713 115.952 62.0029 117.686 62.5142 119.325C63.1835 120.909 64.2423 122.298 65.5922 123.363C66.9088 124.554 68.3164 125.64 69.8022 126.612C72.7812 128.577 76.1703 129.834 79.7099 130.287C83.5299 130.723 87.3942 130.567 91.1669 129.827C93.0026 129.476 94.823 129.05 96.6236 128.549C98.2789 128.215 99.8722 127.625 101.347 126.802C102.315 126.154 103.144 125.319 103.784 124.347C104.425 123.374 104.865 122.283 105.078 121.138L105.933 116.991L107.455 109.652C102.483 111.748 97.1711 112.921 91.7791 113.113C86.0289 113.453 80.2744 112.521 74.9254 110.384Z" fill="#FFE497"/>
<path d="M61.0915 117.648C61.2965 119.218 61.8992 120.71 62.8425 121.981C63.9971 123.37 65.3226 124.607 66.7875 125.663C69.5642 127.928 72.7668 129.615 76.2062 130.622C83.8054 132.674 91.9005 131.01 99.2621 128.814C100.879 128.33 102.343 127.437 103.513 126.22C104.465 125.238 105.196 124.065 105.657 122.778C106.023 121.559 106.309 120.318 106.512 119.062L108.564 109.144C108.241 109.293 107.92 109.449 107.595 109.589L107.446 109.647C106.94 112.094 106.433 114.541 105.924 116.986L105.069 121.133C104.856 122.278 104.417 123.369 103.776 124.342C103.135 125.314 102.306 126.149 101.338 126.796C99.8637 127.62 98.2704 128.21 96.615 128.544C94.8145 129.045 92.9941 129.471 91.1584 129.821C87.3857 130.562 83.5214 130.717 79.7014 130.281C76.1622 129.829 72.7736 128.572 69.7954 126.607C68.3083 125.636 66.9 124.55 65.5836 123.358C64.2338 122.293 63.175 120.904 62.5056 119.32C61.9943 117.681 61.8627 115.946 62.1209 114.248C62.2697 112.538 62.4184 110.846 62.5894 109.146C62.8818 106.256 63.2734 103.381 63.7864 100.524C63.4166 101.17 62.9786 101.774 62.48 102.326C62.2345 103.823 62.0224 105.325 61.8439 106.831C61.6438 108.541 61.4796 110.251 61.3309 111.952C61.1224 113.512 61.0144 115.084 61.0077 116.658C61.0179 116.885 61.0077 117.114 61.0385 117.342C61.047 117.448 61.0761 117.549 61.0915 117.648Z" fill="#1D1D1B"/>
<path d="M122.128 93.1745L122.084 93.1608C122.044 93.1514 122.005 93.137 121.969 93.1181C121.859 93.0677 121.773 92.9758 121.73 92.8623C121.688 92.7489 121.692 92.6232 121.742 92.5127C121.757 92.4435 121.789 92.379 121.834 92.3246C122.641 90.9718 123.422 89.6036 124.177 88.2206C124.252 86.7516 124.225 85.2791 124.095 83.8139H118.332C118.266 83.8131 118.2 83.7991 118.139 83.7728C118.078 83.7464 118.023 83.7083 117.977 83.6607C117.931 83.613 117.895 83.5567 117.871 83.4949C117.847 83.4332 117.835 83.3673 117.836 83.3009C117.837 83.2594 117.842 83.218 117.853 83.1778C118.771 80.7924 119.878 78.4856 120.798 76.1018C120.826 76.0099 120.881 75.928 120.954 75.866C121.028 75.8039 121.118 75.7642 121.214 75.7516C121.309 75.7391 121.406 75.7541 121.493 75.7949C121.581 75.8358 121.654 75.9007 121.706 75.9821C122.287 77.0304 122.853 78.0872 123.426 79.1388C123.411 79.0584 123.4 78.9764 123.383 78.8943C122.684 75.3507 121.614 71.8905 120.191 68.571C118.888 65.3981 117.191 62.402 115.139 59.6534C113.473 57.2308 111.151 55.3328 108.445 54.1814C105.95 53.4259 103.339 53.1259 100.738 53.2956C95.115 53.3913 89.5789 54.6978 84.5065 57.126C78.6019 60.137 73.4346 64.414 69.373 69.6517C65.147 74.8967 62.7126 81.3577 62.427 88.0872C62.4256 88.1533 62.4113 88.2184 62.3848 88.2789C62.3583 88.3393 62.3201 88.394 62.2725 88.4398C62.2249 88.4855 62.1687 88.5214 62.1072 88.5454C62.0456 88.5694 61.98 88.5811 61.914 88.5797C61.8308 88.5777 61.7494 88.5561 61.6763 88.5164C60.368 87.6064 58.8635 87.0176 57.285 86.7979C55.954 86.7317 54.6332 87.0607 53.4888 87.7435C48.6769 90.5342 48.6683 97.0117 51.5719 101.206C52.9843 103.246 55.4809 105.061 58.0699 104.3C59.3212 103.856 60.4411 103.105 61.3274 102.116C62.3731 101.144 63.1505 99.9192 63.5846 98.5593C63.6907 98.1779 64.3131 98.036 64.4944 98.4413C65.6722 101.131 67.3604 103.566 69.4653 105.613C71.7671 107.765 74.524 109.371 77.5314 110.312C82.736 111.922 88.2054 112.497 93.631 112.005C98.8567 111.611 103.964 110.254 108.696 108.002C111.084 106.858 113.344 105.465 115.439 103.847C117.632 102.214 119.556 100.249 121.142 98.0223C122.121 96.5633 122.867 94.9599 123.351 93.2702C122.966 93.2463 122.581 93.2309 122.198 93.195C122.174 93.1904 122.151 93.1836 122.128 93.1745ZM58.2426 95.931C57.23 96.0309 56.2523 96.3545 55.3801 96.8783C55.2676 96.9326 55.1388 96.9425 55.0193 96.9062C54.8998 96.8699 54.7983 96.79 54.735 96.6823C54.6717 96.5747 54.6512 96.4471 54.6775 96.3251C54.7039 96.203 54.7752 96.0953 54.8773 96.0233C55.9045 95.4166 57.0543 95.0468 58.2426 94.9409C58.8804 94.8794 58.8736 95.8746 58.2426 95.9344V95.931ZM77.0287 74.8399C74.6946 75.644 72.7652 77.325 71.649 79.527C71.3566 80.0981 70.4999 79.5937 70.794 79.0259C72.0457 76.5992 74.1919 74.7541 76.779 73.8806C77.3724 73.6736 77.634 74.6347 77.0287 74.8399ZM79.1149 86.7757C79.1149 86.9076 79.0624 87.0342 78.9691 87.1275C78.8758 87.2208 78.7492 87.2733 78.6172 87.2733C78.4853 87.2733 78.3587 87.2208 78.2654 87.1275C78.1721 87.0342 78.1196 86.9076 78.1196 86.7757V83.3232C78.1196 83.1912 78.1721 83.0646 78.2654 82.9713C78.3587 82.878 78.4853 82.8256 78.6172 82.8256C78.7492 82.8256 78.8758 82.878 78.9691 82.9713C79.0624 83.0646 79.1149 83.1912 79.1149 83.3232V86.7757ZM107.422 85.5239V85.5359C106.899 87.8922 106.049 90.1639 104.898 92.2853C103.919 94.1755 102.428 95.7524 100.596 96.8363C98.7637 97.9202 96.6638 98.4675 94.5356 98.4156C90.117 98.0873 86.4405 94.9495 83.79 91.6252C83.7218 91.5547 83.6756 91.4657 83.6572 91.3693C83.6387 91.2729 83.6488 91.1732 83.6862 91.0824C83.7236 90.9916 83.7867 90.9138 83.8677 90.8583C83.9487 90.8029 84.0441 90.7722 84.1423 90.7702C92.017 90.7965 99.7673 88.8055 106.654 84.987C106.706 84.9521 106.764 84.9288 106.825 84.9186C106.912 84.8979 107.002 84.9031 107.085 84.9335C107.169 84.9639 107.241 85.0182 107.294 85.0896C107.386 85.2134 107.429 85.3668 107.415 85.5205L107.422 85.5239ZM105.442 66.4506C104.878 66.7533 104.377 65.8949 104.941 65.5956C105.74 65.1599 106.621 64.8948 107.528 64.8171C108.435 64.7394 109.348 64.8507 110.209 65.1442C110.813 65.3511 110.551 66.3104 109.946 66.1018C109.212 65.8443 108.432 65.7427 107.657 65.8034C106.881 65.864 106.127 66.0856 105.442 66.454V66.4506ZM111.186 79.397C111.309 80.0229 110.35 80.2896 110.227 79.6621C109.979 78.3989 109.731 77.1364 109.481 75.8744C109.358 75.2468 110.317 74.9818 110.44 75.6094L111.186 79.397ZM109.659 93.301C109.235 93.7832 108.534 93.077 108.956 92.5982C109.856 91.5479 110.411 90.2459 110.545 88.8692C110.68 87.4924 110.387 86.1077 109.707 84.9032C109.653 84.7907 109.643 84.6619 109.679 84.5424C109.715 84.4229 109.795 84.3215 109.903 84.2582C110.01 84.1948 110.138 84.1743 110.26 84.2007C110.382 84.2271 110.49 84.2984 110.562 84.4005C111.349 85.7961 111.684 87.4014 111.522 88.9955C111.36 90.5896 110.708 92.0943 109.655 93.3027L109.659 93.301ZM113.698 95.0281C113.416 95.6027 112.557 95.0982 112.843 94.5271C113.698 92.7657 114.129 90.8286 114.101 88.8708C114.072 86.913 113.586 84.9891 112.68 83.2531C112.381 82.6871 113.241 82.186 113.535 82.752C114.524 84.6418 115.054 86.738 115.083 88.8707C115.111 91.0034 114.636 93.1128 113.698 95.0281Z" fill="#FFE497"/>
<path d="M64.125 99.9222C66.3823 104.573 70.2082 108.277 74.9288 110.384C80.2766 112.519 86.0293 113.449 91.7774 113.108C97.1694 112.916 102.481 111.743 107.453 109.647L107.602 109.589C107.927 109.449 108.248 109.293 108.571 109.144C113.327 107.06 117.548 103.925 120.918 99.9752C122.506 98.0157 123.681 95.7546 124.372 93.3284C124.03 93.3182 123.688 93.2908 123.346 93.2703C122.862 94.9599 122.116 96.5634 121.136 98.0224C119.551 100.249 117.627 102.214 115.434 103.847C113.339 105.465 111.079 106.858 108.691 108.002C103.959 110.254 98.8516 111.612 93.6259 112.005C88.2003 112.497 82.7309 111.922 77.5263 110.312C74.5189 109.371 71.762 107.765 69.4602 105.613C67.3552 103.566 65.6671 101.131 64.4892 98.4413C64.308 98.0361 63.6855 98.178 63.5795 98.5593C63.1454 99.9193 62.368 101.144 61.3223 102.116C60.436 103.105 59.316 103.856 58.0648 104.3C55.4741 105.061 52.9775 103.246 51.5668 101.206C48.6598 97.0118 48.6717 90.5343 53.4837 87.7436C54.6281 87.0608 55.9489 86.7318 57.2799 86.7979C58.8608 87.0166 60.3677 87.6054 61.678 88.5165C61.7947 88.579 61.931 88.5939 62.0585 88.5583C62.186 88.5226 62.2947 88.439 62.362 88.325C62.403 88.2524 62.4248 88.1706 62.4253 88.0873C62.7124 81.3577 65.1472 74.897 69.373 69.6518C73.4346 64.414 78.6019 60.1371 84.5065 57.126C89.5789 54.6978 95.115 53.3913 100.738 53.2956C103.339 53.1259 105.95 53.426 108.445 54.1814C111.151 55.3329 113.473 57.2308 115.139 59.6534C117.191 62.4021 118.888 65.3982 120.191 68.571C121.617 71.8952 122.687 75.3606 123.385 78.9097C123.402 78.9918 123.412 79.0807 123.428 79.1542C123.891 80.0081 124.364 80.8551 124.849 81.6953L124.798 81.3003C123.99 75.6523 122.26 70.1752 119.678 65.0878C119.481 64.7064 119.274 64.3303 119.067 63.9541C118.482 62.8798 117.854 61.829 117.186 60.8042C115.483 58.0216 113.153 55.6757 110.382 53.954C108.078 52.8348 105.544 52.2702 102.983 52.3055C100.103 52.2317 97.2219 52.4494 94.3852 52.9553C91.6632 53.3932 88.9989 54.1349 86.4422 55.1664C80.1707 57.885 74.5997 61.9946 70.151 67.1842C65.5019 72.2855 62.5229 78.6857 61.613 85.5274C61.5463 86.102 61.5053 86.6765 61.4762 87.2545C60.3382 86.5522 59.0754 86.0761 57.757 85.8523C57.3165 85.8008 56.8721 85.7922 56.43 85.8267C56.1096 85.8477 55.7909 85.8894 55.4758 85.9515C54.9322 86.0572 54.401 86.2188 53.8906 86.4337C52.6132 86.9911 51.4858 87.8429 50.6005 88.9193C49.7151 89.9957 49.097 91.2663 48.7966 92.6273C48.2086 95.6157 48.7947 98.7158 50.433 101.283C51.8763 103.6 54.4601 105.755 57.3585 105.445C58.9967 105.184 60.5038 104.392 61.6489 103.192C61.9396 102.918 62.2184 102.629 62.4885 102.337C62.9871 101.784 63.4251 101.18 63.795 100.534C63.9061 100.329 64.0241 100.131 64.125 99.9222Z" fill="#1D1D1B"/>
<path d="M124.177 88.236C124.519 87.6239 124.861 87.0151 125.203 86.4098C125.195 85.5479 125.153 84.6878 125.078 83.8294H124.095C124.225 85.2946 124.252 86.767 124.177 88.236ZM78.1196 83.3232V86.7757C78.1196 86.9077 78.1721 87.0343 78.2654 87.1276C78.3587 87.2209 78.4853 87.2733 78.6173 87.2733C78.7492 87.2733 78.8758 87.2209 78.9691 87.1276C79.0624 87.0343 79.1149 86.9077 79.1149 86.7757V83.3232C79.1149 83.1912 79.0624 83.0647 78.9691 82.9714C78.8758 82.878 78.7492 82.8256 78.6173 82.8256C78.4853 82.8256 78.3587 82.878 78.2654 82.9714C78.1721 83.0647 78.1196 83.1912 78.1196 83.3232ZM109.481 75.8745L110.227 79.6621C110.35 80.2897 111.309 80.0229 111.186 79.3971C110.936 78.1351 110.688 76.8725 110.44 75.6094C110.317 74.9818 109.358 75.24 109.481 75.8745ZM76.7636 73.8806C74.1765 74.7541 72.0304 76.5992 70.7786 79.026C70.4896 79.5937 71.3463 80.0982 71.6336 79.527C72.7506 77.3244 74.6813 75.6432 77.0167 74.8399C77.634 74.6347 77.3724 73.6737 76.7636 73.8806ZM110.209 65.1408C109.348 64.8474 108.435 64.736 107.528 64.8137C106.621 64.8914 105.74 65.1565 104.941 65.5922C104.377 65.8949 104.878 66.7533 105.442 66.4472C106.127 66.0788 106.881 65.8572 107.657 65.7966C108.432 65.7359 109.212 65.8376 109.946 66.095C110.551 66.307 110.808 65.3477 110.209 65.1408ZM107.301 85.0931C107.248 85.0217 107.176 84.9674 107.092 84.937C107.009 84.9066 106.919 84.9014 106.832 84.9221C106.771 84.9322 106.713 84.9556 106.661 84.9905C99.7694 88.813 92.0129 90.8052 84.132 90.7771C84.0335 90.7784 83.9375 90.8085 83.856 90.8638C83.7745 90.9192 83.7111 90.9972 83.6736 91.0883C83.636 91.1794 83.6261 91.2795 83.645 91.3762C83.6639 91.4728 83.7107 91.5618 83.7797 91.6321C86.4388 94.9564 90.1067 98.0942 94.5339 98.4225C96.6621 98.4743 98.762 97.9271 100.594 96.8432C102.426 95.7593 103.917 94.1823 104.897 92.2922C106.048 90.1708 106.897 87.8991 107.42 85.5428V85.5308C107.435 85.3771 107.391 85.2237 107.299 85.0999L107.301 85.0931ZM58.2426 94.929C57.0543 95.0348 55.9045 95.4046 54.8773 96.0114C54.7752 96.0834 54.7039 96.1911 54.6776 96.3131C54.6512 96.4352 54.6717 96.5628 54.735 96.6704C54.7983 96.7781 54.8998 96.858 55.0193 96.8943C55.1388 96.9306 55.2676 96.9207 55.3801 96.8664C56.2533 96.3467 57.231 96.0273 58.2426 95.9311C58.8736 95.8626 58.8804 94.8674 58.2426 94.929ZM109.707 84.9016C110.387 86.1061 110.68 87.4908 110.545 88.8675C110.411 90.2442 109.856 91.5462 108.956 92.5966C108.534 93.0754 109.235 93.7816 109.659 93.2994C110.711 92.091 111.363 90.5863 111.526 88.9921C111.688 87.398 111.352 85.7928 110.565 84.3971C110.493 84.295 110.386 84.2237 110.263 84.1973C110.141 84.171 110.014 84.1915 109.906 84.2548C109.799 84.3181 109.719 84.4196 109.682 84.5391C109.646 84.6586 109.656 84.7873 109.71 84.8998L109.707 84.9016ZM112.677 83.2531C113.583 84.9891 114.069 86.9131 114.097 88.8708C114.125 90.8286 113.695 92.7658 112.839 94.5271C112.557 95.0983 113.416 95.6027 113.694 95.0282C114.633 93.1129 115.107 91.0035 115.079 88.8707C115.051 86.738 114.521 84.6419 113.532 82.7521C113.238 82.1861 112.378 82.6871 112.677 83.2531Z" fill="#1D1D1B"/>
<path d="M125.661 83.0718C125.382 82.617 125.114 82.1553 124.847 81.6936C124.363 80.8523 123.89 80.0052 123.428 79.1525C122.855 78.1009 122.289 77.0441 121.708 75.9959C121.657 75.9138 121.583 75.8482 121.496 75.8069C121.408 75.7656 121.311 75.7503 121.215 75.763C121.119 75.7756 121.029 75.8156 120.955 75.8781C120.882 75.9407 120.828 76.0231 120.8 76.1156C119.88 78.4993 118.773 80.8061 117.855 83.1898C117.838 83.2535 117.834 83.3199 117.842 83.3852C117.851 83.4506 117.872 83.5136 117.905 83.5706C117.938 83.6276 117.982 83.6776 118.035 83.7176C118.087 83.7576 118.147 83.7868 118.211 83.8037C118.251 83.8137 118.292 83.8195 118.334 83.8208H125.23C125.365 83.815 125.492 83.7566 125.583 83.658C125.675 83.5595 125.725 83.4288 125.721 83.2941C125.718 83.2165 125.697 83.1406 125.661 83.0718ZM130.815 92.4426C129.546 90.1016 128.073 87.8773 126.412 85.7959C126.341 85.6826 126.229 85.6014 126.099 85.5695C125.97 85.5376 125.833 85.5574 125.717 85.6249C125.647 85.6667 125.588 85.7255 125.546 85.7959C125.429 85.9942 125.319 86.1994 125.205 86.4012C124.855 87.0066 124.513 87.6153 124.179 88.2275C123.414 89.5955 122.65 90.9789 121.836 92.3315C121.79 92.3859 121.759 92.4504 121.743 92.5196C121.694 92.6301 121.69 92.7558 121.732 92.8692C121.775 92.9827 121.861 93.0746 121.971 93.1249C122.007 93.1439 122.046 93.1583 122.085 93.1677C122.1 93.1738 122.115 93.1784 122.13 93.1814C122.151 93.1902 122.174 93.1971 122.197 93.2019C122.58 93.2378 122.964 93.2532 123.349 93.2771C123.691 93.2976 124.033 93.325 124.375 93.3353C126.381 93.402 128.395 93.3199 130.393 93.1985C130.525 93.1932 130.65 93.1368 130.742 93.0411C130.834 92.9455 130.885 92.818 130.885 92.6855C130.882 92.5999 130.858 92.5165 130.815 92.4426ZM129.57 106.191C128.36 103.201 126.828 100.352 125.001 97.6941C124.964 97.6302 124.912 97.5764 124.849 97.5374C124.787 97.4983 124.716 97.4752 124.642 97.47C124.544 97.4365 124.437 97.4419 124.344 97.4853C124.25 97.5286 124.177 97.6065 124.139 97.7026C122.799 100.586 120.936 103.192 119.596 106.082C119.564 106.139 119.543 106.203 119.536 106.268C119.528 106.334 119.533 106.4 119.551 106.464C119.57 106.528 119.6 106.587 119.641 106.639C119.682 106.69 119.733 106.734 119.791 106.766C119.862 106.806 119.943 106.828 120.025 106.829H129.088C129.154 106.828 129.22 106.814 129.281 106.788C129.342 106.762 129.397 106.724 129.443 106.676C129.489 106.628 129.525 106.572 129.55 106.51C129.574 106.448 129.585 106.382 129.584 106.316C129.584 106.274 129.579 106.232 129.57 106.191Z" fill="#AC47F5"/>
<path d="M161.901 157.447C158.809 159.095 155.806 160.907 152.905 162.874C152.373 163.226 152.871 164.088 153.406 163.729C157.769 160.675 162.447 158.099 167.359 156.044C167.592 155.954 167.821 155.855 168.057 155.767C168.409 155.637 168.765 155.519 169.121 155.4C173.253 154.093 177.509 153.214 181.821 152.777C185.32 152.352 188.832 152.019 192.334 151.65C192.963 151.583 192.97 150.588 192.334 150.654C186.623 151.256 180.855 151.68 175.208 152.775C173.49 153.106 171.792 153.532 170.121 154.05C169.56 154.223 169.003 154.406 168.449 154.601C166.201 155.392 164.013 156.343 161.901 157.447ZM217.411 148.401C222.323 148.389 227.035 146.458 230.542 143.019C232.048 141.331 233.187 139.349 233.887 137.198C234.588 135.048 234.834 132.775 234.612 130.524C234.339 127.484 233.528 124.517 232.218 121.761C231.951 121.179 231.095 121.684 231.363 122.262C233.552 126.599 234.177 131.559 233.131 136.304C232.588 138.311 231.615 140.176 230.28 141.77C228.945 143.365 227.28 144.65 225.4 145.538C222.891 146.694 220.173 147.327 217.411 147.399C216.773 147.433 216.77 148.428 217.411 148.401Z" fill="#1D1D1B"/>
<path d="M170.119 179.926C167.595 180.166 165.075 180.437 162.558 180.74C162.531 180.746 162.505 180.754 162.481 180.766C162.409 180.774 162.34 180.797 162.279 180.836C162.218 180.874 162.167 180.925 162.129 180.986C159.671 184.709 158.919 189.516 158.558 193.875C158.426 195.463 158.359 197.057 158.358 198.651V199.372C158.375 202.173 158.685 204.965 159.281 207.702C159.459 208.525 159.698 209.335 159.996 210.123C160.089 210.481 160.248 210.817 160.465 211.117C160.731 211.285 161.032 211.39 161.345 211.423C161.672 211.512 162 211.594 162.327 211.693C164.611 212.329 166.884 213.006 169.167 213.683C169.273 213.476 169.372 213.268 169.48 213.063C169.519 213 169.573 212.948 169.637 212.91C169.7 212.873 169.772 212.851 169.846 212.847C169.909 212.83 169.976 212.826 170.041 212.835L172.166 213.386L185.817 216.92C184.267 214.288 183.774 211.166 184.437 208.184C184.747 206.732 185.415 204.926 187.118 204.747C187.666 204.712 188.213 204.823 188.704 205.067C189.196 205.311 189.614 205.68 189.918 206.137C189.743 199.91 190.404 193.687 191.883 187.635C192.471 185.395 193.593 181.65 195.728 179.858C196.27 179.388 196.925 179.066 197.628 178.924C188.446 178.622 179.255 178.956 170.119 179.926Z" fill="#FF8684"/>
<path d="M219.639 106.675C216.932 103.976 213.805 101.735 210.38 100.037C207.163 98.5676 203.815 97.4031 200.381 96.5586C198.18 95.967 195.969 95.4044 193.77 94.799C193.645 94.7684 193.512 94.788 193.4 94.8537C193.289 94.9194 193.207 95.026 193.173 95.1508C193.139 95.2756 193.154 95.4089 193.217 95.5224C193.279 95.6358 193.383 95.7205 193.507 95.7583C200.455 97.6684 207.712 99.0569 213.794 103.14C215.634 104.393 217.355 105.812 218.936 107.378C219.393 107.826 220.098 107.123 219.639 106.675ZM237.416 112.8L244.704 103.501C245.094 103.004 244.395 102.304 244 102.798L236.714 112.096C236.322 112.595 237.021 113.303 237.416 112.8ZM253.063 113.556L240.648 115.246C240.017 115.333 240.286 116.29 240.913 116.205L253.328 114.515C253.959 114.428 253.69 113.471 253.063 113.556ZM333.409 240.315C332.925 236.364 331.696 232.541 329.785 229.049C327.609 224.674 324.751 220.684 322.508 216.348C321.622 214.528 320.861 212.651 320.23 210.728C318.303 205.296 316.654 199.761 315.061 194.22C314.87 194.667 314.656 195.103 314.421 195.528C311.777 200.316 306.43 203.6 300.9 202.054C300.688 202.637 300.461 203.215 300.208 203.781C300.18 204.69 300.151 205.6 300.137 206.517C300.078 210.547 300.197 214.578 300.17 218.606C300.16 222.492 299.869 226.372 299.301 230.216C299.247 230.575 299.192 230.93 299.13 231.281C303.471 233.273 307.224 236.353 310.023 240.223C313.566 244.939 316.517 250.072 318.812 255.507C319.928 258.044 320.963 260.616 321.918 263.219C322.055 263.586 322.2 263.949 322.333 264.316C323.539 262.685 324.898 261.167 326.104 259.528C327.962 257.047 329.532 254.363 330.784 251.527C331.545 249.782 332.178 247.983 332.677 246.146C333.255 244.259 333.503 242.286 333.409 240.315ZM310.1 175.959C309.509 173.106 308.613 170.324 307.429 167.662C305.478 163.799 302.8 160.35 299.541 157.503C298.034 156.118 296.383 154.897 294.618 153.861C292.842 152.874 290.964 152.086 289.016 151.511C285.011 150.303 280.818 149.848 276.647 150.169C275.768 150.239 274.893 150.355 274.024 150.511C268.001 146.224 259.679 145.837 252.77 147.982C249.205 149.28 245.945 151.299 243.194 153.914C239.256 157.45 235.705 161.395 232.601 165.682C228.764 170.882 225.36 176.388 222.423 182.144C220.615 185.672 218.963 189.278 217.473 192.951C217.587 192.997 217.707 193.035 217.815 193.092C218.696 193.56 219.372 194.338 219.714 195.276C220.056 196.214 220.038 197.245 219.665 198.17C219.322 199.152 218.743 200.033 217.978 200.738C217.213 201.442 216.287 201.947 215.28 202.208C215.226 202.218 215.171 202.208 215.109 202.223C214.76 202.27 214.405 202.274 214.054 202.235C213.653 203.483 213.27 204.737 212.907 205.997C213.213 206.162 213.499 206.359 213.762 206.587C214.085 206.864 214.368 207.184 214.602 207.539C215.18 208.563 215.33 209.775 215.018 210.909C214.705 212.043 213.956 213.007 212.934 213.589C212.6 213.778 212.242 213.924 211.871 214.022C211.527 214.109 211.174 214.159 210.819 214.169C210.044 217.677 209.426 221.217 208.965 224.78C208.456 228.718 208.16 232.681 208.08 236.652C208.041 238.643 208.059 240.633 208.133 242.623C208.156 244.424 208.321 246.221 208.625 247.996C209.176 250.601 210.296 253.052 211.903 255.174C213.51 257.296 215.566 259.038 217.924 260.274C218.292 260.481 218.668 260.669 219.042 260.857C219.253 260.587 219.465 260.322 219.672 260.052C221.394 257.793 223.028 255.464 224.711 253.179C229.798 246.273 235.334 239.417 242.572 234.653C244.785 233.191 247.155 231.982 249.638 231.048C249.306 229.484 249.113 227.864 248.93 226.301C248.678 224.094 248.54 221.876 248.516 219.655C248.497 218.264 248.516 216.876 248.547 215.486C248.08 215.18 247.611 214.877 247.167 214.537C242.761 211.051 239.568 206.263 238.042 200.857C236.437 195.377 236.279 189.575 237.586 184.017C238.239 181.168 239.413 178.465 241.048 176.043C242.721 173.639 244.737 171.494 247.033 169.677C249.363 167.754 251.945 166.16 254.708 164.938C257.377 163.794 260.188 163.014 263.065 162.619C268.438 161.901 273.902 162.296 279.116 163.779C281.372 164.401 283.56 165.246 285.649 166.299C287.695 167.361 289.592 168.688 291.292 170.246C296.119 174.465 299.633 179.981 301.417 186.139C303.287 183.801 305.632 181.474 308.77 181.351C309.36 181.33 309.95 181.396 310.521 181.546C310.914 181.649 311.297 181.791 311.663 181.968C311.133 179.955 310.599 177.96 310.1 175.959ZM224.316 208.62C223.936 209.133 223.073 208.63 223.461 208.117C224.955 205.886 225.576 203.184 225.207 200.525C224.853 197.645 223.786 194.9 222.102 192.538C221.741 192.006 222.603 191.512 222.957 192.035C224.731 194.55 225.848 197.468 226.206 200.525C226.583 203.362 225.915 206.24 224.325 208.62H224.316ZM229.292 210.356C228.95 210.896 228.095 210.397 228.437 209.853C229.278 208.534 229.908 207.092 230.303 205.578C230.953 202.902 230.892 200.102 230.127 197.457C229.362 194.811 227.919 192.412 225.941 190.496C225.484 190.046 226.189 189.343 226.645 189.793C227.858 190.98 228.89 192.338 229.709 193.823C231.113 196.367 231.814 199.238 231.742 202.142C231.67 205.046 230.826 207.879 229.297 210.349L229.292 210.356ZM234.521 212.096C234.212 212.657 233.353 212.155 233.666 211.594C234.589 209.934 235.264 208.148 235.67 206.293C236.337 202.995 236.19 199.585 235.243 196.357C234.295 193.129 232.576 190.181 230.233 187.767C229.79 187.303 230.493 186.6 230.936 187.064C232.357 188.541 233.57 190.206 234.542 192.011C236.208 195.096 237.079 198.548 237.076 202.055C237.073 205.562 236.196 209.012 234.525 212.095L234.521 212.096ZM244.482 121.53C243.86 121.381 243.595 122.34 244.217 122.487L252.531 124.457C253.154 124.606 253.419 123.647 252.794 123.5L244.482 121.53ZM202.052 189.323C201.43 188.671 201.044 187.829 200.956 186.932C200.869 186.035 201.084 185.134 201.568 184.374C201.633 184.256 201.712 184.15 201.783 184.032C201.536 183.282 201.227 182.554 200.86 181.855C200.608 181.357 200.287 180.897 199.908 180.487C199.776 180.34 199.625 180.213 199.458 180.109C199.331 180.011 199.182 179.946 199.023 179.919C197.194 179.511 195.8 180.986 194.904 182.513C193.718 184.731 192.883 187.12 192.43 189.595C191.807 192.521 191.388 195.487 191.175 198.471C191.273 198.444 191.378 198.449 191.474 198.487H191.493C191.512 198.491 191.531 198.496 191.549 198.504C192.474 199.055 193.252 199.82 193.819 200.736C194.386 201.651 194.725 202.689 194.807 203.762C194.93 204.882 194.648 206.009 194.012 206.939C193.375 207.869 192.426 208.539 191.337 208.829C191.276 208.842 191.213 208.842 191.152 208.829C191.454 209.983 191.893 211.097 192.461 212.146C192.8 212.83 193.299 213.422 193.915 213.872C194.531 214.323 195.246 214.62 196 214.737C196.859 214.72 197.7 214.489 198.446 214.064C199.193 213.64 199.821 213.036 200.275 212.307C201.197 210.962 201.864 209.459 202.243 207.873C202.876 204.51 203.21 201.098 203.24 197.676C203.248 197.566 203.291 197.461 203.362 197.376C203.434 197.292 203.53 197.232 203.637 197.206C203.628 194.829 203.461 192.455 203.136 190.101C202.74 189.894 202.375 189.632 202.052 189.323ZM200.467 199.88C199.958 200.335 199.342 200.655 198.677 200.811C198.012 200.966 197.318 200.952 196.66 200.769C196.039 200.577 195.463 200.261 194.965 199.842C194.468 199.422 194.06 198.907 193.765 198.328C193.177 196.901 193.039 195.328 193.369 193.82C193.491 192.998 193.825 192.221 194.337 191.566C194.849 190.911 195.522 190.401 196.291 190.084C197.335 189.692 198.472 189.62 199.557 189.877C200.162 190.059 200.723 190.361 201.207 190.766C201.692 191.171 202.089 191.67 202.375 192.233C202.963 193.537 203.095 195 202.749 196.388C202.403 197.776 201.599 199.006 200.467 199.88ZM233.056 117.183C232.718 115.515 231.768 114.034 230.392 113.033C229.047 112.016 227.575 111.181 226.012 110.548C224.375 109.921 222.871 108.989 221.582 107.8C221.485 107.709 221.356 107.66 221.224 107.664C221.091 107.668 220.965 107.724 220.874 107.821C220.817 107.882 220.776 107.956 220.755 108.037C220.733 108.118 220.732 108.203 220.751 108.284C221.244 111.197 222.106 114.036 223.316 116.731C224.231 118.713 225.679 121.379 228.027 121.884C228.615 121.952 229.211 121.904 229.78 121.741C230.35 121.579 230.882 121.307 231.346 120.939C231.81 120.571 232.197 120.115 232.486 119.598C232.774 119.081 232.957 118.512 233.025 117.923C233.053 117.678 233.061 117.43 233.049 117.183H233.056ZM228.952 115.085L230.279 116.078C230.792 116.458 230.289 117.32 229.778 116.933L228.456 115.938C227.943 115.564 228.437 114.7 228.948 115.083L228.952 115.085ZM214.911 147.469C213.927 147.529 212.941 147.394 212.011 147.069C211.08 146.745 210.223 146.238 209.49 145.579C208.085 144.455 206.485 143.598 204.771 143.05C204.023 142.815 203.228 142.773 202.46 142.93C201.692 143.087 200.977 143.436 200.381 143.946C199.415 144.973 198.555 146.096 197.816 147.298C197.332 148.013 196.799 148.694 196.219 149.334C195.808 149.832 195.272 150.212 194.665 150.432C194.59 150.443 194.521 150.475 194.463 150.523C194.394 150.569 194.339 150.633 194.304 150.709C194.27 150.784 194.257 150.868 194.268 150.95V151.014C194.268 151.036 194.268 151.051 194.282 151.07C194.309 151.177 194.374 151.272 194.465 151.335L194.53 151.369C194.553 151.385 194.579 151.399 194.605 151.41C196.492 151.73 198.302 152.401 199.942 153.389C200.678 153.976 201.382 154.604 202.048 155.27C202.549 155.858 203.184 156.316 203.899 156.607C207.382 157.748 209.812 154.069 211.66 151.783C212.208 151.099 212.768 150.436 213.37 149.811C213.857 149.229 214.466 148.762 215.154 148.443C215.281 148.408 215.389 148.324 215.454 148.209C215.519 148.094 215.536 147.958 215.501 147.831C215.466 147.704 215.382 147.596 215.267 147.531C215.152 147.466 215.016 147.449 214.889 147.484L214.911 147.469ZM205.371 145.542C204.099 145.654 202.916 146.243 202.06 147.192C201.628 147.665 200.925 146.959 201.358 146.489C202.401 145.357 203.836 144.663 205.371 144.548C206.011 144.493 206.005 145.489 205.371 145.542ZM151.048 164.394C147.896 165.368 144.818 166.568 141.839 167.985C140.394 168.667 139.041 169.528 137.812 170.55C136.858 171.293 136.177 172.33 135.875 173.5C135.798 174.228 135.907 174.963 136.191 175.637C136.476 176.312 136.927 176.902 137.503 177.354C138.362 178.207 139.485 178.744 140.689 178.876C141.825 178.912 142.94 178.567 143.857 177.895C146.256 175.979 148.134 173.491 149.317 170.658C150.214 168.828 150.996 166.943 151.658 165.015C151.692 164.887 151.673 164.75 151.606 164.636C151.54 164.521 151.431 164.437 151.303 164.403C151.22 164.378 151.132 164.375 151.048 164.394ZM141.93 170.417C140.398 171.219 139.154 172.481 138.375 174.025C138.086 174.596 137.228 174.092 137.52 173.524C138.382 171.829 139.749 170.443 141.432 169.559C142 169.259 142.501 170.118 141.93 170.417Z" fill="#1D1D1B"/>
<path d="M194.807 203.767C194.725 202.694 194.386 201.656 193.819 200.741C193.252 199.825 192.474 199.06 191.549 198.509C191.531 198.501 191.512 198.496 191.493 198.492H191.474C191.378 198.454 191.273 198.449 191.175 198.476L191.132 198.492C191.049 198.518 190.975 198.567 190.919 198.634C190.863 198.7 190.828 198.782 190.817 198.868V198.907C190.816 198.92 190.816 198.932 190.817 198.945L190.73 207.587C190.892 208.006 191.036 208.427 191.168 208.849C191.229 208.862 191.292 208.862 191.352 208.849C192.441 208.556 193.389 207.882 194.023 206.949C194.657 206.017 194.935 204.887 194.807 203.767ZM202.375 192.233C202.089 191.67 201.692 191.171 201.207 190.766C200.723 190.361 200.162 190.059 199.557 189.877C198.472 189.62 197.335 189.692 196.291 190.084C195.522 190.4 194.849 190.911 194.337 191.566C193.824 192.221 193.491 192.998 193.369 193.82C193.039 195.328 193.177 196.9 193.765 198.328C194.06 198.907 194.468 199.422 194.965 199.842C195.463 200.261 196.039 200.576 196.66 200.769C197.318 200.952 198.012 200.966 198.677 200.811C199.342 200.655 199.958 200.335 200.467 199.88C201.599 199.006 202.403 197.776 202.749 196.388C203.095 195 202.963 193.537 202.375 192.233ZM325.584 274.195C324.589 270.872 323.506 267.577 322.335 264.31C322.202 263.942 322.056 263.579 321.919 263.212C320.965 260.609 319.929 258.037 318.814 255.5C316.519 250.065 313.567 244.932 310.025 240.216C307.225 236.346 303.473 233.266 299.132 231.274C299.074 231.608 299.005 231.938 298.927 232.262C298.757 233.047 298.459 233.798 298.044 234.485C297.303 235.618 296.365 236.609 295.276 237.413C292.496 239.407 289.381 240.886 286.08 241.78C282.308 242.909 278.425 243.63 274.499 243.931C270.516 244.364 266.487 244.061 262.613 243.037C259.431 242.135 256.49 240.536 254.003 238.355C252.209 236.869 250.849 234.925 250.07 232.729C249.999 232.493 249.947 232.249 249.886 232.009C249.804 231.688 249.715 231.37 249.646 231.043C247.164 231.977 244.794 233.186 242.581 234.648C235.342 239.412 229.807 246.267 224.72 253.174C223.037 255.459 221.402 257.791 219.68 260.047C219.473 260.317 219.261 260.582 219.051 260.852C218.765 261.216 218.487 261.587 218.196 261.948C215.983 265.015 212.916 267.361 209.378 268.696C203.051 270.748 197.707 266.115 195.698 260.39C194.757 257.412 194.193 254.328 194.02 251.209C193.722 248.026 193.642 244.827 193.781 241.633C193.869 239.805 194.06 237.983 194.355 236.177V236.11C194.318 236.202 194.255 236.281 194.174 236.337C194.092 236.393 193.996 236.423 193.897 236.425C191.482 236.336 189.064 236.324 186.648 236.389C178.122 236.606 169.641 237.586 161.149 238.323C161.096 238.33 161.043 238.328 160.991 238.315C160.94 238.302 160.892 238.279 160.849 238.247C160.807 238.215 160.771 238.175 160.744 238.129C160.717 238.084 160.699 238.033 160.692 237.981C160.668 237.914 160.66 237.844 160.666 237.774C160.666 237.789 160.643 237.796 160.639 237.813C157.366 251.084 154.977 265.373 158.874 278.768C160.53 284.646 163.383 290.118 167.253 294.842C171.414 299.766 176.794 303.513 182.855 305.707C190.287 308.21 198.102 309.377 205.94 309.154H332.959C333.092 309.15 333.218 309.094 333.311 308.998C333.404 308.902 333.455 308.774 333.455 308.641C333.453 308.603 333.448 308.564 333.44 308.527C331.524 296.933 328.901 285.468 325.584 274.195ZM297.747 299.541L298.089 274.575C298.096 274.448 298.152 274.329 298.244 274.242C298.337 274.155 298.459 274.106 298.586 274.106C298.713 274.106 298.835 274.155 298.927 274.242C299.019 274.329 299.075 274.448 299.082 274.575L298.983 281.724L298.641 306.69C298.641 306.822 298.589 306.949 298.495 307.042C298.402 307.135 298.276 307.188 298.144 307.188C298.012 307.188 297.885 307.135 297.792 307.042C297.698 306.949 297.646 306.822 297.646 306.69L297.747 299.541ZM218.336 193.413C218.174 193.29 218.003 193.179 217.823 193.083C217.712 193.026 217.592 192.989 217.481 192.943C216.614 192.622 215.68 192.528 214.766 192.67C213.853 192.811 212.99 193.183 212.261 193.75C211.427 194.451 210.819 195.382 210.511 196.426C210.202 197.47 210.208 198.582 210.527 199.624C210.91 200.495 211.566 201.219 212.395 201.686C213.225 202.154 214.184 202.339 215.128 202.214C215.183 202.206 215.238 202.214 215.299 202.199C216.306 201.938 217.232 201.433 217.997 200.729C218.761 200.025 219.341 199.143 219.684 198.162C220.022 197.333 220.073 196.416 219.829 195.555C219.584 194.694 219.059 193.94 218.336 193.413ZM206.59 181.788C205.852 181.66 205.094 181.713 204.382 181.945C203.67 182.176 203.025 182.578 202.503 183.115C202.232 183.397 201.991 183.705 201.783 184.037C201.712 184.15 201.633 184.256 201.568 184.379C201.084 185.139 200.869 186.04 200.956 186.937C201.044 187.834 201.43 188.676 202.052 189.328C202.373 189.641 202.736 189.908 203.131 190.119C203.464 190.295 203.816 190.435 204.179 190.535C204.903 190.766 205.673 190.815 206.421 190.676C207.168 190.537 207.869 190.215 208.462 189.74C209.055 189.264 209.52 188.649 209.817 187.949C210.114 187.249 210.233 186.487 210.164 185.73C210.121 184.76 209.74 183.835 209.087 183.115C208.435 182.396 207.552 181.926 206.59 181.788Z" fill="#FEE253"/>
<path d="M208.008 206.376C208.021 205.987 208.039 205.595 208.045 205.209C207.953 203.88 207.556 202.59 206.885 201.44C206.213 200.289 205.286 199.309 204.174 198.575C204.189 202.017 203.799 205.449 203.013 208.8C202.139 211.676 200.294 215.152 197.013 215.686C193.774 216.212 191.653 213.333 190.65 210.646C190.08 209.126 189.94 206.965 188.413 206.046C188.072 205.794 187.645 205.687 187.225 205.75C186.806 205.812 186.428 206.038 186.175 206.378C185.748 207.053 185.471 207.811 185.362 208.601C185.021 210.13 185.029 211.716 185.384 213.242C185.739 214.767 186.433 216.193 187.414 217.415C187.449 217.453 187.478 217.496 187.5 217.543C188.004 218.179 188.63 218.709 189.34 219.102C190.05 219.495 190.831 219.744 191.638 219.834C192.269 219.903 192.272 220.898 191.638 220.829C189.733 220.633 187.985 219.689 186.775 218.205L184.807 217.692L170.164 213.899C169.435 215.298 168.756 216.723 168.127 218.174C165.503 224.355 163.387 230.74 161.8 237.266C163.975 237.076 166.15 236.877 168.324 236.671C176.677 235.72 185.083 235.302 193.49 235.419C194.019 232.316 194.999 229.307 196.397 226.486C197.749 223.81 199.607 221.423 201.869 219.455C203.043 218.628 204.163 217.727 205.221 216.756C206.055 215.772 206.668 214.62 207.018 213.379C207.1 213.11 207.151 212.83 207.221 212.556C206.744 211.966 206.397 211.28 206.204 210.545C206.07 209.751 206.17 208.934 206.49 208.194C206.81 207.455 207.337 206.823 208.008 206.376Z" fill="#FFCEB6"/>
<path d="M161.142 238.309C169.634 237.575 178.115 236.599 186.641 236.375C189.058 236.31 191.476 236.322 193.892 236.411C193.99 236.41 194.086 236.379 194.168 236.323C194.249 236.267 194.312 236.188 194.348 236.096C194.357 236.081 194.365 236.064 194.371 236.047C195.179 229.895 198.13 224.224 202.705 220.033C203.919 219.201 205.058 218.265 206.108 217.233C206.931 216.207 207.549 215.033 207.931 213.774C207.979 213.629 208.015 213.482 208.057 213.335C207.745 213.109 207.464 212.843 207.221 212.544C207.151 212.818 207.1 213.099 207.018 213.367C206.668 214.609 206.055 215.76 205.221 216.744C204.162 217.715 203.043 218.616 201.869 219.443C199.608 221.411 197.75 223.799 196.397 226.474C194.999 229.295 194.019 232.304 193.49 235.407C185.083 235.29 176.677 235.708 168.324 236.659C166.151 236.862 163.976 237.06 161.8 237.254C163.387 230.729 165.503 224.343 168.127 218.162C168.758 216.717 169.436 215.292 170.164 213.887L184.807 217.68L186.775 218.193C186.706 218.111 186.635 218.032 186.568 217.946C186.181 217.433 187.045 216.941 187.423 217.445L187.495 217.531C187.473 217.484 187.444 217.441 187.409 217.403C186.428 216.182 185.734 214.755 185.379 213.23C185.024 211.704 185.016 210.118 185.357 208.589C185.466 207.799 185.743 207.041 186.169 206.366C186.423 206.026 186.8 205.8 187.22 205.738C187.64 205.676 188.067 205.782 188.408 206.035C189.935 206.953 190.075 209.113 190.644 210.634C191.648 213.321 193.769 216.2 197.007 215.674C200.289 215.14 202.137 211.664 203.008 208.788C203.794 205.437 204.184 202.005 204.169 198.564C205.281 199.297 206.208 200.277 206.879 201.428C207.551 202.578 207.948 203.868 208.04 205.197C208.04 205.583 208.016 205.975 208.003 206.365C208.314 206.128 208.652 205.929 209.01 205.769L209.027 205.427C208.971 203.874 208.54 202.357 207.77 201.006C207 199.656 205.914 198.512 204.605 197.673C204.398 197.531 204.191 197.38 203.977 197.257C203.873 197.199 203.75 197.185 203.635 197.216C203.528 197.242 203.432 197.302 203.361 197.387C203.289 197.471 203.247 197.576 203.239 197.686C203.208 201.108 202.874 204.52 202.242 207.883C201.863 209.469 201.196 210.972 200.273 212.317C199.82 213.046 199.191 213.65 198.444 214.075C197.698 214.499 196.857 214.73 195.998 214.747C195.244 214.63 194.529 214.333 193.913 213.883C193.297 213.432 192.799 212.84 192.459 212.156C191.891 211.107 191.452 209.993 191.151 208.839C191.019 208.413 190.873 207.993 190.713 207.577C190.697 207.538 190.687 207.497 190.672 207.457C190.481 206.983 190.225 206.538 189.913 206.134C189.609 205.677 189.191 205.307 188.699 205.063C188.208 204.819 187.661 204.709 187.113 204.743C185.403 204.923 184.742 206.729 184.432 208.181C183.769 211.162 184.262 214.285 185.812 216.917L172.161 213.381L170.036 212.832C169.97 212.823 169.904 212.827 169.841 212.844C169.767 212.848 169.695 212.869 169.631 212.907C169.568 212.944 169.514 212.997 169.475 213.059C169.367 213.264 169.268 213.473 169.162 213.68C166.306 219.433 164.007 225.445 162.294 231.635C161.71 233.639 161.165 235.654 160.661 237.68C160.653 237.778 160.66 237.877 160.684 237.972C160.692 238.024 160.71 238.075 160.737 238.12C160.764 238.165 160.8 238.204 160.843 238.236C160.885 238.267 160.934 238.29 160.985 238.302C161.036 238.315 161.09 238.317 161.142 238.309Z" fill="#1D1D1B"/>
<path d="M249.602 222.259C249.71 224.527 249.952 226.786 250.327 229.025C250.486 230.536 250.849 232.018 251.406 233.43C252.535 235.619 254.195 237.49 256.233 238.872C259.046 240.844 262.267 242.158 265.657 242.716C269.549 243.278 273.505 243.247 277.388 242.623C281.124 242.152 284.795 241.261 288.332 239.968C291.276 239.016 293.966 237.407 296.198 235.262C297.016 234.431 297.615 233.411 297.942 232.292C298.154 231.368 298.315 230.432 298.422 229.491C298.572 228.465 298.698 227.439 298.8 226.413C299.493 219.573 299.105 212.683 299.182 205.817C299.129 205.913 299.079 206.011 299.023 206.105C295.831 211.256 291.098 215.272 285.495 217.58C278.989 220.191 271.951 221.195 264.975 220.508C259.563 220.229 254.286 218.72 249.545 216.096C249.491 218.15 249.51 220.206 249.602 222.259Z" fill="#FFCEB6"/>
<path d="M300.17 218.6C300.197 214.571 300.078 210.54 300.137 206.51C300.151 205.6 300.18 204.69 300.208 203.774C299.896 204.47 299.549 205.149 299.17 205.811C299.093 212.676 299.481 219.569 298.788 226.406C298.686 227.432 298.56 228.458 298.41 229.484C298.303 230.426 298.142 231.361 297.93 232.285C297.603 233.404 297.004 234.424 296.186 235.255C293.954 237.4 291.265 239.009 288.32 239.961C284.783 241.254 281.112 242.145 277.376 242.617C273.493 243.24 269.537 243.271 265.645 242.709C262.255 242.151 259.034 240.838 256.221 238.865C254.183 237.483 252.523 235.612 251.394 233.424C250.837 232.011 250.474 230.529 250.315 229.019C249.94 226.779 249.698 224.52 249.59 222.252C249.487 220.2 249.489 218.148 249.527 216.096C249.194 215.897 248.867 215.689 248.545 215.474C248.51 216.863 248.5 218.253 248.514 219.643C248.538 221.864 248.677 224.082 248.928 226.289C249.111 227.852 249.304 229.472 249.636 231.036C249.706 231.363 249.793 231.681 249.875 232.003C249.937 232.242 249.988 232.487 250.06 232.723C250.839 234.918 252.198 236.863 253.993 238.348C256.48 240.529 259.421 242.129 262.603 243.03C266.477 244.055 270.506 244.358 274.489 243.925C278.415 243.624 282.297 242.902 286.069 241.774C289.371 240.879 292.486 239.4 295.266 237.406C296.355 236.603 297.293 235.611 298.034 234.479C298.449 233.791 298.747 233.04 298.917 232.256C298.995 231.931 299.064 231.601 299.122 231.267C299.182 230.925 299.236 230.561 299.293 230.202C299.863 226.361 300.156 222.483 300.17 218.6Z" fill="#1D1D1B"/>
<path d="M214.605 207.527C214.371 207.172 214.088 206.852 213.765 206.575C213.503 206.347 213.216 206.15 212.91 205.985C211.945 205.444 210.812 205.282 209.733 205.532C209.486 205.595 209.244 205.679 209.01 205.781C208.652 205.941 208.314 206.14 208.003 206.377C207.334 206.823 206.808 207.452 206.488 208.189C206.168 208.927 206.068 209.741 206.199 210.534C206.392 211.268 206.738 211.954 207.216 212.544C207.459 212.843 207.74 213.109 208.052 213.335C208.503 213.665 209.014 213.903 209.557 214.034C209.972 214.129 210.398 214.171 210.824 214.157C211.179 214.147 211.532 214.097 211.876 214.01C212.533 213.836 213.141 213.514 213.654 213.069C214.167 212.624 214.571 212.066 214.836 211.44C215.1 210.814 215.217 210.136 215.178 209.458C215.139 208.78 214.946 208.119 214.612 207.527H214.605Z" fill="#FEE253"/>
<path d="M301.632 187.447C301.559 187.558 301.446 187.637 301.317 187.666C301.187 187.696 301.052 187.674 300.938 187.606C300.835 187.542 300.759 187.443 300.724 187.327C300.362 185.748 299.866 184.204 299.24 182.71C297.924 179.714 296.162 176.934 294.014 174.464C292.184 172.243 290.06 170.281 287.701 168.633C283.973 166.257 279.804 164.656 275.443 163.926C270.178 162.889 264.749 163.022 259.54 164.316C253.923 165.827 248.824 168.842 244.793 173.037C242.806 175.044 241.18 177.379 239.987 179.94C238.866 182.515 238.162 185.252 237.902 188.049C237.283 193.477 238.093 198.972 240.252 203.991C242.475 209.171 246.42 213.424 251.42 216.028C257.177 218.709 263.496 219.961 269.841 219.68C276.427 219.741 282.915 218.079 288.662 214.862C293.961 211.854 298.018 207.059 300.107 201.334C300.146 201.21 300.231 201.106 300.345 201.042C300.458 200.979 300.591 200.961 300.717 200.992C302.627 201.565 304.662 201.576 306.578 201.024C308.494 200.471 310.21 199.378 311.521 197.876C312.936 196.487 313.975 194.762 314.54 192.862C315.106 190.962 315.18 188.949 314.755 187.012C314.38 185.669 313.575 184.485 312.463 183.643C311.351 182.801 309.993 182.346 308.599 182.349C305.577 182.537 303.337 185.215 301.632 187.447ZM245.12 177.642C246.127 176.577 247.408 175.81 248.822 175.426C250.237 175.043 251.73 175.057 253.136 175.468C253.26 175.506 253.364 175.591 253.427 175.704C253.489 175.818 253.505 175.951 253.471 176.076C253.436 176.201 253.355 176.307 253.243 176.373C253.132 176.439 252.999 176.458 252.873 176.428C251.636 176.063 250.322 176.048 249.077 176.387C247.832 176.725 246.706 177.403 245.824 178.344C245.385 178.813 244.686 178.108 245.12 177.642ZM253.054 192.089C252.803 192.546 252.449 192.937 252.02 193.232C251.591 193.528 251.099 193.719 250.584 193.79C250.068 193.862 249.542 193.812 249.049 193.645C248.556 193.477 248.109 193.197 247.743 192.826C247.261 192.288 246.892 191.658 246.659 190.973C246.426 190.289 246.334 189.565 246.387 188.844C246.395 188.717 246.45 188.598 246.542 188.511C246.635 188.424 246.757 188.375 246.884 188.375C247.011 188.375 247.133 188.424 247.225 188.511C247.318 188.598 247.373 188.717 247.381 188.844C247.381 190.277 247.723 192.047 249.241 192.606C249.725 192.85 250.282 192.907 250.806 192.766C251.329 192.625 251.782 192.296 252.078 191.842C252.452 190.889 252.599 189.862 252.507 188.842C252.507 188.71 252.56 188.584 252.653 188.49C252.746 188.397 252.873 188.345 253.005 188.345C253.137 188.345 253.263 188.397 253.357 188.49C253.45 188.584 253.502 188.71 253.502 188.842C253.574 189.944 253.421 191.048 253.054 192.089ZM280.703 199.48C280.203 200.932 279.482 202.299 278.568 203.533C277.311 205.17 275.673 206.476 273.798 207.336C271.922 208.197 269.864 208.587 267.803 208.471C262.464 208.261 258.246 203.866 255.621 199.598C255.588 199.541 255.567 199.478 255.559 199.412C255.55 199.347 255.555 199.28 255.573 199.217C255.59 199.153 255.62 199.094 255.661 199.042C255.701 198.99 255.752 198.946 255.809 198.914C255.883 198.872 255.966 198.85 256.05 198.849C264.108 198.984 272.165 198.714 280.225 198.849C280.327 198.851 280.426 198.886 280.507 198.95C280.601 198.997 280.673 199.078 280.71 199.176C280.746 199.275 280.744 199.383 280.703 199.48ZM282.916 175.832C284.304 175.394 285.792 175.393 287.18 175.83C288.568 176.267 289.788 177.12 290.674 178.274C291.064 178.787 290.201 179.276 289.819 178.775C289.046 177.809 287.997 177.101 286.811 176.746C285.625 176.392 284.36 176.407 283.183 176.79C282.569 176.985 282.311 176.031 282.916 175.832ZM291.064 191.906C290.813 192.362 290.459 192.754 290.03 193.049C289.601 193.344 289.109 193.534 288.593 193.606C288.078 193.678 287.552 193.628 287.059 193.461C286.566 193.294 286.119 193.014 285.753 192.643C285.271 192.105 284.902 191.475 284.669 190.79C284.435 190.106 284.342 189.382 284.395 188.661C284.395 188.529 284.448 188.402 284.541 188.309C284.634 188.216 284.761 188.163 284.893 188.163C285.025 188.163 285.151 188.216 285.245 188.309C285.338 188.402 285.39 188.529 285.39 188.661C285.39 190.094 285.732 191.864 287.249 192.423C287.734 192.667 288.291 192.724 288.815 192.583C289.338 192.442 289.792 192.113 290.088 191.659C290.461 190.705 290.607 189.679 290.517 188.659C290.524 188.532 290.58 188.413 290.672 188.326C290.765 188.239 290.887 188.191 291.014 188.191C291.141 188.191 291.263 188.239 291.355 188.326C291.448 188.413 291.503 188.532 291.511 188.659C291.582 189.76 291.43 190.864 291.064 191.905V191.906ZM308.41 192.107L302.215 196.168C301.678 196.52 301.181 195.655 301.714 195.313L307.908 191.252C308.445 190.894 308.942 191.756 308.41 192.105V192.107Z" fill="#FFCEB6"/>
<path d="M308.77 181.334C305.633 181.455 303.289 183.782 301.417 186.122C299.633 179.964 296.119 174.447 291.292 170.229C289.592 168.671 287.695 167.344 285.649 166.282C283.56 165.229 281.372 164.384 279.116 163.762C273.902 162.279 268.438 161.884 263.065 162.602C260.188 162.997 257.377 163.777 254.708 164.921C251.945 166.143 249.363 167.737 247.033 169.659C244.737 171.477 242.721 173.622 241.048 176.026C239.414 178.448 238.24 181.151 237.586 183.999C236.279 189.558 236.437 195.36 238.042 200.839C239.568 206.246 242.761 211.034 247.167 214.519C247.611 214.861 248.082 215.161 248.547 215.469C248.872 215.682 249.195 215.894 249.528 216.091C254.27 218.714 259.546 220.223 264.958 220.503C271.934 221.189 278.972 220.184 285.478 217.575C291.081 215.267 295.814 211.251 299.005 206.099C299.062 206.005 299.111 205.908 299.164 205.812C299.544 205.151 299.891 204.471 300.202 203.776C300.456 203.21 300.683 202.632 300.895 202.048C306.425 203.587 311.772 200.308 314.416 195.523C314.651 195.098 314.865 194.66 315.056 194.213C315.293 193.669 315.495 193.11 315.659 192.539C316.221 190.644 316.24 188.63 315.714 186.725C315.391 185.697 314.866 184.743 314.17 183.921C313.473 183.099 312.619 182.424 311.658 181.937C311.291 181.76 310.909 181.618 310.515 181.515C309.946 181.369 309.357 181.308 308.77 181.334ZM314.755 187C315.18 188.937 315.106 190.95 314.54 192.85C313.975 194.75 312.936 196.475 311.521 197.864C310.21 199.366 308.494 200.459 306.578 201.012C304.663 201.564 302.628 201.553 300.719 200.98C300.592 200.948 300.459 200.966 300.345 201.03C300.232 201.093 300.146 201.198 300.107 201.322C298.018 207.047 293.962 211.842 288.662 214.849C282.915 218.067 276.427 219.728 269.841 219.668C263.496 219.949 257.177 218.697 251.42 216.016C246.42 213.412 242.475 209.159 240.252 203.979C238.093 198.96 237.283 193.465 237.902 188.037C238.162 185.24 238.866 182.503 239.987 179.928C241.18 177.367 242.807 175.032 244.795 173.025C248.825 168.831 253.924 165.815 259.54 164.304C264.749 163.01 270.178 162.877 275.443 163.914C279.804 164.644 283.973 166.245 287.701 168.621C290.06 170.269 292.184 172.231 294.014 174.452C296.162 176.922 297.924 179.702 299.24 182.698C299.866 184.192 300.362 185.736 300.724 187.315C300.753 187.407 300.807 187.489 300.881 187.551C300.954 187.613 301.044 187.653 301.14 187.665C301.235 187.678 301.332 187.663 301.42 187.622C301.507 187.581 301.581 187.516 301.632 187.435C303.342 185.212 305.579 182.525 308.604 182.325C310 182.323 311.359 182.779 312.471 183.624C313.583 184.468 314.387 185.655 314.76 187H314.755Z" fill="#1D1D1B"/>
<path d="M307.908 191.246L301.714 195.308C301.181 195.65 301.678 196.518 302.215 196.163L308.41 192.101C308.942 191.756 308.445 190.894 307.908 191.246ZM290.517 188.659C290.607 189.679 290.461 190.705 290.088 191.659C289.792 192.113 289.338 192.442 288.815 192.583C288.291 192.724 287.734 192.667 287.249 192.423C285.732 191.86 285.39 190.092 285.39 188.661C285.39 188.529 285.338 188.402 285.245 188.309C285.151 188.216 285.025 188.163 284.893 188.163C284.761 188.163 284.634 188.216 284.541 188.309C284.448 188.402 284.395 188.529 284.395 188.661C284.342 189.382 284.435 190.106 284.669 190.79C284.902 191.475 285.271 192.105 285.753 192.643C286.119 193.014 286.566 193.294 287.059 193.461C287.552 193.628 288.078 193.678 288.593 193.606C289.109 193.534 289.601 193.344 290.03 193.049C290.459 192.753 290.813 192.362 291.064 191.906C291.431 190.865 291.583 189.759 291.511 188.657C291.503 188.531 291.448 188.412 291.355 188.325C291.263 188.238 291.141 188.189 291.014 188.189C290.887 188.189 290.765 188.238 290.672 188.325C290.58 188.412 290.524 188.531 290.517 188.657V188.659ZM252.873 176.428C252.999 176.458 253.132 176.439 253.243 176.373C253.355 176.307 253.436 176.201 253.471 176.076C253.505 175.951 253.489 175.818 253.427 175.704C253.364 175.591 253.26 175.506 253.136 175.468C251.73 175.057 250.237 175.043 248.822 175.426C247.408 175.81 246.127 176.576 245.12 177.642C244.686 178.108 245.387 178.813 245.824 178.344C246.706 177.403 247.832 176.725 249.077 176.387C250.322 176.048 251.636 176.063 252.873 176.428ZM280.507 198.952C280.426 198.888 280.327 198.853 280.225 198.851C272.165 198.716 264.108 198.986 256.05 198.851C255.984 198.851 255.918 198.865 255.858 198.892C255.797 198.918 255.742 198.956 255.696 199.004C255.65 199.051 255.614 199.108 255.59 199.17C255.566 199.231 255.554 199.297 255.556 199.364C255.556 199.448 255.579 199.531 255.621 199.603C258.246 203.878 262.461 208.266 267.803 208.476C269.864 208.592 271.922 208.202 273.798 207.342C275.673 206.481 277.311 205.175 278.568 203.538C279.482 202.304 280.203 200.937 280.703 199.485C280.745 199.388 280.748 199.278 280.711 199.179C280.675 199.08 280.601 198.999 280.507 198.952ZM289.816 178.775C290.201 179.276 291.064 178.775 290.671 178.274C289.785 177.12 288.565 176.267 287.177 175.83C285.789 175.393 284.3 175.394 282.913 175.832C282.307 176.031 282.571 176.992 283.176 176.79C284.353 176.406 285.62 176.391 286.806 176.745C287.993 177.1 289.043 177.808 289.816 178.775ZM252.507 188.844C252.599 189.863 252.452 190.89 252.078 191.843C251.782 192.298 251.329 192.627 250.806 192.768C250.282 192.909 249.725 192.852 249.241 192.608C247.724 192.047 247.381 190.277 247.381 188.846C247.373 188.719 247.318 188.6 247.225 188.513C247.133 188.426 247.011 188.377 246.884 188.377C246.757 188.377 246.635 188.426 246.542 188.513C246.45 188.6 246.394 188.719 246.387 188.846C246.334 189.566 246.426 190.291 246.659 190.975C246.892 191.659 247.261 192.29 247.743 192.828C248.109 193.199 248.556 193.479 249.049 193.646C249.542 193.814 250.068 193.863 250.584 193.792C251.099 193.72 251.591 193.529 252.02 193.234C252.449 192.939 252.803 192.547 253.054 192.091C253.421 191.049 253.573 189.944 253.502 188.842C253.502 188.71 253.45 188.584 253.357 188.49C253.263 188.397 253.137 188.345 253.005 188.345C252.873 188.345 252.746 188.397 252.653 188.49C252.56 188.584 252.507 188.71 252.507 188.842V188.844ZM73.4872 167.115C69.9988 167.524 66.4996 167.809 62.9896 167.97C62.3517 167.999 62.3483 168.996 62.9896 168.963C69.326 168.667 75.6378 167.976 81.8885 166.896C88.6946 165.701 95.436 164.163 102.087 162.288C106.179 161.145 110.248 159.921 114.291 158.616L114.659 158.502C115.266 158.305 115.001 157.346 114.394 157.542H114.377C107.287 159.825 100.131 161.916 92.8786 163.625C86.4866 165.156 80.0122 166.322 73.4872 167.115Z" fill="#1D1D1B"/>
<path d="M135.365 187.043L134.938 187.337C134.883 187.657 134.845 187.979 134.825 188.302V188.596C141.077 184.245 146.979 179.409 152.474 174.134C158.516 168.347 164.082 162.083 169.119 155.403C168.763 155.523 168.408 155.639 168.055 155.771C167.819 155.858 167.59 155.957 167.358 156.048C163.213 161.443 158.717 166.56 153.9 171.364C148.168 177.096 141.968 182.34 135.365 187.043Z" fill="#1D1D1B"/>
<path d="M134.938 187.337C135.595 184.436 136.944 181.737 138.871 179.471C139.254 178.958 138.39 178.462 138.016 178.97C135.976 181.368 134.57 184.239 133.925 187.32C133.89 187.575 133.879 187.833 133.862 188.083C133.837 188.481 133.833 188.881 133.852 189.28C134.061 191.789 134.848 194.216 136.154 196.37C137.435 198.748 139.541 200.576 142.075 201.512C144.563 202.338 147.214 202.555 149.803 202.144C152.768 201.739 155.639 200.819 158.288 199.427C158.314 199.409 158.338 199.389 158.36 199.367V198.646C158.286 198.572 158.191 198.525 158.088 198.511C157.985 198.497 157.881 198.518 157.79 198.569C153.45 201.036 148.368 201.864 143.469 200.901C141.118 200.333 139.056 198.925 137.67 196.942C135.902 194.509 134.912 191.598 134.83 188.591V188.297C134.849 187.975 134.885 187.655 134.938 187.337Z" fill="#1D1D1B"/>
<path d="M130.87 191.139C127.647 193.047 124.341 194.806 120.952 196.416C117.673 197.97 114.32 199.362 110.904 200.585C100.306 204.395 89.1236 206.325 77.8614 206.289C73.7455 206.289 69.6363 206.017 65.5494 205.605C62.5108 205.303 59.4806 204.892 56.4351 204.663C55.8007 204.615 55.7973 203.62 56.4351 203.668C56.7481 203.692 57.0627 203.717 57.3756 203.747C60.5391 204.029 63.6907 204.444 66.8525 204.737C71.0255 205.138 75.2168 205.32 79.409 205.28C84.5903 205.217 89.7579 204.732 94.8605 203.83C100.967 202.734 106.956 201.065 112.749 198.846C119.613 196.193 126.212 192.9 132.458 189.01L132.554 188.952C131.233 186.84 129.94 184.71 128.676 182.561C128.334 181.985 128.002 181.405 127.663 180.827C125.589 177.276 123.537 173.709 121.381 170.205C119.013 166.354 116.461 162.589 114.305 158.611C110.261 159.916 106.192 161.14 102.099 162.282C95.4442 164.16 88.6988 165.7 81.8885 166.896C75.6378 167.977 69.326 168.669 62.9896 168.967C62.3483 168.998 62.3517 168.002 62.9896 167.973C66.4973 167.813 69.9966 167.528 73.4873 167.118C80.0139 166.326 86.49 165.161 92.8838 163.63C100.136 161.92 107.292 159.83 114.382 157.547C117.86 156.096 121.228 154.393 124.459 152.452C124.823 152.231 125.175 151.997 125.533 151.768C125.82 151.585 126.111 151.407 126.388 151.22C125.482 148.364 124.274 145.613 122.785 143.012C120.58 139.222 117.884 135.74 114.767 132.657C111.692 129.651 108.105 127.219 104.175 125.475C103.966 125.742 103.744 125.998 103.508 126.241C102.338 127.457 100.874 128.351 99.257 128.835C91.9039 131.031 83.8003 132.699 76.201 130.642C72.7617 129.635 69.5591 127.949 66.7823 125.683C65.3174 124.627 63.9919 123.39 62.8374 122.002C61.8927 120.724 61.2915 119.225 61.0915 117.648C61.0761 117.544 61.0487 117.443 61.0385 117.339C61.0128 117.115 61.0162 116.885 61.0077 116.655C60.941 116.655 60.8726 116.655 60.8042 116.668C53.1511 117.482 45.7958 120.081 39.33 124.255C32.8045 128.508 27.0965 133.899 22.478 140.17C20.0938 143.353 17.953 146.711 16.074 150.215C14.6667 152.831 13.4628 155.526 12.2881 158.252C11.9717 158.989 11.6639 159.726 11.3869 160.475C9.98976 164.323 9.09377 168.334 8.721 172.411C8.46496 175.163 8.50509 177.934 8.84071 180.677C9.21323 183.723 10.014 186.702 11.2193 189.524C12.5922 192.68 14.482 195.585 16.811 198.119C19.6161 201.126 22.8799 203.669 26.4811 205.655C31.1405 208.209 36.1049 210.163 41.2555 211.469C48.07 213.21 55.0308 214.318 62.0491 214.778C70.8997 215.585 79.8111 215.448 88.6327 214.369C95.7663 213.505 102.683 211.348 109.043 208.004C114.006 205.315 118.326 201.581 121.706 197.06C121.872 196.802 122.051 196.553 122.243 196.313C122.662 195.978 123.129 195.709 123.63 195.515C124.707 194.936 125.774 194.338 126.832 193.723C129.066 192.423 131.253 191.05 133.395 189.605L133.414 189.588C132.569 190.116 131.721 190.633 130.87 191.139Z" fill="#9CF0F0"/>
<path d="M182.127 132.239C185.322 125.633 187.664 118.648 189.099 111.451C189.947 107.938 190.206 104.308 189.865 100.71C189.273 96.6885 187.369 92.9747 184.449 90.146C184.107 89.828 183.551 89.356 183.103 89.7647C182.86 90.0544 182.714 90.4134 182.686 90.7907C182.601 91.939 182.634 93.093 182.784 94.2347L183.227 102.396C183.261 103.039 182.276 103.031 182.231 102.396C182.065 99.9944 181.551 97.6292 180.704 95.3752C180.31 94.3295 179.844 93.3124 179.309 92.3314C178.889 91.4762 178.343 90.6893 177.688 89.9973C177.114 89.3354 176.306 88.9206 175.434 88.8396C175.015 88.8895 174.632 89.0995 174.365 89.4256C174.097 89.7516 173.966 90.1685 173.999 90.5889C174.02 91.5453 174.128 92.4978 174.323 93.4344C174.474 94.5456 174.546 95.6662 174.536 96.7877C174.514 99.0341 174.174 101.266 173.527 103.417C173.493 103.53 173.419 103.628 173.319 103.691C173.22 103.755 173.101 103.781 172.983 103.766C172.866 103.75 172.758 103.693 172.679 103.605C172.6 103.517 172.555 103.404 172.551 103.286C172.484 100.787 172.185 98.3004 171.657 95.8574C171.376 94.6718 170.955 93.5237 170.403 92.4374C169.936 91.538 169.206 90.0434 168.074 89.9032C166.441 89.6946 166.138 92.3383 166.127 93.4446C166.138 95.2428 166.021 97.0396 165.774 98.8209C165.328 102.636 163.881 106.265 161.58 109.341C159.22 112.204 155.969 114.194 152.346 114.992C151.112 115.268 149.847 115.378 148.584 115.319C149.813 117.107 150.93 118.97 151.928 120.897C152.253 121.486 152.539 122.095 152.783 122.722C152.975 123.291 152.346 123.888 152.043 124.343C151.292 125.471 150.534 126.594 149.769 127.711C145.338 134.536 140.118 140.814 134.218 146.417C128.584 151.379 122.171 155.378 115.237 158.254C116.401 160.379 117.696 162.431 118.982 164.485C121.533 168.534 124.018 172.624 126.436 176.754C128.713 180.665 130.988 184.577 133.387 188.416L133.872 188.074C133.89 187.82 133.9 187.561 133.936 187.312C134.58 184.23 135.986 181.359 138.026 178.962C138.404 178.449 139.268 178.95 138.881 179.463C136.954 181.729 135.605 184.428 134.948 187.329L135.376 187.035C141.974 182.334 148.171 177.092 153.9 171.364C158.721 166.56 163.22 161.443 167.368 156.048C162.455 158.102 157.777 160.679 153.414 163.732C152.879 164.088 152.388 163.219 152.913 162.877C155.814 160.911 158.817 159.099 161.91 157.45C164.022 156.347 166.21 155.398 168.457 154.608C168.97 153.938 169.483 153.279 169.977 152.6C174.647 146.203 178.715 139.387 182.127 132.239ZM182.431 113.741C182.902 113.032 183.204 112.225 183.314 111.381C183.392 110.753 184.388 110.746 184.309 111.381C184.192 112.401 183.841 113.381 183.283 114.243C182.941 114.779 182.074 114.279 182.428 113.741H182.431ZM171.518 114.238C171.917 113.436 172.076 112.536 171.976 111.646C171.915 111.008 172.91 111.015 172.972 111.646C173.071 112.713 172.864 113.787 172.377 114.741C172.091 115.314 171.234 114.809 171.513 114.238H171.518ZM151.658 165.015C150.996 166.943 150.214 168.827 149.317 170.658C148.133 173.489 146.256 175.977 143.857 177.891C142.94 178.563 141.825 178.909 140.689 178.873C139.485 178.74 138.362 178.204 137.503 177.351C136.927 176.899 136.476 176.308 136.191 175.634C135.907 174.96 135.798 174.224 135.875 173.497C136.177 172.326 136.858 171.289 137.812 170.547C139.041 169.525 140.394 168.663 141.839 167.982C144.818 166.565 147.896 165.364 151.048 164.391C151.132 164.369 151.221 164.369 151.306 164.392C151.39 164.415 151.467 164.46 151.528 164.522C151.59 164.584 151.635 164.661 151.657 164.745C151.68 164.83 151.68 164.918 151.658 165.003V165.015Z" fill="#FFE497"/>
<path d="M187.084 91.603C186.498 90.8337 185.851 90.1116 185.152 89.4433C184.359 88.7114 183.177 88.1864 182.324 89.1457C181.715 90.0698 181.486 91.1931 181.684 92.2819L181.87 95.7207C181.831 95.6112 181.802 95.4967 181.763 95.3787C181.364 94.2775 180.892 93.2046 180.349 92.1673C179.882 91.1896 179.282 90.2814 178.565 89.4689C177.38 88.2223 175.229 87.0459 173.767 88.5712C172.305 90.0965 173.29 92.7043 173.452 94.5203C173.599 96.2574 173.546 98.0057 173.293 99.7306C173.162 96.44 172.155 93.244 170.376 90.4727C170.133 90.0682 169.806 89.7203 169.417 89.4526C169.028 89.1848 168.587 89.0032 168.122 88.92C167.765 88.8897 167.407 88.9468 167.077 89.0866C166.747 89.2264 166.457 89.4445 166.231 89.722C165.333 91.0889 164.948 92.7292 165.143 94.3527C165.188 98.3683 164.311 102.341 162.578 105.964C160.779 109.511 157.677 112.225 153.922 113.539C152.503 114.033 151.015 114.303 149.512 114.337C149.233 114.337 148.955 114.32 148.674 114.308C148.503 114.308 148.315 114.308 148.136 114.29H148.12L147.922 114.267H147.867C147.821 114.267 147.775 114.254 147.73 114.245C147.583 114.22 147.432 114.255 147.31 114.341C147.208 114.402 147.135 114.501 147.106 114.616C147.077 114.731 147.095 114.853 147.156 114.955L147.168 114.975C148.91 117.512 150.454 120.18 151.785 122.954C147.866 129.12 143.495 134.987 138.708 140.507C135.073 144.59 130.937 148.195 126.396 151.239C126.114 151.426 125.824 151.603 125.541 151.786C125.184 152.014 124.832 152.248 124.467 152.47C121.237 154.411 117.869 156.115 114.39 157.566H114.409C115.02 157.37 115.28 158.329 114.673 158.526L114.305 158.64C116.461 162.618 119.013 166.383 121.381 170.234C123.537 173.738 125.589 177.303 127.665 180.856C128.007 181.434 128.337 182.012 128.676 182.59C129.94 184.738 131.233 186.868 132.554 188.981L132.987 188.717C133.532 188.375 134.03 189.239 133.488 189.572C133.616 189.487 133.737 189.393 133.864 189.306C133.845 188.907 133.849 188.507 133.874 188.109C133.703 188.22 133.551 188.334 133.389 188.451C130.995 184.613 128.715 180.701 126.437 176.79C124.026 172.654 121.528 168.582 118.985 164.521C117.698 162.469 116.403 160.417 115.239 158.29C122.173 155.414 128.586 151.415 134.22 146.453C140.12 140.851 145.339 134.574 149.77 127.751C150.536 126.635 151.295 125.512 152.045 124.382C152.347 123.925 152.977 123.33 152.785 122.761C152.541 122.135 152.255 121.525 151.93 120.936C150.937 118.997 149.825 117.122 148.599 115.321C149.862 115.38 151.127 115.27 152.361 114.994C155.984 114.196 159.236 112.206 161.595 109.343C163.897 106.267 165.344 102.638 165.79 98.8226C166.036 97.0413 166.154 95.2446 166.142 93.4464C166.154 92.34 166.457 89.6964 168.09 89.905C169.227 90.0503 169.952 91.5397 170.419 92.4392C170.971 93.5255 171.391 94.6735 171.672 95.8592C172.2 98.3021 172.5 100.789 172.566 103.287C172.57 103.406 172.615 103.519 172.694 103.607C172.774 103.695 172.882 103.752 172.999 103.767C173.116 103.783 173.235 103.757 173.335 103.693C173.434 103.629 173.508 103.532 173.543 103.419C174.189 101.268 174.529 99.0358 174.553 96.7894C174.562 95.668 174.49 94.5473 174.338 93.4361C174.143 92.4995 174.035 91.5471 174.015 90.5907C173.982 90.1704 174.113 89.7537 174.381 89.4278C174.648 89.1018 175.031 88.8917 175.449 88.8414C176.322 88.9215 177.13 89.3364 177.703 89.999C178.353 90.6939 178.895 91.4832 179.309 92.34C179.844 93.3206 180.31 94.3371 180.704 95.3821C181.551 97.6368 182.065 100.002 182.231 102.405C182.276 103.039 183.257 103.048 183.227 102.405L182.785 94.2432C182.635 93.1016 182.602 91.9477 182.686 90.7993C182.714 90.422 182.86 90.063 183.103 89.7733C183.551 89.3646 184.104 89.8366 184.449 90.1546C187.369 92.9829 189.273 96.6969 189.865 100.719C190.206 104.317 189.947 107.946 189.099 111.46C187.664 118.656 185.322 125.642 182.127 132.248C178.713 139.392 174.645 146.204 169.974 152.597C169.482 153.281 168.958 153.934 168.456 154.605C169.007 154.412 169.564 154.228 170.126 154.054C174.666 147.94 178.665 141.442 182.076 134.633C185.477 127.931 188.037 120.835 189.699 113.505C189.877 112.69 190.038 111.871 190.183 111.047C190.345 110.138 190.492 109.225 190.617 108.311C190.788 106.998 190.969 105.666 191.031 104.336C191.053 103.862 191.063 103.388 191.051 102.915C190.945 98.822 189.557 94.8658 187.084 91.603Z" fill="#1D1D1B"/>
<path d="M132.978 188.693L132.546 188.957L132.45 189.015C126.203 192.905 119.604 196.198 112.74 198.851C106.947 201.069 100.958 202.737 94.852 203.832C89.7493 204.734 84.5818 205.218 79.4004 205.282C75.2083 205.322 71.017 205.14 66.8439 204.738C63.6821 204.446 60.5306 204.03 57.3671 203.748C57.0538 203.719 56.7403 203.693 56.4266 203.67C55.7888 203.622 55.7922 204.617 56.4266 204.665C59.4721 204.894 62.5022 205.304 65.5409 205.607C69.6363 206.014 73.7489 206.279 77.8529 206.291C89.1181 206.327 100.303 204.395 110.904 200.583C114.324 199.364 117.672 197.965 120.952 196.414C124.338 194.812 127.644 193.053 130.87 191.137C131.721 190.632 132.568 190.119 133.409 189.598L133.479 189.554C134.021 189.215 133.522 188.355 132.978 188.693ZM172.377 114.741C172.864 113.787 173.071 112.713 172.972 111.646C172.91 111.015 171.915 111.008 171.976 111.646C172.076 112.536 171.917 113.436 171.518 114.238C171.234 114.809 172.091 115.314 172.377 114.741ZM183.29 114.243C183.848 113.381 184.199 112.401 184.316 111.381C184.394 110.746 183.399 110.753 183.321 111.381C183.211 112.225 182.909 113.032 182.438 113.741C182.081 114.279 182.941 114.779 183.29 114.243ZM191.643 220.823C192.278 220.891 192.274 219.896 191.643 219.827C190.836 219.737 190.055 219.488 189.345 219.095C188.635 218.702 188.01 218.172 187.505 217.536L187.433 217.45C187.05 216.937 186.187 217.44 186.578 217.951C186.645 218.039 186.717 218.122 186.785 218.198C187.994 219.681 189.74 220.624 191.643 220.823ZM297.648 306.69C297.655 306.817 297.711 306.936 297.803 307.023C297.895 307.11 298.018 307.159 298.145 307.159C298.271 307.159 298.394 307.11 298.486 307.023C298.578 306.936 298.634 306.817 298.641 306.69L298.983 281.724L299.082 274.575C299.075 274.448 299.019 274.329 298.927 274.242C298.835 274.155 298.713 274.106 298.586 274.106C298.459 274.106 298.337 274.155 298.244 274.242C298.152 274.329 298.096 274.448 298.089 274.575L297.747 299.541L297.648 306.69ZM42.514 70.5734C44.1933 63.5261 47.1359 56.8414 51.1991 50.8435C52.3589 49.1334 53.6078 47.4855 54.9406 45.9067C55.351 45.4193 54.6516 44.7097 54.2378 45.2039C48.0964 52.4596 43.7508 61.0601 41.553 70.3084C41.4077 70.9308 42.3653 71.1959 42.514 70.5734ZM30.8501 76.9363C32.2378 65.1374 36.8035 53.9368 44.0599 44.5301C46.0806 41.9119 48.3005 39.4535 50.6998 37.1771C51.1649 36.7342 50.4604 36.0331 49.997 36.4726C45.6502 40.6096 41.8888 45.3208 38.817 50.4758C35.7433 55.629 33.3755 61.1716 31.7769 66.9551C30.879 70.2274 30.2364 73.5645 29.8549 76.9363C29.7831 77.5708 30.78 77.5656 30.8501 76.9363Z" fill="#1D1D1B"/>
</svg>
