<svg width="527" height="342" viewBox="0 0 527 342" fill="none" xmlns="http://www.w3.org/2000/svg">
<path d="M359.832 307.349L348.359 316.623C348.06 316.865 347.822 317.156 347.66 317.479C347.497 317.802 347.413 318.15 347.412 318.503V333.276C347.412 333.919 347.692 334.538 348.196 335.014C348.701 335.489 349.395 335.787 350.141 335.847L372.722 337.727L385.171 327.662C385.472 327.422 385.712 327.131 385.875 326.807C386.039 326.484 386.123 326.135 386.123 325.783V310.919C386.124 310.274 385.843 309.653 385.336 309.176C384.829 308.7 384.132 308.403 383.383 308.343L362.184 306.658C361.757 306.624 361.327 306.668 360.921 306.787C360.516 306.906 360.145 307.098 359.832 307.349Z" fill="#7AC242"/>
<path d="M358.629 304.773L345.164 315.658C344.814 315.942 344.534 316.284 344.343 316.664C344.153 317.044 344.055 317.453 344.055 317.866V335.201C344.054 335.955 344.382 336.682 344.973 337.24C345.565 337.798 346.379 338.147 347.255 338.219L373.755 340.427L388.369 328.612C388.72 328.328 388.999 327.986 389.19 327.606C389.381 327.226 389.479 326.817 389.479 326.404V308.96C389.478 308.204 389.148 307.476 388.552 306.917C387.958 306.359 387.141 306.011 386.262 305.941L361.387 303.952C360.886 303.913 360.381 303.966 359.905 304.108C359.429 304.249 358.994 304.476 358.629 304.773Z" fill="#7AC242"/>
<path d="M429.356 208.461V223.32C429.355 223.672 429.271 224.02 429.108 224.343C428.946 224.666 428.708 224.958 428.41 225.199L415.949 235.264L393.357 233.385C392.704 233.334 392.089 233.096 391.615 232.708C395.348 232.32 398.49 230.834 399.453 229.227C400.934 226.741 400.539 222.405 394.228 221.649C393.006 221.509 391.797 221.296 390.61 221.012V216.035C390.609 215.684 390.693 215.336 390.855 215.013C391.019 214.691 391.257 214.4 391.557 214.16L403.024 204.876C403.336 204.631 403.703 204.444 404.102 204.326C404.501 204.208 404.925 204.162 405.347 204.19L426.545 205.881C427.309 205.925 428.024 206.216 428.546 206.696C429.068 207.175 429.358 207.806 429.356 208.461Z" fill="#7AC242"/>
<path d="M432.719 206.502V223.941C432.718 224.357 432.618 224.768 432.425 225.149C432.232 225.531 431.951 225.874 431.598 226.159L416.995 237.964L390.495 235.762C389.618 235.688 388.805 235.338 388.213 234.779C387.621 234.221 387.295 233.493 387.296 232.738V232.669C388.737 232.865 390.205 232.879 391.65 232.708C395.384 232.32 398.525 230.834 399.489 229.227C400.97 226.741 400.575 222.405 394.263 221.649C393.042 221.509 391.833 221.296 390.646 221.012C387.812 220.272 387.638 219.461 387.638 219.461L387.29 219.65V215.423C387.286 215.011 387.382 214.602 387.572 214.223C387.762 213.843 388.041 213.502 388.393 213.22L401.864 202.33C402.23 202.034 402.665 201.808 403.14 201.667C403.616 201.525 404.121 201.472 404.622 201.509L429.496 203.499C430.372 203.57 431.185 203.916 431.781 204.471C432.376 205.025 432.71 205.749 432.719 206.502Z" fill="#7AC242"/>
<path d="M433.554 253.479L419.996 264.419C419.643 264.705 419.361 265.049 419.168 265.432C418.975 265.814 418.876 266.226 418.875 266.642V284.101C418.874 284.861 419.204 285.594 419.8 286.157C420.396 286.719 421.215 287.071 422.098 287.145L448.807 289.367L463.526 277.473C463.88 277.187 464.162 276.843 464.354 276.46C464.547 276.078 464.647 275.666 464.647 275.25V257.696C464.648 256.934 464.316 256.199 463.716 255.637C463.117 255.073 462.293 254.723 461.407 254.653L436.358 252.664C435.85 252.62 435.337 252.67 434.853 252.811C434.369 252.951 433.926 253.18 433.554 253.479Z" fill="#7AC242"/>
<path d="M432.131 250.436L416.216 263.3C415.802 263.636 415.472 264.039 415.247 264.487C415.021 264.936 414.904 265.418 414.904 265.906V286.394C414.905 287.285 415.293 288.144 415.993 288.804C416.692 289.464 417.654 289.878 418.69 289.964L450.009 292.57L467.277 278.606C467.693 278.272 468.024 277.869 468.25 277.42C468.476 276.972 468.591 276.489 468.589 276.001V255.384C468.582 254.492 468.188 253.636 467.482 252.98C466.777 252.324 465.812 251.917 464.775 251.838L435.377 249.496C434.789 249.449 434.197 249.508 433.637 249.67C433.078 249.832 432.565 250.093 432.131 250.436Z" fill="#7AC242"/>
<path d="M470.309 264.141L456.199 275.548C455.832 275.846 455.54 276.204 455.34 276.602C455.141 276.999 455.038 277.428 455.038 277.861V296.026C455.038 296.817 455.382 297.579 456.002 298.165C456.622 298.75 457.475 299.117 458.394 299.194L486.166 301.506L501.478 289.134C501.845 288.836 502.137 288.477 502.336 288.08C502.536 287.682 502.639 287.254 502.639 286.821V268.527C502.637 267.734 502.291 266.97 501.666 266.385C501.043 265.799 500.187 265.433 499.265 265.359L473.2 263.276C472.674 263.234 472.144 263.291 471.645 263.44C471.146 263.589 470.691 263.828 470.309 264.141Z" fill="#7AC242"/>
<path d="M468.839 260.973L452.28 274.36C451.848 274.709 451.505 275.13 451.27 275.597C451.036 276.063 450.914 276.567 450.915 277.075V298.398C450.914 299.324 451.317 300.217 452.043 300.903C452.77 301.589 453.769 302.019 454.846 302.108L487.42 304.823L505.419 290.292C505.851 289.943 506.194 289.522 506.428 289.055C506.663 288.588 506.784 288.085 506.784 287.577V266.12C506.783 265.191 506.377 264.295 505.646 263.608C504.914 262.921 503.91 262.492 502.83 262.405L472.236 259.969C471.619 259.92 470.997 259.985 470.411 260.158C469.826 260.331 469.29 260.609 468.839 260.973Z" fill="#7AC242"/>
<path d="M429.559 277.324L409.777 293.316C409.261 293.732 408.849 294.234 408.569 294.792C408.288 295.35 408.144 295.951 408.146 296.558V322.028C408.15 323.134 408.633 324.199 409.5 325.018C410.368 325.837 411.559 326.352 412.843 326.464L451.78 329.706L473.264 312.346C473.778 311.929 474.188 311.426 474.469 310.869C474.749 310.312 474.894 309.711 474.895 309.104V283.475C474.89 282.365 474.403 281.297 473.53 280.477C472.656 279.658 471.459 279.145 470.169 279.039L433.624 276.125C432.886 276.067 432.141 276.143 431.441 276.35C430.74 276.556 430.099 276.889 429.559 277.324Z" fill="#7AC242"/>
<path d="M427.488 272.883L404.262 291.65C403.657 292.139 403.175 292.729 402.845 293.383C402.516 294.037 402.346 294.742 402.345 295.454V325.345C402.344 326.645 402.909 327.898 403.929 328.861C404.949 329.824 406.351 330.427 407.861 330.551L453.552 334.355L478.751 313.967C479.356 313.479 479.839 312.889 480.168 312.235C480.498 311.581 480.667 310.876 480.667 310.163V280.103C480.668 278.801 480.101 277.544 479.076 276.581C478.051 275.618 476.643 275.017 475.129 274.897L432.26 271.481C431.393 271.41 430.52 271.498 429.696 271.74C428.874 271.981 428.12 272.371 427.488 272.883Z" fill="#7AC242"/>
<path d="M290.004 58.1464C306.262 47.5844 330.887 38.1015 363.832 43.0195" stroke="#D6E2CC" stroke-width="3" stroke-miterlimit="10"/>
<path d="M298.26 66.4011C312.729 57.7934 332.436 51.1846 358.135 52.6018" stroke="white" stroke-width="3" stroke-linecap="round" stroke-linejoin="round"/>
<path d="M411.822 61.9456C427.708 74.5116 436.057 92.2244 439.112 110.275C441.135 122.281 441.153 134.472 439.164 146.482C439.012 147.187 438.909 147.899 438.856 148.615C439.884 148.218 440.948 147.894 442.038 147.645C455.172 144.756 469.142 144.289 481.852 148.734C492.426 152.429 501.425 158.908 508.3 166.636C517.491 177.031 523.05 189.446 524.331 202.44C526.654 227.303 512.771 247.353 491.949 261.495L491.711 261.659" stroke="#D6E2CC" stroke-width="3" stroke-linejoin="round"/>
<path d="M409.284 73.9099C429.873 94.6312 431.18 122.493 429.362 149.048C429.322 149.629 429.066 151.171 428.828 152.737" stroke="white" stroke-width="3" stroke-linecap="round" stroke-linejoin="round"/>
<path d="M437.213 155.736C452.402 154.443 469.264 154.06 482.183 160.524C494.957 166.919 504.468 177.258 509.943 188.963C516.162 202.25 517.16 217.805 510.21 231.042C502.412 245.861 489.499 256.468 474.884 266.398C474.844 266.423 476.626 266.761 478.484 267.12" stroke="white" stroke-width="3" stroke-linecap="round" stroke-linejoin="round"/>
<path d="M172.89 308.488C169.638 309.491 166.233 310.082 162.781 310.243C113.758 312.824 67.7545 289.855 35.355 264.141C33.8744 262.967 32.4518 261.764 31.0815 260.546" stroke="black" stroke-width="3" stroke-miterlimit="10"/>
<path d="M220.049 291.993C222.883 295.703 229.531 294.221 229.531 294.221C266.61 287.706 255.793 245.662 224.427 226.149" stroke="black" stroke-width="3" stroke-miterlimit="10"/>
<path d="M263.236 191.669C249.795 202.708 237.793 209.406 226.546 213.375L231.191 185.562C180.531 159.615 167.048 188.546 167.048 188.546C165.109 191.261 164.209 223.474 163.953 234.469C163.89 234.469 162.281 234.469 162.212 234.469C130.277 233.007 101.413 207.989 101.413 207.989C117.549 173.29 175.154 130.415 175.154 130.415C215.136 106.402 245.655 114.477 245.655 114.477C236.254 115.059 249.063 137.352 249.063 137.352C267.939 151.39 274.907 130.425 274.907 130.425C293.174 167.869 263.236 191.669 263.236 191.669Z" fill="#142B01"/>
<path d="M296.269 175.472C296.269 175.472 292.954 211.952 264.137 210.744C264.137 210.744 253.331 200.734 253.604 193.121C253.877 185.507 277.991 137.963 277.991 137.963C277.991 137.963 293.622 171.35 296.269 175.472Z" fill="#142B01"/>
<path d="M33.7286 262.694V262.818L36.1905 264.807C36.1905 264.807 35.1686 265.618 33.7286 266.796C31.8532 268.288 29.2693 270.347 27.3416 271.918C24.0029 274.633 6.93225 289.248 2.37427 275.956C3.27425 271.307 6.72322 261.744 19.9443 250.128C38.7453 233.579 36.1266 235.632 40.8472 235.906C43.0246 236.025 45.8465 237.119 48.2619 238.268C42.1536 240.446 32.8925 246.488 33.7286 262.694Z" fill="#7AC242"/>
<path d="M53.3657 241.018C53.3657 241.018 34.8841 242.51 33.7286 262.694V262.818C33.6531 264.061 33.6531 265.369 33.7286 266.761C31.8531 268.253 29.2693 270.312 27.3416 271.883C24.0029 274.598 6.93225 289.213 2.37427 275.921C3.27425 271.272 6.72322 261.709 19.9443 250.093C38.7453 233.544 36.1266 235.597 40.8472 235.871C43.0246 235.99 45.8464 237.084 48.2619 238.233C50.0177 239.086 51.7213 240.015 53.3657 241.018Z" fill="#7AC242"/>
<path d="M226.425 214.215C247.327 202.991 280.865 188.62 280.784 156.357C280.784 148.695 279.86 142.434 277.88 136.506L277.689 135.94C276.997 134.021 276.065 132.172 274.908 130.425" stroke="black" stroke-width="3" stroke-miterlimit="10"/>
<path d="M125.597 270.063C120.761 266.538 116.394 263.136 113.491 260.789L113.445 260.75C111.157 258.925 109.787 257.766 109.787 257.766C107.841 255.493 106.111 253.29 104.561 251.172C104.531 251.14 104.509 251.103 104.497 251.063C93.2211 235.448 92.5418 223.007 103.045 204.702C103.106 204.57 103.176 204.44 103.254 204.314C104.416 202.325 105.699 200.247 107.116 198.098C128.141 166.273 189.827 106.973 243.042 114.472" stroke="black" stroke-width="3" stroke-miterlimit="10"/>
<path d="M35.3729 264.126C24.341 275.852 16.6012 280.014 11.3696 280.934C6.13812 281.854 1.31885 277.88 2.07948 273.286C4.50654 258.765 24.2365 241.396 33.9446 233.628C35.4316 232.43 37.3401 231.688 39.3712 231.517C41.4028 231.346 43.4438 231.756 45.174 232.684L50.034 235.274C64.3931 242.942 79.3793 250.421 94.4467 257.313C108.26 263.639 123.438 271.769 139.789 269.929" stroke="black" stroke-width="3" stroke-miterlimit="10"/>
<path d="M233.253 155.229C233.44 161 233.268 166.777 232.736 172.534C230.895 193.364 225.925 213.912 223.19 234.658C221.448 247.935 220.38 261.272 220.171 274.633C219.997 285.852 219.962 294.41 220.351 305.628C220.601 312.849 225.368 317.458 232.626 320.546C238.74 323.142 243.002 322.615 246.811 327.851C254.643 338.642 239.262 339.408 233.003 337.986C215.445 334.007 189.612 331.824 179.585 316.871C171.589 304.937 170.573 297.135 168.553 283.798C166.346 269.347 164.488 254.837 164.093 240.257C163.484 216.781 165.609 179.018 175.433 156.815" stroke="black" stroke-width="3" stroke-miterlimit="10"/>
<path d="M452.582 266.574L452.489 266.654L450.312 266.463L450.393 266.398L452.582 266.574Z" fill="#7AC242"/>
<path d="M418.041 264.031L435.93 265.549L418.041 264.156V264.031Z" fill="#7AC242"/>
<path d="M452.582 266.573L452.49 266.652L450.312 266.463L450.074 266.652L449.035 266.573L449.273 266.384L449.348 266.314L450.393 266.398L452.582 266.573Z" fill="#7AC242"/>
<path d="M452.582 266.573L452.489 266.652L450.312 266.463L449.273 266.384L449.348 266.314L450.393 266.398L452.582 266.573Z" fill="#7AC242"/>
<path d="M406.902 293.177L433.35 295.389L406.902 293.356V293.177Z" fill="#7AC242"/>
<path d="M457.988 296.896L457.848 297.016L454.626 296.737L454.277 297.016L452.739 296.896L453.087 296.618L453.203 296.518L454.747 296.638L457.988 296.896Z" fill="#7AC242"/>
<path d="M457.988 296.896L457.849 297.016L454.626 296.737L453.087 296.618L453.204 296.518L454.748 296.638L457.988 296.896Z" fill="#7AC242"/>
<path d="M277.677 135.935C277.677 135.935 294.759 184.737 314.739 196.104C333.563 206.81 358.838 202.166 378.69 196.318C384.172 194.702 389.682 193.126 395.529 193.2C403.756 193.3 420.525 194.861 422.702 203.061" stroke="black" stroke-width="3" stroke-miterlimit="10"/>
<path d="M255.225 197.86C284.704 248.984 336.973 238.785 363.879 229.546C366.317 228.696 368.961 228.372 371.579 228.601C374.18 228.845 376.224 229.789 378.645 230.59C382.762 231.982 387.413 232.982 391.878 232.723C396.343 232.465 401.783 229.551 399.902 225.04C398.404 221.445 393.736 221.704 390.159 221.013C386.582 220.321 385.723 215.856 389.067 214.409C389.108 214.398 389.146 214.379 389.178 214.354" stroke="black" stroke-width="3" stroke-miterlimit="10"/>
<path d="M389.479 306.205L373.755 318.93L344.055 316.563L359.796 303.843L389.479 306.205Z" stroke="black" stroke-width="3" stroke-linecap="square" stroke-linejoin="round"/>
<path d="M373.755 318.93V340.432L344.055 337.961V316.563L373.755 318.93Z" stroke="black" stroke-width="3" stroke-linecap="square" stroke-linejoin="round"/>
<path d="M389.477 306.205V327.722L373.754 340.432V318.93L389.477 306.205Z" stroke="black" stroke-width="3" stroke-linecap="square" stroke-linejoin="round"/>
<path d="M480.911 275.543L454.004 297.319L403.198 293.266L415.09 283.649V289.074L450.073 291.993L468.59 277.015V274.554L480.911 275.543Z" stroke="black" stroke-width="3" stroke-linecap="square" stroke-linejoin="round"/>
<path d="M454.004 297.314V334.097L403.198 329.87V293.271L454.004 297.314Z" stroke="black" stroke-width="3" stroke-linecap="square" stroke-linejoin="round"/>
<path d="M480.905 275.548V312.356L454.004 334.097V297.314L480.905 275.548Z" stroke="black" stroke-width="3" stroke-linecap="square" stroke-linejoin="round"/>
<path d="M468.59 251.674L450.073 266.652L415.09 263.872L433.624 248.89L468.59 251.674Z" stroke="black" stroke-width="3" stroke-linecap="square" stroke-linejoin="round"/>
<path d="M450.073 272.152V266.652L415.09 263.872V286.995" stroke="black" stroke-width="3" stroke-linecap="square" stroke-linejoin="round"/>
<path d="M468.59 251.674V277.015L450.073 291.993V266.652L468.59 251.674Z" stroke="black" stroke-width="3" stroke-linecap="square" stroke-linejoin="round"/>
<path d="M469.107 260.595L469.903 259.954L506.855 262.898L487.281 278.746L481.794 278.303" stroke="black" stroke-width="3" stroke-linecap="square" stroke-linejoin="round"/>
<path d="M481.468 278.273L487.28 278.746V305.504L480.911 304.977" stroke="black" stroke-width="3" stroke-linecap="square" stroke-linejoin="round"/>
<path d="M506.848 262.898V289.681L487.275 305.504V278.736L506.848 262.898Z" stroke="black" stroke-width="3" stroke-linecap="square" stroke-linejoin="round"/>
<path d="M432.713 203.852L416.99 216.577L387.29 214.21L403.031 201.485L432.713 203.852Z" stroke="black" stroke-width="3" stroke-linecap="square" stroke-linejoin="round"/>
<path d="M387.283 232.599V235.613L416.983 238.084V216.582L389.176 214.364L387.283 214.215V216.08V218.014" stroke="black" stroke-width="3" stroke-linecap="square" stroke-linejoin="round"/>
<path d="M432.712 203.852V225.369L416.988 238.079V216.577L432.712 203.852Z" stroke="black" stroke-width="3" stroke-linecap="square" stroke-linejoin="round"/>
<path d="M280.784 111.653C283.484 114.751 288.222 115.367 291.363 113.234" stroke="black" stroke-width="3" stroke-miterlimit="10"/>
<path d="M323.71 80.7772C322.546 83.2566 320.501 85.3591 317.865 86.7873C315.228 88.2154 312.134 88.8962 309.02 88.7336C308.951 87.6436 308.574 86.5839 307.922 85.6455C305.129 81.7469 302.505 88.0374 292.39 81.9558C278.38 73.5021 271.964 76.4858 271.964 76.4858C271.383 76.7444 270.924 79.7379 270.767 80.2601C269.809 83.2934 268.857 86.3119 267.864 89.3402C267.284 91.1901 266.703 93.025 266.122 94.86C265.973 94.5203 265.801 94.1881 265.606 93.8654C264.967 89.4944 263.393 84.2333 257.68 85.6654C256.522 85.9742 255.465 86.5123 254.597 87.2368C250.364 90.7475 252.361 94.9296 255.543 98.2464C256.31 99.2479 257.202 100.175 258.203 101.011C257.407 102.006 254.167 105.984 254.167 105.984C253.83 106.382 246.66 96.854 246.172 95.8495C245.607 93.482 245.511 91.0494 245.887 88.654C247.496 78.808 254.196 67.9824 264.468 63.5617C267.022 62.4677 266.523 61.0256 267.011 59.1459C267.026 59.0365 267.083 58.9341 267.173 58.8555C267.263 58.7764 267.382 58.7257 267.51 58.7108C267.637 58.6959 267.767 58.7183 267.879 58.7735C267.99 58.8292 268.077 58.9147 268.126 59.0166C270.564 62.2091 277.811 62.8755 277.811 62.8755C302.691 60.7322 310.419 71.3937 315.238 73.7408C317.183 74.6623 319.435 74.99 321.625 74.6707C321.64 75.2779 321.849 75.8702 322.23 76.3823C322.611 76.8945 323.149 77.3073 323.785 77.5748L323.483 78.5693C323.264 79.3063 323.344 80.085 323.71 80.7772Z" fill="#7AC242"/>
<path d="M309.003 88.7336C312.112 88.8957 315.201 88.2175 317.835 86.7943C320.469 85.3711 322.514 83.2751 323.681 80.8022C324.137 79.8568 324.491 78.8782 324.738 77.8782L324.552 77.8334C324.285 77.7777 324.028 77.6922 323.786 77.5798C323.15 77.3118 322.612 76.8991 322.231 76.3869C321.85 75.8747 321.641 75.283 321.626 74.6758C321.607 74.3406 321.65 74.005 321.754 73.6812L323.257 68.9174C323.257 68.9174 318.223 71.2048 313.503 68.8677C308.782 66.5305 302.047 55.8988 276.075 58.0023C276.075 58.0023 270.367 57.5498 267.946 54.2976C267.896 54.1977 267.809 54.1146 267.698 54.0609C267.587 54.0077 267.458 53.9873 267.332 54.0022C267.206 54.0177 267.089 54.0679 267 54.1455C266.911 54.223 266.853 54.324 266.837 54.4319C266.349 56.3116 265.281 57.5448 262.732 58.6388C252.437 63.0645 245.731 73.8901 244.152 83.7311C243.558 87.8405 244.251 92.0106 246.161 95.8148C246.648 96.8093 253.819 106.347 254.156 105.949C254.156 105.949 257.396 101.971 258.191 100.976L258.383 100.758L258.133 100.564C257.206 99.8307 256.337 99.045 255.532 98.2116C252.35 94.8948 250.353 90.7128 254.586 87.202C255.455 86.4775 256.511 85.939 257.669 85.6307C263.382 84.1985 264.956 89.4596 265.595 93.8307C265.718 94.6651 265.736 95.5089 265.647 96.3468L266.111 94.855C266.692 93.0201 267.273 91.1852 267.853 89.3353C268.823 86.3069 269.775 83.2885 270.756 80.2552C270.913 79.733 271.395 76.7394 271.953 76.4809C271.953 76.4809 278.369 73.5271 292.379 81.9508C302.494 88.0325 305.118 81.742 307.911 85.6406C308.564 86.5785 308.941 87.6381 309.009 88.7286C309.023 89.0787 309.012 89.4293 308.974 89.7779C308.983 89.8241 308.983 89.8709 308.974 89.9171C308.892 90.678 308.776 91.4388 308.66 92.1797C307.499 99.3305 305.234 106.665 300.781 112.866C295.381 120.38 283.443 126.934 273.166 121.757C269.967 120.141 267.226 117.844 264.776 115.467" stroke="black" stroke-width="3" stroke-miterlimit="10"/>
<path d="M301.449 104.023C302.09 102.953 301.773 101.717 300.74 101.263C299.707 100.809 298.35 101.309 297.709 102.379C297.067 103.449 297.384 104.685 298.417 105.139C299.45 105.593 300.807 105.093 301.449 104.023Z" fill="black"/>
<path d="M285.25 101.452C285.891 100.382 285.574 99.1469 284.542 98.6929C283.509 98.2389 282.152 98.7381 281.51 99.8083C280.869 100.878 281.186 102.114 282.219 102.568C283.251 103.022 284.609 102.522 285.25 101.452Z" fill="black"/>
<path d="M288.006 105.795C288.006 105.795 292.959 109.137 293.772 106.446C294.027 105.616 296.82 97.5403 296.82 97.5403C296.82 97.5403 301.906 94.1389 308.096 97.948" stroke="black" stroke-width="3" stroke-miterlimit="10"/>
<path d="M291.277 94.4472C291.277 94.4472 283.194 89.564 276.459 94.2085" stroke="black" stroke-width="3" stroke-miterlimit="10"/>
<path d="M252.061 103.687L247.869 115.263L243.078 114.492C240.065 118.799 243.949 132.717 249.088 137.367C263.749 150.674 272.766 135.313 272.766 135.313L274.909 130.41L278.015 123.319" stroke="black" stroke-width="3" stroke-miterlimit="10"/>
<path d="M379.046 68.2162C380.138 69.0566 381.013 70.0839 381.613 71.2316C382.213 72.3793 382.525 73.622 382.53 74.8796V76.3018C382.534 77.3073 382.784 78.3003 383.264 79.2183C383.743 80.1357 384.441 80.9572 385.313 81.6305C386.185 82.3033 387.212 82.8125 388.327 83.1253C389.443 83.4386 390.623 83.548 391.791 83.4476C396.128 83.0696 399.298 79.6932 399.298 75.9388V74.8746C399.295 73.6265 399.596 72.3918 400.183 71.2495C400.77 70.1068 401.63 69.0824 402.707 68.2411" stroke="#D6E2CC" stroke-width="3" stroke-linejoin="round"/>
<path d="M379.046 68.2162C380.138 69.0566 381.013 70.0839 381.613 71.2316C382.213 72.3793 382.525 73.622 382.53 74.8796V76.3018C382.534 77.3073 382.784 78.3003 383.264 79.2183C383.743 80.1357 384.441 80.9572 385.313 81.6305C386.185 82.3033 387.212 82.8125 388.327 83.1253C389.443 83.4386 390.623 83.548 391.791 83.4476C396.128 83.0696 399.298 79.6932 399.298 75.9388V74.8746C399.295 73.6265 399.596 72.3918 400.183 71.2495C400.77 70.1068 401.63 69.0824 402.707 68.2411" stroke="#D6E2CC" stroke-width="3" stroke-linejoin="round"/>
<path d="M379.044 68.2162C378.487 67.8015 377.885 67.435 377.244 67.1222C372.334 64.7085 368.416 61.052 366.029 56.6551C363.641 52.2588 362.901 47.3368 363.909 42.5655C364.917 37.7942 367.625 33.4072 371.661 30.0059C375.696 26.6051 380.862 24.3569 386.448 23.5697C392.035 22.783 397.77 23.4961 402.864 25.611C407.959 27.7259 412.165 31.1397 414.904 35.3829C417.644 39.6266 418.783 44.4919 418.165 49.3119C417.548 54.132 415.204 58.6701 411.455 62.3037C411.396 62.3519 411.344 62.4051 411.298 62.4628C409.317 64.3261 407.007 65.9118 404.452 67.162C403.823 67.4618 403.237 67.8258 402.71 68.246" stroke="#D6E2CC" stroke-width="3" stroke-linejoin="round"/>
<path d="M387.975 66.6846C386.204 63.9297 383.22 60.2797 381.118 57.679C378.832 54.9207 376.965 51.9246 375.561 48.763C375.375 48.4218 375.303 48.0429 375.352 47.669C375.381 47.4835 375.493 47.3144 375.663 47.1976C375.835 47.0812 376.052 47.0255 376.27 47.0424C376.659 47.1071 376.85 47.4552 377.053 47.7585C377.888 49.1792 379.078 50.4254 380.537 51.4085C381.356 51.9505 382.517 52.403 383.371 51.9057C383.63 51.7113 383.838 51.4721 383.981 51.2036C384.124 50.9356 384.199 50.6441 384.201 50.3493C384.458 48.2553 383.818 46.1523 382.401 44.4318C381.82 43.7555 380.81 43.0991 379.991 43.5416C379.173 43.9842 379.411 45.0782 379.899 45.8142C380.765 47.1782 381.948 48.3771 383.373 49.3373C384.799 50.2971 386.438 50.9987 388.19 51.3985C389.049 51.6452 389.978 51.6536 390.844 51.4234C391.324 51.2359 391.744 50.951 392.066 50.5929C392.389 50.2349 392.605 49.8152 392.696 49.3696C392.868 48.4746 392.778 47.5571 392.434 46.6993C391.958 45.3617 391.035 43.9942 389.485 43.5466C388.999 43.385 388.461 43.385 387.975 43.5466C387.653 43.6943 387.385 43.9171 387.204 44.1886C387.022 44.4601 386.933 44.7704 386.947 45.0832C386.985 45.7092 387.209 46.3169 387.598 46.8485C388.497 48.1931 389.765 49.3309 391.291 50.1643C392.817 50.9972 394.556 51.501 396.36 51.6322C397.564 51.7789 398.788 51.5283 399.785 50.9311C400.201 50.6009 400.536 50.2031 400.77 49.7605C401.004 49.3184 401.134 48.8405 401.15 48.3552C401.282 46.8997 400.801 45.4517 399.797 44.2726C399.594 44.0389 399.286 43.7754 398.955 43.8698C398.624 43.9643 398.531 44.2826 398.49 44.566C398.339 45.6799 398.448 46.8082 398.811 47.8858C399.173 48.9629 399.783 49.9679 400.604 50.8416C401.51 51.7913 402.886 52.6168 404.279 52.3334C404.806 52.1956 405.279 51.9376 405.649 51.587C406.018 51.2369 406.269 50.8072 406.376 50.3443C406.576 49.4159 406.468 48.4577 406.062 47.5795C405.563 47.842 405.135 48.1941 404.81 48.6108C404.484 49.028 404.267 49.5004 404.175 49.9962C403.919 50.9907 403.937 51.9853 403.739 52.9798C402.648 58.5592 395.471 61.0505 394.078 66.4061" stroke="#D6E2CC" stroke-width="3" stroke-linejoin="round"/>
<path d="M390.879 14.8491L390.606 0.716583" stroke="#D6E2CC" stroke-width="3" stroke-linejoin="round"/>
<path d="M359.403 27.9969L347.982 17.7979" stroke="#D6E2CC" stroke-width="3" stroke-linejoin="round"/>
<path d="M422.464 28.6335L434.141 18.6432" stroke="#D6E2CC" stroke-width="3" stroke-linejoin="round"/>
<path d="M428.7 162.151C432.003 162.151 434.681 159.858 434.681 157.029C434.681 154.2 432.003 151.907 428.7 151.907C425.398 151.907 422.72 154.2 422.72 157.029C422.72 159.858 425.398 162.151 428.7 162.151Z" fill="#7AC242"/>
</svg>
